<svg width="1045" height="495" viewBox="0 0 1045 495" fill="none" xmlns="http://www.w3.org/2000/svg">
<g clip-path="url(#clip0_1047_147)">
<path d="M1044.83 0.274048H0V495H522.416H1044.83V0.274048Z" fill="white"/>
<path fill-rule="evenodd" clip-rule="evenodd" d="M827.742 191.126C859.124 191.126 881.645 214.017 881.645 247.245C881.645 253.521 880.907 259.428 879.43 264.966L873.154 256.475H822.942L853.586 297.456C846.202 301.148 837.341 303.363 828.111 303.363C796.729 303.363 774.208 280.472 774.208 247.245C773.839 214.386 796.36 191.126 827.742 191.126ZM827.742 146.823C767.932 146.823 725.474 189.65 725.474 247.245C725.474 304.84 767.932 347.667 827.742 347.667C848.048 347.667 865.4 342.129 880.168 332.529L888.66 343.975H942.932L912.289 302.624C922.995 287.118 929.272 269.027 929.272 247.245C930.01 189.65 887.552 146.823 827.742 146.823Z" fill="#222327"/>
<path fill-rule="evenodd" clip-rule="evenodd" d="M112.235 150.515H158.385V344.344H112.235V150.515ZM492.14 344.344V150.515H445.991V269.027L357.383 150.515H337.077H313.079V269.027L224.841 150.515H180.537V344.344H226.687V226.2L314.925 344.344H322.678H348.891H359.598V226.2L447.837 344.344H492.14ZM610.284 191.126C641.666 191.126 664.187 214.017 664.187 247.245C664.187 280.472 641.666 303.363 610.284 303.363C578.533 303.363 556.381 280.472 556.381 247.245C556.381 214.017 578.902 191.126 610.284 191.126ZM610.284 146.823C550.474 146.823 508.016 189.65 508.016 247.245C508.016 304.84 550.474 347.667 610.284 347.667C670.094 347.667 712.552 304.84 712.552 247.245C712.552 189.65 670.094 146.823 610.284 146.823Z" fill="#D15A44"/>
</g>
<defs>
<clipPath id="clip0_1047_147">
<rect width="1044.83" height="494.726" fill="white" transform="translate(0 0.274048)"/>
</clipPath>
</defs>
</svg>
