<svg width="1046" height="496" viewBox="0 0 1046 496" fill="none" xmlns="http://www.w3.org/2000/svg">
<g clip-path="url(#clip0_1047_118)">
<path d="M1045.59 0.469177H0.754272V495.195H1045.59V0.469177Z" fill="#222327"/>
<path fill-rule="evenodd" clip-rule="evenodd" d="M828.496 191.322C859.878 191.322 882.399 214.212 882.399 247.44C882.399 253.716 881.661 259.623 880.184 265.161L873.908 256.67H823.697L854.34 297.651C846.956 301.343 838.095 303.558 828.865 303.558C797.484 303.558 774.962 280.668 774.962 247.44C774.593 214.581 797.114 191.322 828.496 191.322ZM828.496 147.018C768.686 147.018 726.228 189.845 726.228 247.44C726.228 305.035 768.686 347.862 828.496 347.862C848.802 347.862 866.154 342.324 880.922 332.725L889.414 344.17H943.686L913.043 302.82C923.749 287.313 930.026 269.223 930.026 247.44C930.764 189.845 888.306 147.018 828.496 147.018Z" fill="white"/>
<path fill-rule="evenodd" clip-rule="evenodd" d="M112.989 150.71H159.139V344.539H112.989V150.71ZM492.895 344.539V150.71H446.745V269.223L358.137 150.71H337.831H313.833V269.223L225.595 150.71H181.291V344.539H227.441V226.396L315.679 344.539H323.433H349.646H360.352V226.396L448.591 344.539H492.895ZM611.038 191.322C642.42 191.322 664.941 214.212 664.941 247.44C664.941 280.668 642.42 303.558 611.038 303.558C579.287 303.558 557.135 280.668 557.135 247.44C557.135 214.212 579.656 191.322 611.038 191.322ZM611.038 147.018C551.228 147.018 508.77 189.845 508.77 247.44C508.77 305.035 551.228 347.862 611.038 347.862C670.848 347.862 713.306 305.035 713.306 247.44C713.306 189.845 670.848 147.018 611.038 147.018Z" fill="#D15A44"/>
</g>
<defs>
<clipPath id="clip0_1047_118">
<rect width="1044.83" height="494.726" fill="white" transform="translate(0.754272 0.469177)"/>
</clipPath>
</defs>
</svg>
