<svg width="1046" height="495" viewBox="0 0 1046 495" fill="none" xmlns="http://www.w3.org/2000/svg">
<g clip-path="url(#clip0_1047_132)">
<path d="M1045.59 0.274048H0.754272V495H523.17H1045.59V0.274048Z" fill="#DBDDD7"/>
<path fill-rule="evenodd" clip-rule="evenodd" d="M828.496 191.126C859.878 191.126 882.399 214.017 882.399 247.245C882.399 253.521 881.661 259.428 880.184 264.966L873.908 256.475H823.697L854.34 297.456C846.956 301.148 838.095 303.363 828.865 303.363C797.484 303.363 774.962 280.472 774.962 247.245C774.593 214.386 797.114 191.126 828.496 191.126ZM828.496 146.823C768.686 146.823 726.228 189.65 726.228 247.245C726.228 304.84 768.686 347.667 828.496 347.667C848.802 347.667 866.154 342.129 880.922 332.529L889.414 343.975H943.686L913.043 302.624C923.749 287.118 930.026 269.027 930.026 247.245C930.764 189.65 888.306 146.823 828.496 146.823Z" fill="#222327"/>
<path fill-rule="evenodd" clip-rule="evenodd" d="M112.989 150.515H159.139V344.344H112.989V150.515ZM492.895 344.344V150.515H446.745V269.027L358.137 150.515H337.831H313.833V269.027L225.595 150.515H181.291V344.344H227.441V226.2L315.679 344.344H323.433H349.646H360.352V226.2L448.591 344.344H492.895ZM611.038 191.126C642.42 191.126 664.941 214.017 664.941 247.245C664.941 280.472 642.42 303.363 611.038 303.363C579.287 303.363 557.135 280.472 557.135 247.245C557.135 214.017 579.656 191.126 611.038 191.126ZM611.038 146.823C551.228 146.823 508.77 189.65 508.77 247.245C508.77 304.84 551.228 347.667 611.038 347.667C670.848 347.667 713.306 304.84 713.306 247.245C713.306 189.65 670.848 146.823 611.038 146.823Z" fill="#D15A44"/>
</g>
<defs>
<clipPath id="clip0_1047_132">
<rect width="1044.83" height="494.726" fill="white" transform="translate(0.754272 0.274048)"/>
</clipPath>
</defs>
</svg>
