<svg width="1046" height="495" viewBox="0 0 1046 495" fill="none" xmlns="http://www.w3.org/2000/svg">
<g clip-path="url(#clip0_1047_139)">
<path d="M1045.59 0H0.754272V494.726H1045.59V0Z" fill="#D15A44"/>
<path fill-rule="evenodd" clip-rule="evenodd" d="M828.496 190.852C859.878 190.852 882.399 213.743 882.399 246.971C882.399 253.247 881.661 259.154 880.184 264.692L873.908 256.201H823.697L854.34 297.182C846.956 300.874 838.095 303.089 828.865 303.089C797.484 303.089 774.962 280.198 774.962 246.971C774.593 214.112 797.114 190.852 828.496 190.852ZM828.496 146.549C768.686 146.549 726.228 189.376 726.228 246.971C726.228 304.566 768.686 347.393 828.496 347.393C848.802 347.393 866.154 341.855 880.922 332.255L889.414 343.701H943.686L913.043 302.35C923.749 286.844 930.026 268.753 930.026 246.971C930.764 189.376 888.306 146.549 828.496 146.549Z" fill="white"/>
<path fill-rule="evenodd" clip-rule="evenodd" d="M112.989 150.241H159.139V344.07H112.989V150.241ZM492.895 344.07V150.241H446.745V268.753L358.137 150.241H337.831H313.833V268.753L225.595 150.241H181.291V344.07H227.441V225.926L315.679 344.07H323.433H349.646H360.352V225.926L448.591 344.07H492.895ZM611.038 190.852C642.42 190.852 664.941 213.743 664.941 246.971C664.941 280.198 642.42 303.089 611.038 303.089C579.287 303.089 557.135 280.198 557.135 246.971C557.135 213.743 579.656 190.852 611.038 190.852ZM611.038 146.549C551.228 146.549 508.77 189.376 508.77 246.971C508.77 304.566 551.228 347.393 611.038 347.393C670.848 347.393 713.306 304.566 713.306 246.971C713.306 189.376 670.848 146.549 611.038 146.549Z" fill="#222327"/>
</g>
<defs>
<clipPath id="clip0_1047_139">
<rect width="1044.83" height="494.726" fill="white" transform="translate(0.754272)"/>
</clipPath>
</defs>
</svg>
