<svg height="8" viewBox="0 0 214 8" width="214" xmlns="http://www.w3.org/2000/svg"><path d="m.7 0 3.4 4 3.5-4 3.4 4 3.5-4 3.4 4 3.5-4 3.4 4 3.5-4 3.4 4 3.5-4 3.4 4 3.5-4 3.4 4 3.5-4 3.5 4 3.4-4 3.5 4 3.4-4 3.5 4 3.4-4 3.5 4 3.4-4 3.5 4 3.4-4 3.5 4 3.4-4 3.5 4 3.5-4 3.4 4 3.5-4 3.4 4 3.5-4 3.4 4 3.5-4 3.4 4 3.5-4 3.5 4 3.4-4 3.5 4 3.4-4 3.5 4 3.4-4 3.5 4 3.4-4 3.5 4 3.4-4 3.5 4 3.4-4 3.5 4 3.5-4 3.4 4 3.5-4 3.4 4 3.5-4 3.4 4 3.5-4 3.4 4 3.5-4 3.4 4 3.5-4 3.4 4" fill="none" stroke="#ff4d67" stroke-width="2" transform="translate(1 2)"/></svg>