<svg height="700pt" preserveAspectRatio="xMidYMid meet" viewBox="0 0 700 700" width="700pt" xmlns="http://www.w3.org/2000/svg"><g transform="matrix(.1 0 0 -.1 0 700)"><path d="m0 3500v-3500h3500 3500v3500 3500h-3500-3500zm3680 2604c343-39 651-128 939-273 740-370 1208-1040 1333-1906 21-145 17-689-6-840-53-349-177-685-357-965-46-72-51-85-40-102 7-11 184-248 395-526 210-279 386-513 390-519 6-10-137-13-702-13h-709l-109 154-110 154-104-59c-256-144-540-244-855-300-117-21-160-24-430-24-240 0-323 4-415 18-314 49-558 123-815 246-771 371-1267 1062-1403 1954-24 159-24 635 0 794 85 556 312 1043 657 1408 206 217 408 371 662 504 305 160 652 264 999 300 147 15 532 12 680-5z"/><path d="m3200 4959c-246-17-477-96-680-232-96-64-273-241-337-337-105-157-181-339-224-537-26-125-37-435-20-580 68-565 401-995 901-1162 274-92 627-98 895-14 72 23 235 82 243 88 2 2-177 242-397 533-221 292-401 533-401 536s294 6 653 6h652l84-106c47-60 87-102 92-97s19 52 31 104c20 83 22 122 22 334 1 276-10 355-75 550-205 616-750 962-1439 914z"/></g></svg>