<?xml version="1.0" encoding="UTF-8"?>
<svg viewBox="0 0 16 16" version="1.1" xmlns="http://www.w3.org/2000/svg" xmlns:xlink="http://www.w3.org/1999/xlink">
  <g id="favicon" transform="translate(1.000000, 1.000000)" fill="#000000" fill-rule="nonzero">
      <path d="M6.56923077,2.88555556 C8.61538462,2.88555556 10.0153846,4.35555556 10.0153846,6.53333333 C10.0153846,6.96888889 9.96153846,7.35 9.85384615,7.67666667 L9.42307692,7.13222222 L6.19230769,7.13222222 L8.18461538,9.8 C7.7,10.0177778 7.16153846,10.1811111 6.56923077,10.1811111 C4.52307692,10.1811111 3.12307692,8.71111111 3.12307692,6.53333333 C3.12307692,4.35555556 4.57692308,2.88555556 6.56923077,2.88555556 M6.56923077,0 C2.74615385,0 0,2.77666667 0,6.53333333 C0,10.29 2.74615385,13.0666667 6.56923077,13.0666667 C7.86153846,13.0666667 8.99230769,12.6855556 9.96153846,12.0866667 L10.5,12.8488889 L14,12.8488889 L12.0076923,10.1811111 C12.7076923,9.14666667 13.0846154,8.00333333 13.0846154,6.58777778 C13.1923077,2.77666667 10.4461538,0 6.56923077,0" id="Shape"></path>
  </g>
</svg>
