<?xml version="1.0" encoding="utf-8"?>
<!-- Generator: Adobe Illustrator 24.0.3, SVG Export Plug-In . SVG Version: 6.00 Build 0)  -->
<svg version="1.1" id="Ebene_1" xmlns="http://www.w3.org/2000/svg" xmlns:xlink="http://www.w3.org/1999/xlink" x="0px" y="0px"
	 viewBox="0 0 19.4 23.2" style="enable-background:new 0 0 19.4 23.2;" xml:space="preserve">
<style type="text/css">
	.st0{fill:none;stroke:#24244C;stroke-width:1.25;stroke-miterlimit:10;}
</style>
<title>apple-itunes</title>
<g>
	<path class="st0" d="M4.9,12.6C3.2,10,4,6.4,6.7,4.8s6.2-0.9,7.8,1.8c1.2,1.8,1.2,4.2,0,6"/>
	<path class="st0" d="M2.9,15.9c-3.4-3.8-3.2-9.6,0.6-13s9.6-3.2,13,0.6c3.2,3.5,3.2,8.9,0,12.4"/>
	<path class="st0" d="M12.9,16.1c0.1-1.1-0.7-2.1-1.8-2.1c-0.1,0-0.1,0-0.2,0H8.5c-1.1,0-2,0.9-2,2c0,0.1,0,0.1,0,0.2L7,21
		c0.1,1,1,1.7,2,1.7h1.4c1,0,1.9-0.7,2-1.7L12.9,16.1z"/>
	<path class="st0" d="M9.7,12.1c1.3,0,2.4-1.1,2.4-2.4c0-1.3-1.1-2.4-2.4-2.4c-1.3,0-2.4,1.1-2.4,2.4c0,0,0,0,0,0
		C7.3,11,8.4,12.1,9.7,12.1z"/>
</g>
</svg>
