<svg xmlns="http://www.w3.org/2000/svg" viewBox="0 0 20 16">
  <title>arrow-sync-red</title>
  <g>
    <path d="M19.85,6.65a.48.48,0,0,0-.7,0L18,7.8A8,8,0,0,0,2.92,4.27a.5.5,0,0,0,.89.46A7,7,0,0,1,17,7.79L15.85,6.65a.49.49,0,0,0-.7.7l2,2a.49.49,0,0,0,.35.15.47.47,0,0,0,.35-.15l2-2a.48.48,0,0,0,0-.7Z" transform="translate(0)" fill="#ff4d67" fill-rule="evenodd"/>
    <path d="M16.87,11.06a.5.5,0,0,0-.68.21A7,7,0,0,1,3,8.21L4.15,9.35a.48.48,0,0,0,.7,0,.48.48,0,0,0,0-.7l-2-2a.48.48,0,0,0-.7,0l-2,2a.48.48,0,0,0,0,.7.48.48,0,0,0,.7,0L2,8.2a8,8,0,0,0,15.08,3.53.5.5,0,0,0-.21-.67Z" transform="translate(0)" fill="#ff4d67" fill-rule="evenodd"/>
  </g>
</svg>
