<svg xmlns="http://www.w3.org/2000/svg" xmlns:xlink="http://www.w3.org/1999/xlink" viewBox="0 0 72 12">
  <defs>
    <mask id="a" x="0" y="0" width="72" height="12" maskUnits="userSpaceOnUse">
      <g transform="translate(0 0)">
        <polygon points="0 12 0 0 72 0 72 12 0 12" fill="#fff" fill-rule="evenodd"/>
      </g>
    </mask>
  </defs>
  <title>arrow-long-right-red</title>
  <g mask="url(#a)">
    <path d="M71.92,5.62a.93.93,0,0,0-.21-.33l-5-5a1,1,0,1,0-1.42,1.42L68.59,5H1A1,1,0,0,0,1,7H68.59l-3.3,3.29a1,1,0,0,0,0,1.42,1,1,0,0,0,1.42,0l5-5a1.15,1.15,0,0,0,.21-.33A1,1,0,0,0,71.92,5.62Z" transform="translate(0 0)" fill="#ff4d67" fill-rule="evenodd"/>
  </g>
</svg>
