<svg role="img" viewBox="-0.5 -0.5 16 16" xmlns="http://www.w3.org/2000/svg" id="Bluesky--Streamline-Simple-Icons" height="16" width="16"><desc>Bluesky Streamline Icon: https://streamlinehq.com</desc><title>Bluesky</title><path d="M7.5 6.75c-0.679375 -1.32125 -2.52875 -3.783125 -4.24875 -4.996875C1.6037499999999998 0.59 0.975625 0.79125 0.56375 0.9781249999999999 0.08687500000000001 1.1925 0 1.925 0 2.355c0 0.43124999999999997 0.23625000000000002 3.53125 0.39 4.049375 0.5093749999999999 1.7100000000000002 2.320625 2.2875 3.989375 2.1025 0.085 -0.0125 0.171875 -0.024375 0.25937499999999997 -0.035 -0.08625000000000001 0.013749999999999998 -0.17250000000000001 0.025 -0.25937499999999997 0.035 -2.445 0.3625 -4.616874999999999 1.2531249999999998 -1.76875 4.42375 3.1331249999999997 3.2437500000000004 4.29375 -0.6956249999999999 4.889375 -2.6925 0.595625 1.996875 1.28125 5.7943750000000005 4.833125 2.6925 2.666875 -2.6925 0.7324999999999999 -4.06125 -1.7125000000000001 -4.42375a5.463125 5.463125 0 0 1 -0.25937499999999997 -0.035c0.08750000000000001 0.010625 0.174375 0.0225 0.25937499999999997 0.035 1.66875 0.18562499999999998 3.4799999999999995 -0.3925 3.989375 -2.1025 0.15375 -0.5175 0.39 -3.61875 0.39 -4.04875 0 -0.43124999999999997 -0.08687500000000001 -1.163125 -0.56375 -1.37875 -0.411875 -0.18625 -1.04 -0.3875 -2.6875 0.775C10.028749999999999 2.9675000000000002 8.179375 5.429374999999999 7.5 6.75Z" fill="currentColor" stroke-width="1"></path></svg>