<svg height="40" viewBox="0 0 40 40" width="40" xmlns="http://www.w3.org/2000/svg"><g fill="none" stroke="#ff4d67" stroke-linecap="round" stroke-linejoin="round" stroke-width="1.5" transform="scale(1.66666667)"><path d="m3.75.751h16.5c.828 0 1.5.672 1.5 1.5v19.5c0 .828-.672 1.5-1.5 1.5h-16.5c-.828 0-1.5-.672-1.5-1.5v-19.5c0-.828.672-1.5 1.5-1.5z"/><path d="m2.25 11.251h19.5"/><path d="m7.25 15.751h2.5v7.5h-2c-.552 0-1-.448-1-1v-6c0-.276.224-.5.5-.5z"/><path d="m2.25 4.501h3v6.75h-3z"/><path d="m5.25 3.751h3v7.5h-3z"/><path d="m8.25 3.751h2.5c.276 0 .5.224.5.5v7h-3z"/><path d="m16.3 10.516-2.047.735-2.211-6.2c-.138-.392.067-.822.458-.961l1.341-.482c.39-.139.819.064.959.454v.001l1.958 5.491c.139.392-.066.823-.458.962z"/><path d="m18.75 23.251v-7.5h3"/><path d="m15.75 15.751h3v7.5h-3z"/><path d="m10.25 14.251h2.5v9h-3v-8.5c0-.276.224-.5.5-.5z"/><path d="m12.75 14.251h2.5c.276 0 .5.224.5.5v8.5h-3z"/></g></svg>