<svg height="40" viewBox="0 0 40 40" width="40" xmlns="http://www.w3.org/2000/svg"><g fill="none" stroke="#ff4d67" stroke-linecap="round" stroke-linejoin="round" stroke-width="1.5" transform="scale(1.66666667)"><path d="m6.75 18.75v2.25c0 1.243-1.007 2.25-2.25 2.25h10.5c1.243 0 2.25-1.007 2.25-2.25v-17.09c0-.566.438-3.16 3-3.16 1.657 0 3 1.343 3 3v3h-6"/><path d="m20.25.75h-9"/><path d="m2.737 8.983-.805 5.879c-.074.408.197.799.605.873.242.044.49-.033.664-.207l2.049-2.05 2.05 2.05c.294.293.769.292 1.062-.002.173-.174.251-.422.207-.664l-.8-5.879"/><path d="m5.25.75c2.485 0 4.5 2.015 4.5 4.5s-2.015 4.5-4.5 4.5-4.5-2.015-4.5-4.5 2.015-4.5 4.5-4.5z"/><path d="m5.25 4.875c-.207 0-.375.168-.375.375s.168.375.375.375.375-.168.375-.375-.168-.375-.375-.375"/></g></svg>