<?xml version="1.0" encoding="utf-8"?>
<!-- Generator: Adobe Illustrator 24.0.3, SVG Export Plug-In . SVG Version: 6.00 Build 0)  -->
<svg version="1.1" id="Ebene_1" xmlns="http://www.w3.org/2000/svg" xmlns:xlink="http://www.w3.org/1999/xlink" x="0px" y="0px"
	 viewBox="0 0 22.3 23" style="enable-background:new 0 0 22.3 23;" xml:space="preserve">
<style type="text/css">
	.st0{fill:none;stroke:#24244C;stroke-width:1.3;stroke-miterlimit:10;}
</style>
<title>feedback</title>
<g>
	<path class="st0" d="M10.4,17.5c-0.8,0-1.4-0.6-1.4-1.4V9c0-0.8,0.6-1.4,1.4-1.4h9.9c0.8,0,1.4,0.6,1.4,1.4v7.1
		c0,0.8-0.6,1.4-1.4,1.4H19v4.3l-4.3-4.3L10.4,17.5z"/>
	<path class="st0" d="M6.2,11.9l-2.8,2.8v-4.3H1.9c-0.8,0-1.4-0.6-1.4-1.4V1.9c0-0.8,0.6-1.4,1.4-1.4h9.9c0.8,0,1.4,0.6,1.4,1.4v2.8
		"/>
</g>
</svg>
