<svg height="40" viewBox="0 0 40 40" width="40" xmlns="http://www.w3.org/2000/svg"><g fill="none" stroke="#ff4d67" stroke-linecap="round" stroke-linejoin="round" stroke-width="1.5" transform="scale(1.66666667)"><path d="m16.846 14.222c.091 2.388-1.766 4.4-4.154 4.5"/><path d="m12 23.222c-4.615 0-9-3.358-9-7.5-.054-3.227 1.922-6.142 4.94-7.287.192-.078.411.014.489.206.023.056.032.116.026.176-.211 1.614.408 3.225 1.645 4.283.289.244.714.235.992-.021 1.32-1.217 4.557-5.237-1.223-11.676-.138-.154-.126-.391.028-.53.081-.072.188-.106.296-.093 5.428.667 10.807 6.791 10.807 12.692 0 5-3 9.75-9 9.75z"/></g></svg>