<svg xmlns="http://www.w3.org/2000/svg" viewBox="0 0 24 24">
  <title>github-blue</title>
  <path d="M11.83,0A11.84,11.84,0,0,0,8.16,23.1h.28a1,1,0,0,0,1-.92V20.77a.46.46,0,0,0-.2-.32.47.47,0,0,0-.41-.1c-2.65.57-3.21-1.09-3.25-1.2A4.61,4.61,0,0,0,3.89,17l-.06-.11a.67.67,0,0,1,.37-.07,1.45,1.45,0,0,1,1.14.87,3,3,0,0,0,3.94,1.15.5.5,0,0,0,.29-.36,2,2,0,0,1,.55-1.21.49.49,0,0,0,0-.69h0a.45.45,0,0,0-.3-.16c-2.34-.27-4.73-1.09-4.73-5.12A3.93,3.93,0,0,1,6.15,8.56.51.51,0,0,0,6.23,8a3.54,3.54,0,0,1,0-2.36,5.44,5.44,0,0,1,2.5,1.11.5.5,0,0,0,.41.07,10.64,10.64,0,0,1,2.69-.37,10.3,10.3,0,0,1,2.71.37A.5.5,0,0,0,15,6.78a5.46,5.46,0,0,1,2.48-1.13,3.48,3.48,0,0,1,0,2.34.51.51,0,0,0,.09.53,4,4,0,0,1,1,2.71c0,4-2.4,4.84-4.75,5.11a.49.49,0,0,0-.44.53h0a.52.52,0,0,0,.18.33,2.19,2.19,0,0,1,.6,1.72v3.13a1,1,0,0,0,.35.82,1.16,1.16,0,0,0,1,.19A11.84,11.84,0,0,0,11.83,0Z" transform="translate(0.02 0)" fill="#24244c"/>
</svg>
