<svg xmlns="http://www.w3.org/2000/svg" viewBox="0 0 23.65 23.12">
  <title>github-red</title>
  <path d="M12,.44a11.84,11.84,0,0,0-3.67,23.1h.28a1,1,0,0,0,1-.92V21.21a.46.46,0,0,0-.2-.32.47.47,0,0,0-.41-.1c-2.65.57-3.21-1.09-3.25-1.2a4.61,4.61,0,0,0-1.69-2.16L4,17.32a.67.67,0,0,1,.37-.07,1.45,1.45,0,0,1,1.14.87,3,3,0,0,0,3.94,1.15.5.5,0,0,0,.29-.36,2,2,0,0,1,.55-1.21.49.49,0,0,0,0-.7.47.47,0,0,0-.3-.16c-2.34-.27-4.73-1.09-4.73-5.12A3.91,3.91,0,0,1,6.32,9a.51.51,0,0,0,.08-.53,3.48,3.48,0,0,1,0-2.36A5.45,5.45,0,0,1,8.9,7.22a.5.5,0,0,0,.41.07A10.86,10.86,0,0,1,12,6.92a10.3,10.3,0,0,1,2.71.37.5.5,0,0,0,.41-.07,5.46,5.46,0,0,1,2.48-1.13,3.48,3.48,0,0,1,0,2.34.51.51,0,0,0,.09.53,4,4,0,0,1,1,2.71c0,4-2.4,4.84-4.75,5.11a.49.49,0,0,0-.44.54.52.52,0,0,0,.18.33,2.18,2.18,0,0,1,.6,1.72V22.5a1,1,0,0,0,.35.82,1.16,1.16,0,0,0,1.05.19A11.84,11.84,0,0,0,12,.44Z" transform="translate(-0.17 -0.44)" fill="#ea4f69"/>
</svg>
