<svg height="40" viewBox="0 0 40 40" width="40" xmlns="http://www.w3.org/2000/svg"><g fill="none" stroke="#ff4d67" stroke-linecap="round" stroke-linejoin="round" stroke-width="1.5" transform="scale(1.66666667)"><path d="m11 1.985c4.142 0 7.5 3.358 7.5 7.5s-3.358 7.5-7.5 7.5-7.5-3.358-7.5-7.5 3.358-7.5 7.5-7.5z"/><path d="m18.425 2.061c4.1 4.101 4.1 10.749 0 14.849s-10.749 4.1-14.849 0"/><path d="m19.485 1-1.06 1.061"/><path d="m3.575 16.91-1.06 1.061"/><path d="m11 19.985v3"/><path d="m5 22.985h12"/><path d="m4.124 6.485h1.626c.828 0 1.5.672 1.5 1.5v1.629c0 .398.158.78.439 1.061l1.155 1.155c.402.402.543.996.363 1.535l-.309.926c-.097.289-.279.542-.523.725l-1.216.912"/><path d="m13.4 2.379c-.407.325-.841.662-1.226.959-.65.501-.777 1.431-.285 2.088l.911 1.209c.283.378.728.6 1.2.6h.879c.398 0 .779.159 1.06.44l1.155 1.155c.366.366.896.517 1.4.4"/></g></svg>