<svg height="40" viewBox="0 0 40 40" width="40" xmlns="http://www.w3.org/2000/svg"><g fill="none" stroke="#ff4d67" stroke-linecap="round" stroke-linejoin="round" stroke-width="1.5" transform="scale(1.66666667)"><path d="m22.63 14.869-7.63 7.631-3.75.75.75-3.75 7.63-7.631c.826-.826 2.166-.826 2.992 0l.008.009c.839.811.885 2.125.074 2.964-.016.017-.033.034-.074.027z"/><path d="m12.75 14.25c-.38-3.018-2.958-5.274-6-5.25-3.042-.024-5.62 2.232-6 5.25"/><path d="m6.75.75c1.864 0 3.375 1.511 3.375 3.375s-1.511 3.375-3.375 3.375-3.375-1.511-3.375-3.375 1.511-3.375 3.375-3.375z"/><path d="m16.5.75c1.45 0 2.625 1.175 2.625 2.625s-1.175 2.625-2.625 2.625-2.625-1.175-2.625-2.625 1.175-2.625 2.625-2.625z"/><path d="m19.888 8.29c-1.636-1.871-4.479-2.062-6.35-.426-.151.132-.294.275-.426.426"/></g></svg>