<?xml version="1.0" encoding="utf-8"?>
<!-- Generator: Adobe Illustrator 22.1.0, SVG Export Plug-In . SVG Version: 6.00 Build 0)  -->
<svg version="1.1" id="Ebene_1" xmlns="http://www.w3.org/2000/svg" xmlns:xlink="http://www.w3.org/1999/xlink" x="0px" y="0px"
	 viewBox="0 0 353.2 355" style="enable-background:new 0 0 353.2 355;" xml:space="preserve">
<style type="text/css">
	.st0{fill:none;}
	.st1{clip-path:url(#SVGID_2_);fill:#231F20;}
</style>
<rect y="1.8" class="st0" width="353.2" height="353.2"/>
<g>
	<defs>
		<polygon id="SVGID_1_" points="353.2,354.6 353.2,301.4 353.2,0 0.1,0.5 0.2,301.4 0.2,355 		"/>
	</defs>
	<clipPath id="SVGID_2_">
		<use xlink:href="#SVGID_1_"  style="overflow:visible;"/>
	</clipPath>
	<path class="st1" d="M323.9,81c-11.7-6.6-42.4-21.4-81.9-21.4c-35.4,0-55.6,10.9-65.8,17.9c-10.2-7-30.3-17.9-65.8-17.9
		C71,59.6,40.3,74.5,28.6,81L2.3,297.1h0.8c14.8,0,29.4-3.4,42.9-9.8c15-7.1,38.5-15.4,66.7-15.4c34.3,0,53.8,15.3,63.6,25.1
		c9.8-9.8,29.3-25.1,63.6-25.1c28.2,0,51.7,8.3,66.7,15.4c13.4,6.3,28,9.8,42.9,9.8h0.8L323.9,81z M305.7,262.2
		c-13.9-5.7-27.9-9.6-41.7-11.6c-8.1-1.2-16.2-1.8-24.3-1.8c-22.8,0-43.4,5.7-61.2,16.9l-2.4,1.5l-2.4-1.5
		c-17.8-11.2-38.4-16.9-61.2-16.9c-8,0-16.2,0.6-24.3,1.8c-13.8,2-27.8,5.9-41.7,11.6l-17.7,7.3L50.2,96.1l1.6-0.7
		c17.8-7.8,40.5-12.5,60.9-12.5c25.3,0,46.7,8,63.6,23.9c16.9-15.9,38.3-23.9,63.6-23.9c20.4,0,43.2,4.7,61,12.5l1.6,0.7l21.1,173.4
		L305.7,262.2z M246.5,242.9c-2.2-0.1-4.5-0.1-6.7-0.1c-23.6,0-45,5.8-63.6,17.3c-18.6-11.5-40-17.3-63.6-17.3
		c-8.3,0-16.7,0.6-25.1,1.8c-14.2,2.1-28.7,6.1-43.1,12l-8.2,3.4l19.4-159.8c16.8-7.1,37.9-11.3,57-11.3c24.7,0,45.4,8.2,61.5,24.2
		l2.1,2.1l2.1-2.1c15.5-15.5,35.3-23.6,58.8-24.2L246.5,242.9z"/>
</g>
</svg>
