<svg height="40" viewBox="0 0 40 40" width="40" xmlns="http://www.w3.org/2000/svg"><g fill="none" stroke="#ff4d67" stroke-linecap="round" stroke-linejoin="round" stroke-width="1.5" transform="scale(1.66666667)"><path d="m20.25 5.251v9c0 .828-.672 1.5-1.5 1.5h-13.5c-.828 0-1.5-.672-1.5-1.5v-9"/><path d="m21.748 23.251h-19.496c-.828 0-1.5-.672-1.5-1.5 0-.233.054-.462.158-.67l1.836-3.671c.508-1.017 1.547-1.659 2.683-1.659h13.142c1.136 0 2.175.642 2.683 1.659l1.836 3.671c.37.741.069 1.642-.672 2.012-.208.104-.437.158-.67.158z"/><path d="m10.5 20.251h3"/><path d="m12 2.412s.477-1.5 4.561-1.66c.349-.031.658.227.688.577 0 .003 0 .005.001.008v6.174c-.029.338-.317.593-.656.58-4.11.147-4.594 1.66-4.594 1.66v-7.339s-.477-1.505-4.561-1.66c-.349-.031-.658.227-.688.577 0 .003 0 .005-.001.008v6.174c.029.338.317.593.656.58 4.11.147 4.594 1.66 4.594 1.66"/></g></svg>