<?xml version="1.0" encoding="utf-8"?>
<!-- Generator: Adobe Illustrator 24.0.3, SVG Export Plug-In . SVG Version: 6.00 Build 0)  -->
<svg version="1.1" id="Ebene_1" xmlns="http://www.w3.org/2000/svg" xmlns:xlink="http://www.w3.org/1999/xlink" x="0px" y="0px"
	 viewBox="0 0 21.8 22.9" style="enable-background:new 0 0 21.8 22.9;" xml:space="preserve">
<style type="text/css">
	.st0{fill:#24244C;}
</style>
<title>linkedin</title>
<g>
	<path class="st0" d="M1.5,8h4C5.7,8,6,8.2,6,8.5v12.9c0,0.3-0.2,0.5-0.5,0.5h-4c-0.3,0-0.5-0.2-0.5-0.5V8.5C1,8.2,1.2,8,1.5,8z"/>
	<path class="st0" d="M3.5,6C4.8,6,5.9,4.9,6,3.6c0-1.4-1.1-2.5-2.5-2.5C2.1,1,1,2.1,1,3.5c0,0,0,0,0,0C1,4.9,2.1,6,3.5,6z"/>
	<path class="st0" d="M17.3,21.9h3c0.3,0,0.5-0.2,0.5-0.5V13c0-3.7-2.1-5.5-5.1-5.5c-1.2-0.1-2.3,0.4-3.1,1.2
		c-0.1,0.2-0.4,0.2-0.6,0c-0.1-0.1-0.1-0.2-0.1-0.3c0-0.3-0.2-0.5-0.5-0.5h-3C8.2,8,7.9,8.2,7.9,8.5v12.9c0,0.3,0.2,0.5,0.5,0.5h3
		c0.3,0,0.5-0.2,0.5-0.5v-7.4c0-1.4,1.1-2.5,2.5-2.5c1.4,0,2.5,1.1,2.5,2.5v7.4C16.9,21.6,17.1,21.9,17.3,21.9z"/>
</g>
</svg>
