<?xml version="1.0" encoding="utf-8"?>
<!-- Generator: Adobe Illustrator 24.0.3, SVG Export Plug-In . SVG Version: 6.00 Build 0)  -->
<svg version="1.1" id="Ebene_1" xmlns="http://www.w3.org/2000/svg" xmlns:xlink="http://www.w3.org/1999/xlink" x="0px" y="0px"
	 viewBox="0 0 21.8 22.9" style="enable-background:new 0 0 21.8 22.9;" xml:space="preserve">
<style type="text/css">
	.st0{fill:#24244C;}
</style>
<title>linkedin</title>
<g>
	<path class="st0" d="M2.1,8.2h3.8c0.2,0,0.5,0.2,0.5,0.5v12.1c0,0.3-0.2,0.5-0.5,0.5H2.1c-0.3,0-0.5-0.2-0.5-0.5V8.6
		C1.6,8.4,1.8,8.2,2.1,8.2z"/>
	<path class="st0" d="M4,6.3c1.2,0,2.3-1,2.3-2.3c0-1.3-1-2.3-2.3-2.3C2.6,1.6,1.6,2.6,1.6,3.9l0,0C1.6,5.3,2.6,6.3,4,6.3z"/>
	<path class="st0" d="M16.9,21.2h2.8c0.3,0,0.5-0.2,0.5-0.5v-7.9c0-3.5-2-5.2-4.8-5.2c-1.1-0.1-2.2,0.4-2.9,1.1
		c-0.1,0.2-0.4,0.2-0.6,0c-0.1-0.1-0.1-0.2-0.1-0.3c0-0.3-0.2-0.5-0.5-0.5H8.6C8.4,8.2,8.1,8.4,8.1,8.6v12.1c0,0.3,0.2,0.5,0.5,0.5
		h2.8c0.3,0,0.5-0.2,0.5-0.5v-6.9c0-1.3,1-2.3,2.3-2.3s2.3,1,2.3,2.3v6.9C16.5,20.9,16.7,21.2,16.9,21.2z"/>
</g>
</svg>
