<?xml version="1.0" encoding="utf-8"?>
<!-- Generator: Adobe Illustrator 25.2.3, SVG Export Plug-In . SVG Version: 6.00 Build 0)  -->
<svg version="1.1" id="Ebene_1" xmlns="http://www.w3.org/2000/svg" xmlns:xlink="http://www.w3.org/1999/xlink" x="0px" y="0px"
	 viewBox="0 0 24 24" style="enable-background:new 0 0 24 24;" xml:space="preserve">
<style type="text/css">
	.st0{fill:#FF9C66;}
</style>
<path class="st0" d="M12,0.6C7.8,0.6,4.4,4,4.4,8.2c0,3.3,4.7,11.4,6.8,14.7c0.2,0.3,0.5,0.5,0.8,0.5c0.3,0,0.6-0.2,0.8-0.5
	c2-3.3,6.8-11.4,6.8-14.7C19.6,4,16.2,0.6,12,0.6z M12,11.5c-1.8,0-3.3-1.5-3.3-3.3s1.5-3.3,3.3-3.3s3.3,1.5,3.3,3.3
	S13.8,11.5,12,11.5z"/>
</svg>
