<svg xmlns="http://www.w3.org/2000/svg" xmlns:xlink="http://www.w3.org/1999/xlink" viewBox="0 0 23.58 23.58">
  <defs>
    <mask id="a" x="0" y="0" width="23.58" height="23.58" maskUnits="userSpaceOnUse">
      <g transform="translate(-0.21 -0.21)">
        <polygon points="23.79 0.21 23.79 23.79 0.21 23.79 0.21 0.21 23.79 0.21" fill="#fff" fill-rule="evenodd"/>
      </g>
    </mask>
  </defs>
  <title>plus-red-new</title>
  <g>
    <g mask="url(#a)">
      <path d="M1.89,13.68H22.11A1.65,1.65,0,0,0,23.79,12a1.48,1.48,0,0,0-1.68-1.68H1.89A1.48,1.48,0,0,0,.21,12,1.48,1.48,0,0,0,1.89,13.68Z" transform="translate(-0.21 -0.21)" fill="#ea4f69"/>
    </g>
    <g mask="url(#a)">
      <path d="M13.68,22.11V1.89A1.65,1.65,0,0,0,12,.21a1.48,1.48,0,0,0-1.68,1.68V22.11A1.48,1.48,0,0,0,12,23.79,1.48,1.48,0,0,0,13.68,22.11Z" transform="translate(-0.21 -0.21)" fill="#ea4f69"/>
    </g>
  </g>
</svg>
