<svg xmlns="http://www.w3.org/2000/svg" viewBox="0 0 23.05 22.96">
  <title>rss-1</title>
  <g>
    <path d="M5.35,9.89V11.3a7.32,7.32,0,0,1,7.31,7.31h1.4A8.69,8.69,0,0,0,5.35,9.89Z" transform="translate(-0.48 -0.52)" fill="#24244c"/>
    <path d="M5.35,5.21v1.4a12,12,0,0,1,12,12h1.41A13.34,13.34,0,0,0,5.35,5.21Z" transform="translate(-0.48 -0.52)" fill="#24244c"/>
    <path d="M7.22,14.58a2.06,2.06,0,1,0,2.06,2.06A2.08,2.08,0,0,0,7.22,14.58Zm0,2.81a.74.74,0,0,1-.75-.75.69.69,0,0,1,.75-.75.69.69,0,0,1,.75.75A.74.74,0,0,1,7.22,17.39Z" transform="translate(-0.48 -0.52)" fill="#24244c"/>
    <path d="M19.87.52H3.94A3.4,3.4,0,0,0,.48,4V19.92A3.56,3.56,0,0,0,4,23.48H20a3.56,3.56,0,0,0,3.56-3.56V4A3.62,3.62,0,0,0,19.87.52ZM22,19.92A2.09,2.09,0,0,1,20,22h-16a2.08,2.08,0,0,1-2.06-2.06V4A2.08,2.08,0,0,1,3.94,1.93H19.87A2.07,2.07,0,0,1,21.93,4V19.92Z" transform="translate(-0.48 -0.52)" fill="#24244c"/>
  </g>
</svg>
