<svg xmlns="http://www.w3.org/2000/svg" viewBox="0 0 21.5 21.5">
  <title>rss</title>
  <g>
    <path d="M2.2,8.81a1,1,0,0,0,0,2,11,11,0,0,1,11,11,1,1,0,0,0,2,0A13,13,0,0,0,2.2,8.81Z" transform="translate(-1.2 -1.34)" fill="#24244c"/>
    <path d="M2.2,16.31a1,1,0,0,0-1,1v4.53a1,1,0,0,0,1,1H6.7a1,1,0,0,0,1-1A5.59,5.59,0,0,0,2.2,16.31Z" transform="translate(-1.2 -1.34)" fill="#24244c"/>
    <path d="M2.2,1.34a1,1,0,0,0,0,2,18.52,18.52,0,0,1,18.5,18.5,1,1,0,0,0,2,0A20.52,20.52,0,0,0,2.2,1.34Z" transform="translate(-1.2 -1.34)" fill="#24244c"/>
  </g>
</svg>
