<svg height="40" viewBox="0 0 40 40" width="40" xmlns="http://www.w3.org/2000/svg"><g fill="none" stroke="#ff4d67" stroke-linecap="round" stroke-linejoin="round" stroke-width="1.5" transform="scale(1.66666667)"><path d="m5.25.75c1.657 0 3 1.343 3 3s-1.343 3-3 3-3-1.343-3-3 1.343-3 3-3z"/><path d="m5.25 8.25v6"/><path d="m7.5 23.25.75-7.5h1.5v-3c0-2.485-2.015-4.5-4.5-4.5s-4.5 2.015-4.5 4.5v3h1.5l.75 7.5z"/><path d="m23.25.75h-12"/><path d="m12.75 16.5h10.5"/><path d="m13.875 3.75c.207 0 .375.168.375.375"/><path d="m13.5 4.125c0-.207.168-.375.375-.375"/><path d="m13.875 4.5c-.207 0-.375-.168-.375-.375"/><path d="m14.25 4.125c0 .207-.168.375-.375.375"/><path d="m13.875 8.25c.207 0 .375.168.375.375"/><path d="m13.5 8.625c0-.207.168-.375.375-.375"/><path d="m13.875 9c-.207 0-.375-.168-.375-.375"/><path d="m14.25 8.625c0 .207-.168.375-.375.375"/><path d="m13.875 12.75c.207 0 .375.168.375.375"/><path d="m13.5 13.125c0-.207.168-.375.375-.375"/><path d="m13.875 13.5c-.207 0-.375-.168-.375-.375"/><path d="m14.25 13.125c0 .207-.168.375-.375.375"/><path d="m19.875 8.25c.207 0 .375.168.375.375"/><path d="m19.5 8.625c0-.207.168-.375.375-.375"/><path d="m19.875 9c-.207 0-.375-.168-.375-.375"/><path d="m20.25 8.625c0 .207-.168.375-.375.375"/><path d="m19.875 3.75c.207 0 .375.168.375.375"/><path d="m19.5 4.125c0-.207.168-.375.375-.375"/><path d="m19.875 4.5c-.207 0-.375-.168-.375-.375"/><path d="m20.25 4.125c0 .207-.168.375-.375.375"/></g></svg>