<svg xmlns="http://www.w3.org/2000/svg" viewBox="0 0 22 22">
  <title>twitter-blue</title>
  <path d="M23.36,5.88a.52.52,0,0,0,.17-.51A.51.51,0,0,0,23.15,5l-.8-.2A.54.54,0,0,1,22,4.51a.56.56,0,0,1,0-.44l.45-.9a.51.51,0,0,0-.59-.71l-2,.57a.5.5,0,0,1-.44-.09A5.11,5.11,0,0,0,11.3,7v.36a.27.27,0,0,1-.23.26c-2.91.24-5.65-1.13-8.6-4.57A.51.51,0,0,0,2,2.88a.57.57,0,0,0-.29.43,7.75,7.75,0,0,0,.47,5,.3.3,0,0,1,0,.26.26.26,0,0,1-.25.11L.72,8.51a.52.52,0,0,0-.44.15.57.57,0,0,0-.14.45A5.3,5.3,0,0,0,2.55,13a.26.26,0,0,1,.14.33.25.25,0,0,1-.14.13L2,13.63a.55.55,0,0,0-.29.29.49.49,0,0,0,0,.41A4.46,4.46,0,0,0,5,16.88a.23.23,0,0,1,.16.24.25.25,0,0,1-.16.24,11,11,0,0,1-4.4.82.52.52,0,0,0-.52.52h0a.54.54,0,0,0,.32.48,20.17,20.17,0,0,0,8.28,2,12.8,12.8,0,0,0,7.13-2A12.77,12.77,0,0,0,21.5,8.51v-.9a.58.58,0,0,1,.19-.39Z" transform="translate(-0.1 -1.94)" fill="#24244c"/>
</svg>
