<svg xmlns="http://www.w3.org/2000/svg" viewBox="0 0 23.52 19.27">
  <title>twitter-red</title>
  <path d="M23.58,6.32a.54.54,0,0,0,.17-.51.52.52,0,0,0-.38-.38l-.8-.2A.53.53,0,0,1,22.23,5a.56.56,0,0,1,0-.44l.45-.9a.51.51,0,0,0-.07-.55.49.49,0,0,0-.52-.16l-2,.57a.5.5,0,0,1-.44-.09,5.1,5.1,0,0,0-8.14,4.08v.36a.27.27,0,0,1-.23.26C8.38,8.41,5.64,7,2.69,3.56a.51.51,0,0,0-.52-.16.53.53,0,0,0-.29.43,7.71,7.71,0,0,0,.47,5,.27.27,0,0,1,0,.26.27.27,0,0,1-.25.11L.94,9a.51.51,0,0,0-.44.15.51.51,0,0,0-.14.45,5.27,5.27,0,0,0,2.41,3.85.25.25,0,0,1,.15.23.26.26,0,0,1-.15.23l-.53.21a.49.49,0,0,0-.29.29.53.53,0,0,0,0,.41,4.45,4.45,0,0,0,3.26,2.53.24.24,0,0,1,.16.24.26.26,0,0,1-.16.24,11.11,11.11,0,0,1-4.37.84.52.52,0,0,0-.2,1,20.29,20.29,0,0,0,8.28,2,12.88,12.88,0,0,0,7.13-2A12.75,12.75,0,0,0,21.72,9V8.1a.51.51,0,0,1,.19-.39Z" transform="translate(-0.24 -2.37)" fill="#ff4d67"/>
</svg>
