<svg height="40" viewBox="0 0 40 40" width="40" xmlns="http://www.w3.org/2000/svg"><g fill="none" stroke="#ff4d67" stroke-linecap="round" stroke-linejoin="round" stroke-width="1.5" transform="scale(1.66666667)"><path d="m12.75.75c-5.791-.008-10.492 4.679-10.5 10.47-.003 1.963.546 3.888 1.583 5.555l-3.083 6.475 6.475-3.084c4.924 3.063 11.399 1.554 14.462-3.37s1.554-11.399-3.37-14.462c-1.671-1.039-3.6-1.588-5.567-1.584z"/><path d="m12.75 5.25c3.314 0 6 2.686 6 6s-2.686 6-6 6-6-2.686-6-6 2.686-6 6-6z"/><path d="m7.552 8.251h1.448c.828 0 1.5.672 1.5 1.5v.7c0 .502.251.97.668 1.248l.958.639c.644.428.819 1.297.391 1.941-.103.155-.236.288-.391.391l-2.526 1.684"/><path d="m17.948 8.251h-.7c-.828 0-1.5.671-1.5 1.5 0 .233.054.463.158.671.427.854.525.895.79 1.054l1.9 1.138"/></g></svg>