<svg xmlns="http://www.w3.org/2000/svg" viewBox="0 0 23.04 24">
  <title>xing</title>
  <g>
    <path d="M10,9.8,7.16,4.35a.49.49,0,0,0-.43-.26H1.88a.5.5,0,0,0-.43.74L4.19,10,.5,16.33a.54.54,0,0,0,0,.51.48.48,0,0,0,.43.25H5.78a.49.49,0,0,0,.42-.24L10,10.3A.55.55,0,0,0,10,9.8Z" transform="translate(-0.43 -0.09)" fill="#24244c"/>
    <path d="M23.41.34A.48.48,0,0,0,23,.09H17.84a.47.47,0,0,0-.41.25l-7.68,14a.5.5,0,0,0,0,.5l4.93,9a.46.46,0,0,0,.41.25h5.16a.45.45,0,0,0,.41-.25.5.5,0,0,0,0-.5l-4.8-8.77L23.41.84A.55.55,0,0,0,23.41.34Z" transform="translate(-0.43 -0.09)" fill="#24244c"/>
  </g>
</svg>
