<svg xmlns="http://www.w3.org/2000/svg" viewBox="0 0 22.11 22.83">
  <title>youtube</title>
  <g>
    <path d="M6.14,5.39V9.48a.72.72,0,1,0,1.44,0V5.39l2.74-3.65a.72.72,0,0,0-.15-1,.73.73,0,0,0-1,.14L6.86,4,4.55.87a.73.73,0,0,0-1-.14.72.72,0,0,0-.14,1Z" transform="translate(-0.95 -0.59)" fill="#24244c"/>
    <path d="M9.55,5.15V8a2.17,2.17,0,0,0,4.33,0V5.15a2.16,2.16,0,1,0-4.32,0Zm1.44,0a.72.72,0,1,1,1.44,0V8A.72.72,0,1,1,11,8Z" transform="translate(-0.95 -0.59)" fill="#24244c"/>
    <path d="M15.66,9.42a2.63,2.63,0,0,0,1.87.78h0a2.56,2.56,0,0,0,1.31-.37.69.69,0,0,0,.61.37.72.72,0,0,0,.72-.72V7.56h0V3.71a.72.72,0,1,0-1.44,0V7.56a1.19,1.19,0,0,1-1.2,1.19h0a1.2,1.2,0,0,1-1.2-1.2V3.71a.73.73,0,0,0-1.45,0V7.55A2.63,2.63,0,0,0,15.66,9.42Z" transform="translate(-0.95 -0.59)" fill="#24244c"/>
    <path d="M18.25,17.17a.48.48,0,0,0-.48-.48.47.47,0,0,0-.48.48v.48h1Z" transform="translate(-0.95 -0.59)" fill="#24244c"/>
    <path d="M13.92,16.69a.48.48,0,0,0-.48.48v1.92a.49.49,0,0,0,.48.48.48.48,0,0,0,.48-.48V17.17A.47.47,0,0,0,13.92,16.69Z" transform="translate(-0.95 -0.59)" fill="#24244c"/>
    <path d="M18.73,11.88H5.27A4.33,4.33,0,0,0,1,16.21v2.88a4.33,4.33,0,0,0,4.32,4.32H18.73a4.33,4.33,0,0,0,4.32-4.32V16.21A4.33,4.33,0,0,0,18.73,11.88ZM8.17,15.72H6.71V20a.47.47,0,0,1-.48.48A.48.48,0,0,1,5.75,20V15.72H4.29a.47.47,0,0,1-.48-.48.48.48,0,0,1,.48-.48H8.17a.49.49,0,0,1,.49.48A.48.48,0,0,1,8.17,15.72Zm3.35,3.37v1a.48.48,0,0,1-.48.48.44.44,0,0,1-.34-.14,1.44,1.44,0,0,1-2.06-1.3V16.2a.48.48,0,0,1,.48-.48.49.49,0,0,1,.48.48v2.89a.48.48,0,0,0,.48.48.49.49,0,0,0,.48-.48V16.2a.48.48,0,0,1,.48-.48.49.49,0,0,1,.48.48Zm3.84,0a1.44,1.44,0,0,1-1.44,1.44,1.46,1.46,0,0,1-.63-.15.49.49,0,0,1-.33.13.48.48,0,0,1-.48-.48V14.28A.49.49,0,0,1,13,13.8a.48.48,0,0,1,.48.48v1.53a1.51,1.51,0,0,1,.48-.09,1.44,1.44,0,0,1,1.44,1.45Zm2.49,1.44A1.63,1.63,0,0,1,16.33,19v-1.8a1.44,1.44,0,1,1,2.88,0v1a.49.49,0,0,1-.48.48H17.29V19a.67.67,0,0,0,.56.6c.22,0,.56-.1.56-.36a.48.48,0,0,1,.48-.48.47.47,0,0,1,.48.48A1.4,1.4,0,0,1,17.85,20.53Z" transform="translate(-0.95 -0.59)" fill="#24244c"/>
  </g>
</svg>
