<?xml version="1.0" encoding="utf-8"?>
<!-- Generator: Adobe Illustrator 21.1.0, SVG Export Plug-In . SVG Version: 6.00 Build 0)  -->
<svg version="1.1" id="Ebene_1" xmlns="http://www.w3.org/2000/svg" xmlns:xlink="http://www.w3.org/1999/xlink" x="0px" y="0px"
	 viewBox="0 0 32 32" style="enable-background:new 0 0 32 32;" xml:space="preserve">
<style type="text/css">
	.st0{fill:#FF4D67;}
	.st1{fill:#24244C;}
</style>
<g>
	<rect class="st0" width="32" height="32"/>
	<path class="st1" d="M15.2,9.3c3.8,0,6.4,2.7,6.4,6.7c0,0.8-0.1,1.5-0.3,2.1l-0.8-1h-6l3.7,4.9c-0.9,0.4-1.9,0.7-3,0.7
		c-3.8,0-6.4-2.7-6.4-6.7S11.5,9.3,15.2,9.3 M15.2,4C8.1,4,3,9.1,3,16s5.1,12,12.2,12c2.4,0,4.5-0.7,6.3-1.8l1,1.4H29l-3.7-4.9
		c1.3-1.9,2-4,2-6.6C27.5,9.1,22.4,4,15.2,4"/>
</g>
<rect x="-16.5" y="-3.5" class="st1" width="4" height="6"/>
</svg>
