<?xml version="1.0" encoding="UTF-8"?>
<svg width="226px" height="56px" viewBox="0 0 226 56" version="1.1" xmlns="http://www.w3.org/2000/svg" xmlns:xlink="http://www.w3.org/1999/xlink">
    <!-- Generator: Sketch 55.2 (78181) - https://sketchapp.com -->
    <title>innoq-logo--black</title>
    <desc>Created with Sketch.</desc>
    <g id="Page-1" stroke="none" stroke-width="1" fill="none" fill-rule="evenodd">
        <g id="innoq-logo--black" fill="#000000" fill-rule="nonzero">
            <polygon id="Path" points="0.4 1.9 12.9 1.9 12.9 54.4 0.4 54.4"></polygon>
            <polygon id="Path" points="103.3 54.4 103.3 1.9 90.8 1.9 90.8 34 66.8 1.9 61.3 1.9 54.8 1.9 54.8 34 30.9 1.9 18.9 1.9 18.9 54.4 31.4 54.4 31.4 22.4 55.3 54.4 57.4 54.4 64.5 54.4 67.4 54.4 67.4 22.4 91.3 54.4"></polygon>
            <path d="M135.3,12.9 C143.8,12.9 149.9,19.1 149.9,28.1 C149.9,37.1 143.8,43.3 135.3,43.3 C126.7,43.3 120.7,37.1 120.7,28.1 C120.7,19.1 126.8,12.9 135.3,12.9 M135.3,0.9 C119.1,0.9 107.6,12.5 107.6,28.1 C107.6,43.7 119.1,55.3 135.3,55.3 C151.5,55.3 163,43.7 163,28.1 C163,12.5 151.5,0.9 135.3,0.9" id="Shape"></path>
            <path d="M194.2,12.9 C202.7,12.9 208.8,19.1 208.8,28.1 C208.8,29.8 208.6,31.4 208.2,32.9 L206.5,30.6 L192.9,30.6 L201.2,41.7 C199.2,42.7 196.8,43.3 194.3,43.3 C185.8,43.3 179.7,37.1 179.7,28.1 C179.6,19.2 185.7,12.9 194.2,12.9 M194.2,0.9 C178,0.9 166.5,12.5 166.5,28.1 C166.5,43.7 178,55.3 194.2,55.3 C199.7,55.3 204.4,53.8 208.4,51.2 L210.7,54.3 L225.4,54.3 L217.1,43.1 C220,38.9 221.7,34 221.7,28.1 C221.9,12.5 210.4,0.9 194.2,0.9" id="Shape"></path>
        </g>
    </g>
</svg>