<?xml version="1.0" encoding="UTF-8"?><svg id="a" xmlns="http://www.w3.org/2000/svg" viewBox="0 0 305.13 92.1"><defs><style>.b{fill:#009fe3;}.c{fill:#004899;}.d{fill:#009640;}.e{fill:#e6007e;}.f{fill:#fdc300;}.g{fill:#c0087f;}.h{fill:#d3d800;}.i{fill:#e30613;}.j{fill:#1d1d1b;}.k{fill:#878787;}</style></defs><path class="b" d="M5.69,11.38c3.14,0,5.69-2.55,5.69-5.69S8.83,0,5.69,0,0,2.55,0,5.69s2.55,5.69,5.69,5.69h0Z"/><path class="f" d="M5.69,8.28c1.43,0,2.59-1.16,2.59-2.59s-1.16-2.59-2.59-2.59-2.59,1.16-2.59,2.59,1.16,2.59,2.59,2.59h0Z"/><path class="e" d="M22.76,11.38c3.14,0,5.69-2.55,5.69-5.69S25.9,0,22.76,0s-5.69,2.55-5.69,5.69,2.55,5.69,5.69,5.69h0Z"/><path class="b" d="M22.76,8.28c1.43,0,2.59-1.16,2.59-2.59s-1.16-2.59-2.59-2.59-2.59,1.16-2.59,2.59,1.16,2.59,2.59,2.59h0Z"/><path class="f" d="M39.83,11.38c3.14,0,5.69-2.55,5.69-5.69s-2.55-5.69-5.69-5.69-5.69,2.55-5.69,5.69,2.55,5.69,5.69,5.69h0Z"/><path class="e" d="M39.83,8.28c1.43,0,2.59-1.16,2.59-2.59s-1.16-2.59-2.59-2.59-2.59,1.16-2.59,2.59,1.16,2.59,2.59,2.59h0Z"/><path class="g" d="M5.69,28.45c3.14,0,5.69-2.55,5.69-5.69s-2.55-5.69-5.69-5.69S0,19.62,0,22.76s2.55,5.69,5.69,5.69h0Z"/><path class="h" d="M5.69,25.36c1.43,0,2.59-1.16,2.59-2.59s-1.16-2.59-2.59-2.59-2.59,1.16-2.59,2.59,1.16,2.59,2.59,2.59h0Z"/><path class="h" d="M22.76,28.45c3.14,0,5.69-2.55,5.69-5.69s-2.55-5.69-5.69-5.69-5.69,2.55-5.69,5.69,2.55,5.69,5.69,5.69h0Z"/><path class="g" d="M22.76,25.36c1.43,0,2.59-1.16,2.59-2.59s-1.16-2.59-2.59-2.59-2.59,1.16-2.59,2.59,1.16,2.59,2.59,2.59h0Z"/><path class="c" d="M39.83,28.45c3.14,0,5.69-2.55,5.69-5.69s-2.55-5.69-5.69-5.69-5.69,2.55-5.69,5.69,2.55,5.69,5.69,5.69h0Z"/><path class="h" d="M39.83,25.36c1.43,0,2.59-1.16,2.59-2.59s-1.16-2.59-2.59-2.59-2.59,1.16-2.59,2.59,1.16,2.59,2.59,2.59h0Z"/><path class="f" d="M5.69,45.52c3.14,0,5.69-2.55,5.69-5.69s-2.55-5.69-5.69-5.69-5.69,2.55-5.69,5.69,2.55,5.69,5.69,5.69h0Z"/><path class="i" d="M5.69,42.43c1.43,0,2.59-1.16,2.59-2.59s-1.16-2.59-2.59-2.59-2.59,1.16-2.59,2.59,1.16,2.59,2.59,2.59h0Z"/><path class="d" d="M22.76,45.52c3.14,0,5.69-2.55,5.69-5.69s-2.55-5.69-5.69-5.69-5.69,2.55-5.69,5.69,2.55,5.69,5.69,5.69h0Z"/><path class="f" d="M22.76,42.43c1.43,0,2.59-1.16,2.59-2.59s-1.16-2.59-2.59-2.59-2.59,1.16-2.59,2.59,1.16,2.59,2.59,2.59h0Z"/><path class="i" d="M39.83,45.52c3.14,0,5.69-2.55,5.69-5.69s-2.55-5.69-5.69-5.69-5.69,2.55-5.69,5.69,2.55,5.69,5.69,5.69h0Z"/><path class="d" d="M39.83,42.43c1.43,0,2.59-1.16,2.59-2.59s-1.16-2.59-2.59-2.59-2.59,1.16-2.59,2.59,1.16,2.59,2.59,2.59h0Z"/><path class="j" d="M60.53,28.39c2.43,0,4.06-1.43,4.45-3.91l-1.76-.28c-.28,1.69-1.19,2.58-2.67,2.58-1.93,0-3.06-1.5-3.06-4.1s1.13-4.06,3-4.06c1.48,0,2.43,.91,2.63,2.56l1.89-.22c-.28-2.5-1.93-3.95-4.47-3.95-3.08,0-4.99,2.15-4.99,5.69s1.95,5.69,4.99,5.69h0Zm7.51-.26h1.85v-5.67c0-2.45,1.06-3.86,2.93-3.86,1.56,0,2.37,1,2.37,2.91v6.62h1.85v-6.75c0-2.89-1.24-4.41-3.58-4.41-1.69,0-2.91,.8-3.56,2.34v-6.93h-1.85v15.74h0Zm15.26,.26c1.78,0,3.15-.85,3.65-2.24,.02,.69,.09,1.41,.17,1.98h1.93c-.26-.85-.37-2-.37-3.67v-2.93c0-3.17-1.3-4.52-4.28-4.52-2.54,0-4.28,1.45-4.43,3.67h1.98c.09-1.37,1-2.15,2.48-2.15,1.67,0,2.39,.8,2.39,2.8v.17l-2.02,.24c-1.78,.22-2.82,.48-3.65,.89-.98,.54-1.52,1.48-1.52,2.56,0,1.93,1.45,3.19,3.67,3.19h0Zm.41-1.52c-1.32,0-2.13-.65-2.13-1.72s.69-1.63,2.3-1.87l2.95-.43v.54c0,2.11-1.24,3.47-3.13,3.47h0Zm10.31-7.12v-2.48h-1.72v10.86h1.85v-4.65c0-1.3,.04-2.76,1.09-3.8,.52-.52,1.26-.85,2.39-.85h.09v-1.8c-.13-.02-.26-.02-.39-.02-1.65,0-2.78,1.22-3.3,2.74h0Zm5.21-.96h2.02v6.08c0,2.02,.61,3.45,2.95,3.45,.69,0,1.13-.06,1.61-.2v-1.69c-.37,.09-.65,.15-1.13,.15-1.11,0-1.58-.54-1.58-1.78v-6.01h2.71v-1.52h-2.71v-3.63l-1.85,.78v2.84h-2.02v1.52h0Zm11.77,9.6c1.78,0,3.15-.85,3.65-2.24,.02,.69,.09,1.41,.17,1.98h1.93c-.26-.85-.37-2-.37-3.67v-2.93c0-3.17-1.3-4.52-4.28-4.52-2.54,0-4.28,1.45-4.43,3.67h1.98c.09-1.37,1-2.15,2.48-2.15,1.67,0,2.39,.8,2.39,2.8v.17l-2.02,.24c-1.78,.22-2.82,.48-3.65,.89-.98,.54-1.52,1.48-1.52,2.56,0,1.93,1.45,3.19,3.67,3.19h0Zm.41-1.52c-1.32,0-2.13-.65-2.13-1.72s.69-1.63,2.3-1.87l2.95-.43v.54c0,2.11-1.24,3.47-3.13,3.47h0Zm17.67,1.52c1.69,0,2.87-.82,3.52-2.28v2.02h1.74V12.39h-1.85v6.49c-.69-1.28-1.76-1.87-3.19-1.87-2.71,0-4.62,2.34-4.62,5.69s1.78,5.69,4.41,5.69h0Zm.5-1.63c-1.85,0-2.95-1.52-2.95-4.06s1.11-4.06,2.95-4.06,2.95,1.45,2.95,3.82v.5c0,2.32-1.15,3.8-2.95,3.8h0Zm17.35-4.82c0-3.26-1.69-4.93-4.62-4.93-3.1,0-4.93,2.19-4.93,5.82s1.85,5.56,4.95,5.56c2.19,0,3.78-1.04,4.54-3.02l-1.52-.67c-.48,1.32-1.5,2.06-2.89,2.06-1.93,0-3.21-1.39-3.23-3.52h7.71v-1.3h0Zm-1.87-.2h-5.84c.04-2.04,1.13-3.28,3.04-3.28,1.78,0,2.8,1.04,2.8,3.04v.24h0Zm6.62-2v-2.48h-1.72v10.86h1.85v-4.65c0-1.3,.04-2.76,1.09-3.8,.52-.52,1.26-.85,2.39-.85h.09v-1.8c-.13-.02-.26-.02-.39-.02-1.65,0-2.78,1.22-3.3,2.74h0Zm13.79,8.38h2.82l3.87-10.86h-2.74l-2.11,6.88c-.2,.61-.3,1.11-.39,1.61h-.07c-.11-.5-.22-1-.39-1.61l-2.13-6.88h-2.74l3.87,10.86h0Zm8.45-12.66h2.82v-2.71h-2.82v2.71h0Zm.13,12.66h2.61v-10.86h-2.61v10.86h0Zm15.29-5.97c0-3.32-1.8-5.15-4.95-5.15s-5.19,2.21-5.19,5.8,2,5.58,5.32,5.58c2.21,0,3.93-1.04,4.73-2.93l-2-.91c-.5,1.17-1.41,1.8-2.65,1.8-1.71,0-2.87-1.17-2.89-3h7.62v-1.19h0Zm-2.56-.52h-5.06c.04-1.8,.98-2.89,2.63-2.89,1.54,0,2.43,.93,2.43,2.71v.17h0Zm7.95-9.25h-2.61v15.74h2.61V12.39h0Zm9.34,4.88h-2.63v-1.22c0-1.15,.48-1.71,1.52-1.71,.33,0,.72,.04,1.11,.11v-2.02c-.48-.11-1-.17-1.54-.17-2.32,0-3.69,1.37-3.69,3.63v1.39h-1.87v1.89h1.87v8.97h2.61v-8.97h2.63v-1.89h0Zm4.69,11.12c1.76,0,3.13-.8,3.65-2.13,.02,.67,.09,1.32,.17,1.87h2.61c-.22-.76-.33-1.89-.33-3.37v-3.23c0-3.15-1.43-4.52-4.65-4.52-2.8,0-4.62,1.43-4.8,3.76h2.67c.09-1.24,.85-1.91,2.13-1.91,1.39,0,2.02,.69,2.02,2.32v.28l-2.3,.28c-1.72,.24-2.76,.52-3.54,.98-.87,.54-1.33,1.41-1.33,2.45,0,1.93,1.48,3.21,3.69,3.21h0Zm.85-1.85c-1.15,0-1.85-.59-1.85-1.5s.65-1.45,2.08-1.69l2.45-.37v.69c0,1.74-1.09,2.87-2.69,2.87h0Zm11.18-14.16h-2.61v15.74h2.61V12.39h0Zm2.06,6.77h1.96v5.6c0,2.19,.87,3.56,3.47,3.56,.67,0,1.15-.06,1.78-.2v-2.19c-.35,.09-.63,.13-1.06,.13-1.08,0-1.58-.54-1.58-1.72v-5.19h2.65v-1.89h-2.65v-3.78l-2.61,1.04v2.74h-1.96v1.89h0Z"/><path class="c" d="M295.11,77.42c.13-.8-2.81,2.02-1.89-.28-1.05,.02-.82,1.34-1.32,1.91-1.5-.11-1.14-.14-2.6,.23-.04-.44-.08-.89-.12-1.33-.49,.13-.53,1.91-.74,.07-.43,.11-.24,.84-.25,1.37-1.12-.06-1.9-.61-2.38-1.58-.45,.49-1.05,.83-1.37,1.46-2.66-.92-10.07-.17-14.87,.87-.04-.45-.08-.89-.12-1.33-1.12,1.84-4.23,1.69-6.93,1.96,.2-1.46-1.04-.84-1.27-1.68-1.17,.78,1.29,.42,.9,1.71-1.12,.13-1.69-.93-3.12-1.52,.02,.97,.43,1.39,1.23,1.24-.61,1.17-2.93,.58-3.04-.63-.43,.11-.24,.84-.25,1.37-.47-.15-.81-.5-.86-1.27-1.05,0-.78,1.83-1.48,.13-.82,.32,.51,.66-.25,1.37-1.15-1.21-2.15,.46-2.75-1.55-.9,.13,.05,1.48,.49,1.3-.61,.51-4.79,1.91-4.53-.5-1.62,.53-2.71,1.6-4.7,1.76,.13-.94,.5-1,1.07-.54-1.88-.54-7.3,2.02-11,2.31,.07-.94-.36-1.15-.53-1.74-.8,.68-1.07,1.89-2.85,1.6-.57-.52-.35-2.17-1.31-2.13-.81,0-.03,1.59-.17,2.26-3.8,.05-6.54,2.36-8.57,.31-.53,.43,.16,.66-.21,1.81-1.09-.68-4.53-1.34-5.19,.46-1.22-1.86-6.03,1.58-5.72-1.29-1.36,.25-1.16,2.07-3.22,1.63,.08-.86,.7-1.19,.55-2.29-1.3,.26-.8,1.3-2.19,.64-.47,.34-.61,1.01-.58,1.85-1.62-.43-5.16-.19-5.56,.49-.59-.34,.04-.68-.53-1.75-3.27,1.87-9.23,3.33-12.2,1.53-.44,.23-.71,.63-.62,1.4-3.08-3.46-15.15,2.74-17.99-.65-.43,.11-.24,.84-.25,1.37-.86-.28-2.03-.08-2.34-1.14-.32,.36-.49,.86-.62,1.4-.89-.71-2.49-.42-2.79-1.99-.4,1.27,.43,2.92-.76,4.1-1.95-1.25-3.67-1.08-5.05-2.24-.3-7.29-2.99-11.05-1.45-16.45-4.2-1.7-.2-8.92-1.86-16.86,.9-.57,1.62,1.96,1.48-.13,4,2.4,9.4-.71,13.27-2.07,.04,.44,.08,.89,.12,1.33,1.06-.69,1.89-1.61,3.59-1.66-.04,.36-.33,.47-.29,.92,1.56-1.31,3.98-.61,6.19-1.89-.04,.37-.33,.48-.29,.92,1.27-.76,6.3-1.55,5.64,.4,.91,.1,.74-.88,1.82-.61,.29,.96-.65,.69-.62,1.4,1.42,.21,1.15-1.28,1.7-1.95,5.5,.37,13.13-.56,18.54-1.64,.04,.45,.08,.89,.12,1.33,.44-.23,.71-.63,.62-1.4,5.71,.18,15.21-.96,22.28-1.52,.02,.8,.54,.9,.53,1.74,1.28-2.07,2.03-.28,3.96-1.69,.05,.59,.11,1.19,.16,1.78,.29-.11,.33-.48,.7-.51,.87-.21-.52-1.16-.86-1.27,7.75-3.61,16.67-.54,22.58-2.44,1.78,1.74,5.21-2.07,7.16,.71,5.67-2.48,14.46-.29,19.86-3.55,.5,.12,.65,.73,1.19,.79,.5-.2-.04-.79-.45-.86,.84-.94,3.48-1.68,4.78-.87-.69,.56-.74-.02,.12,1.33,.95-.13,.45-1.71,.91-2.32,1.8,.83,4.29-2.25,4.49,.05,1.58-.57,2.26-2.06,4.29-2.17,.04,.44,.08,.89,.12,1.33,1.54,.2,1.15-1.55,2.89-1.15-.27,.81-.71,1.45-1.33,1.91,.13,.82,1.28,.16,1.56,.76-1.4-2.56,2.22-.28,2.03-2.42,1.27,.85,2.39,1.9,3.61,2.82-.36,.83,.24,3.48-.91,2.32,.82,1.18,2.26,8.27,.71,8,.75,2.2,.85,5.2,.26,7.15,1.16,1.2,2.78,8.87,.75,8.45,1.65,2.62-1.09,5,.51,5.78-1.4,1.21-4.28,.76-7.29,1.99,1.41-2.2-2.39,.69-3.26,1.18-.91-.18,.81-1.01,.99-1.43h0Zm-9.35-29.64c-.56-1.29,2.63-.81,1.37-1.47-.85,.22-1.43,.05-1.89-.28,.12,.66,.01,1.65,.53,1.75h0Zm-42.2,29.79c6.02-1.9,16.69-.75,24.5-2.18,4.27-.78,9.63-1.55,13.82-1.53,5.62,.03,12.64,2.57,20.12-1.16,1.62-1.68-1.02-5.67,.71-6.51-1.76-2.81-1-16.57-1.49-21.21-8.61,.57-14.23,3.38-24.48,4-1.17-1.49-8.17,1.03-9.95,.42-.05,.35-9.03-1.6-4.35,1.46-9.19-1.94-12.08,.16-22.57,1.07-.04-.45-5.77-4.25-4.79-.65-4,1.45-9.42,1.96-13.57,.78-1.88,.23-8.72,3.56-9.93,1.77-1.24,.11-1.14,1.56-2.48,1.56-.35-.81-1.14-.21-.49-1.3-1.76,1.58-3.94,.08-5.52,.93,2.01-.12,.58,1.77-.17,2.26-3.35-.67-8.7,1.19-9.8-.93-.59,.32-3.24,1.41-2.26-.25-2.09,1.14-4.93,3.81-6.96,1.51,.34,1.75-8.06,1.88-7.38,1.1-2.12,2.19-3.87-1.31-5.48,1.38-.02-.98-.43-1.39-1.23-1.23,.02,2.24-4.17-.95-5.48,1.38-.69-2.49-8.45-.29-11.26-1.1,1.32,4.68,.51,21.41,2.92,25.84,2.73-.1,13.75,5.46,13.43,1.27,.13-.54,9.13,3.27,7.17-1.4,4.04,2.62,4.97-4.14,8.15-.74,.42-1.06-1.1-1.59-.16-1.78,1.4,.51,3.73,2.3,4.65,1.83-.42-.06-.62-.44-.82-.83,4.52-.02,6.95-.43,9.09,1.44,.94-1.28,5.37-2.24,6.26-1,1.94-1.52,5.36-1.91,6.3-.56,1.16-1.58,5.76-1.77,8.82-1.67-.86-.05-1.38,.23-1.4,1.02,1.95,.5,3.52-2.59,6.52-2.37,.12,.66,.01,1.65,.53,1.75-.31-3.29,1.37,.02,2.07-1.98,.04,.45,.08,.89,.12,1.33,.46-.87,2.46-2.72,3.3-.73,2.79-1.33,6.43-2.92,9.89-2.22,.35-2.43,2.3-.72,3.96-1.7,.03,.3,.05,.59,.08,.89-.42-.14-.94-.45-.37,.03h0Zm-31.24,5.9c5.07,.34,1.63-2.04,0,0h0Zm70.61-8.55c-.21,1.64,1.64,.31,1.97,1.17,0-.85-.5-.94-.53-1.74-.71-.04-.77,.57-1.44,.58h0Zm-18.63,4.78c.63-.31,2.23,.34,2.19-.64-.91-.42-.98,.18-1.93-.72,.07,.61-.09,.99-.26,1.37h0Z"/><path class="c" d="M161.48,67.24l.7,7.3c.24,2.53,2.03,4.03,4.9,3.75,2.87-.28,4.36-2.09,4.11-4.62l-.7-7.3-2.04,.2,.69,7.19c.15,1.58-.64,2.66-2.23,2.81-1.58,.15-2.56-.76-2.71-2.34l-.69-7.19-2.04,.2h0Zm13.07,10.06l1.85-.18-.7-7.3c-.06-.62-.1-1.06-.18-1.48h.03c.22,.44,.48,.84,.82,1.34l4.99,6.96,2.29-.22-1.08-11.21-1.85,.18,.7,7.33c.06,.6,.12,1.04,.17,1.45h-.03c-.2-.42-.48-.89-.83-1.37l-4.93-6.94-2.34,.22,1.08,11.21h0Zm18.78-13.13l-8.83,.85,.16,1.66,3.4-.33,.92,9.56,2.04-.2-.92-9.56,3.4-.33-.16-1.66h0Zm4.89,9.24l-.32-3.37,4.98-.48-.15-1.58-4.98,.48-.3-3.08,5.24-.5-.15-1.59-7.28,.7,1.08,11.21,7.39-.71-.15-1.59-5.36,.52h0Zm14.69,.19l2.24-.22-3.13-4.51c1.61-.63,2.19-1.96,2.06-3.31-.18-1.85-1.32-3.27-4.21-2.99l-4.52,.44,1.08,11.21,2.04-.2-.43-4.5,1.98-.19,2.9,4.27h0Zm-5.37-9.24l2.13-.21c1.53-.15,2.17,.54,2.28,1.62,.1,1.06-.39,1.89-1.93,2.04l-2.13,.21-.35-3.65h0Zm9.01,7.24l.16,1.64,8.39-.81-.16-1.63-6.11,.59,5.11-8.52-.16-1.64-7.93,.76,.16,1.64,5.66-.54-5.11,8.5h0Zm12.55-1.16l-.32-3.37,4.98-.48-.15-1.58-4.98,.48-.3-3.08,5.25-.51-.15-1.59-7.28,.7,1.08,11.21,7.39-.71-.15-1.59-5.36,.52h0Zm10.25,.62l-1.08-11.21-2.04,.2,1.08,11.21,2.04-.2h0Zm7.66-.47c2.73-.26,4.11-2,4.37-4.29l-2.06-.22c-.13,1.61-1.02,2.67-2.46,2.8-2.05,.2-3.33-1.45-3.56-3.9-.24-2.51,.73-4.28,2.71-4.47,1.55-.15,2.58,.77,2.92,2.35l2.06-.5c-.53-2.36-2.28-3.8-5.08-3.53-3.36,.32-5.04,2.87-4.71,6.37,.33,3.4,2.29,5.73,5.81,5.39h0Zm15.09-13.04l-2.04,.2,.45,4.69-5.04,.49-.45-4.69-2.04,.2,1.08,11.21,2.04-.2-.47-4.9,5.04-.49,.47,4.9,2.04-.2-1.08-11.21h0Zm4.26,10.91l1.85-.18-.7-7.3c-.06-.62-.1-1.06-.18-1.48h.03c.22,.44,.48,.84,.81,1.34l4.99,6.96,2.29-.22-1.08-11.21-1.85,.18,.71,7.33c.06,.6,.12,1.04,.17,1.45h-.03c-.2-.42-.48-.89-.83-1.37l-4.93-6.94-2.34,.22,1.08,11.21h0Zm14.16-2.97l-.32-3.37,4.98-.48-.15-1.58-4.98,.48-.3-3.08,5.25-.5-.15-1.59-7.28,.7,1.08,11.21,7.39-.71-.15-1.59-5.36,.52h0Zm14.82-11.14l-8.83,.85,.16,1.66,3.4-.33,.92,9.56,2.04-.2-.92-9.56,3.4-.33-.16-1.66h0Z"/><path class="k" d="M61.61,36.39v-.78h-5.1v8.37h.91v-3.9h4v-.78h-4v-2.91h4.2Zm2.45,.61h.93v-1.25h-.93v1.25h0Zm2.38,0h.93v-1.25h-.93v1.25h0Zm-1.07,7.12c.9,0,1.64-.58,1.91-1.35v1.21h.78v-5.89h-.82v3.22c0,1.19-.65,2.11-1.72,2.11-.8,0-1.34-.52-1.34-1.67v-3.65h-.81v3.74c0,1.4,.54,2.3,2.02,2.3h0Zm6.12-4.6v-1.44h-.76v5.89h.81v-2.7c0-.74,.11-1.53,.65-2.08,.29-.28,.7-.45,1.26-.45h.09v-.8c-.08-.01-.14-.01-.22-.01-.91,0-1.56,.67-1.83,1.58h0Zm7.52,4.46h2.63c2.42,0,4-1.74,4-4.19s-1.57-4.17-3.97-4.17h-2.65v8.37h0Zm.91-.78v-6.82h1.73c1.91,0,3.01,1.4,3.01,3.4s-1.13,3.42-3.03,3.42h-1.71Zm7.78-6.18h.93v-1.3h-.93v1.3h0Zm.06,6.95h.81v-5.89h-.81v5.89h0Zm4.67,0h.9l2.18-5.89h-.9l-1.46,4.17c-.11,.33-.2,.6-.26,.87h-.04c-.06-.27-.14-.54-.25-.87l-1.46-4.17h-.9l2.18,5.89h0Zm9.15-3.3c0-1.79-.91-2.73-2.49-2.73s-2.62,1.19-2.62,3.12,.98,3.05,2.65,3.05c1.19,0,2.05-.61,2.42-1.71l-.69-.28c-.25,.8-.84,1.26-1.66,1.26-1.14,0-1.87-.81-1.89-2.15h4.28v-.56h0Zm-.83-.11h-3.44c.02-1.22,.68-1.97,1.78-1.97s1.66,.65,1.66,1.86v.11h0Zm3.77-1.05v-1.44h-.76v5.89h.81v-2.7c0-.74,.11-1.53,.65-2.08,.29-.28,.7-.45,1.26-.45h.09v-.8c-.08-.01-.14-.01-.22-.01-.91,0-1.56,.67-1.83,1.58h0Zm5.66,4.6c1.38,0,2.19-.67,2.19-1.77,0-.92-.47-1.51-1.61-1.65l-.94-.12c-.78-.09-1.12-.42-1.12-.98,0-.62,.5-.99,1.34-.99s1.38,.48,1.51,1.31l.81-.17c-.12-1.15-1-1.81-2.31-1.81s-2.17,.65-2.17,1.7c0,.9,.54,1.51,1.67,1.65l.94,.11c.72,.1,1.05,.39,1.05,1.02s-.47,1.01-1.33,1.01c-.96,0-1.55-.47-1.7-1.42l-.82,.14c.19,1.28,1.1,1.97,2.49,1.97h0Zm4.27-7.1h.93v-1.3h-.93v1.3h0Zm.06,6.95h.81v-5.89h-.81v5.89h0Zm2.61-5.21h1.08v3.57c0,1.05,.39,1.74,1.53,1.74,.33,0,.57-.04,.81-.11v-.75c-.2,.05-.37,.08-.6,.08-.61,0-.92-.31-.92-1v-3.54h1.52v-.68h-1.52v-1.91l-.82,.36v1.55h-1.08v.68h0Zm5.55,7.58c.98,0,1.63-.53,2.16-1.99l2.3-6.27h-.88l-1.44,4.2c-.11,.32-.19,.59-.25,.81h-.02c-.06-.22-.14-.5-.26-.8l-1.58-4.21h-.92l2.36,5.85-.15,.44c-.28,.81-.65,1.24-1.41,1.24-.13,0-.27-.01-.41-.04v.73c.18,.04,.34,.05,.52,.05h0Zm9.62-9.32h.93v-1.3h-.93v1.3h0Zm.06,6.95h.81v-5.89h-.81v5.89h0Zm3.48,0h.81v-3.1c0-1.38,.67-2.23,1.73-2.23,.93,0,1.43,.59,1.43,1.73v3.6h.82v-3.64c0-1.59-.68-2.42-2-2.42-.98,0-1.66,.5-2.02,1.46v-1.3h-.78v5.89h0Zm12.7,.14c.94,0,1.65-.52,1.99-1.39v1.25h.78v-8.54h-.82v3.72c-.35-.83-1-1.21-1.85-1.21-1.5,0-2.52,1.27-2.52,3.09s.96,3.09,2.43,3.09h0Zm.2-.73c-1.1,0-1.76-.9-1.76-2.36s.66-2.36,1.77-2.36,1.75,.9,1.75,2.24v.25c0,1.31-.67,2.23-1.76,2.23h0Zm9.83-2.71c0-1.79-.91-2.73-2.49-2.73s-2.62,1.19-2.62,3.12,.98,3.05,2.65,3.05c1.19,0,2.05-.61,2.42-1.71l-.69-.28c-.25,.8-.84,1.26-1.66,1.26-1.14,0-1.87-.81-1.89-2.15h4.28v-.56h0Zm-.83-.11h-3.45c.02-1.22,.69-1.97,1.78-1.97s1.66,.65,1.66,1.86v.11h0Zm3.77-1.05v-1.44h-.76v5.89h.81v-2.7c0-.74,.11-1.53,.65-2.08,.29-.28,.7-.45,1.26-.45h.09v-.8c-.08-.01-.14-.01-.22-.01-.91,0-1.56,.67-1.83,1.58h0Zm12.88,4.46h.95l-3.18-8.37h-.91l-3.19,8.37h.95l.88-2.44h3.61l.88,2.44h0Zm-4.21-3.22l1.24-3.43c.13-.33,.2-.55,.27-.81h.02c.07,.26,.15,.48,.27,.81l1.24,3.43h-3.04Zm7.74-1.24v-1.44h-.77v5.89h.81v-2.7c0-.74,.11-1.53,.65-2.08,.29-.28,.7-.45,1.26-.45h.1v-.8c-.08-.01-.14-.01-.22-.01-.91,0-1.56,.67-1.83,1.58h0Zm6.65,4.6c1.49,0,2.45-1.24,2.45-3.09s-.94-3.09-2.39-3.09c-.98,0-1.67,.55-1.98,1.34v-3.85h-.81v8.54h.62l.15-1.18c.3,.78,1.03,1.32,1.96,1.32h0Zm-.21-.73c-1.06,0-1.72-.89-1.72-2.19v-.28c0-1.36,.67-2.24,1.74-2.24,1.13,0,1.77,.93,1.77,2.36s-.67,2.36-1.79,2.36h0Zm9.32-2.71c0-1.79-.91-2.73-2.49-2.73s-2.62,1.19-2.62,3.12,.98,3.05,2.65,3.05c1.19,0,2.05-.61,2.42-1.71l-.69-.28c-.25,.8-.84,1.26-1.66,1.26-1.14,0-1.88-.81-1.89-2.15h4.28v-.56h0Zm-.84-.11h-3.44c.02-1.22,.68-1.97,1.78-1.97s1.66,.65,1.66,1.86v.11h0Zm2.95-3.55h.93v-1.3h-.93v1.3h0Zm.06,6.95h.81v-5.89h-.81v5.89h0Zm2.61-5.21h1.08v3.57c0,1.05,.39,1.74,1.53,1.74,.33,0,.57-.04,.81-.11v-.75c-.2,.05-.37,.08-.6,.08-.61,0-.92-.31-.92-1v-3.54h1.52v-.68h-1.52v-1.91l-.82,.36v1.55h-1.08v.68h0Zm7.26,5.35c1.38,0,2.19-.67,2.19-1.77,0-.92-.47-1.51-1.62-1.65l-.94-.12c-.78-.09-1.12-.42-1.12-.98,0-.62,.5-.99,1.34-.99s1.38,.48,1.51,1.31l.81-.17c-.12-1.15-1-1.81-2.31-1.81s-2.17,.65-2.17,1.7c0,.9,.54,1.51,1.67,1.65l.94,.11c.72,.1,1.05,.39,1.05,1.02s-.47,1.01-1.33,1.01c-.96,0-1.54-.47-1.7-1.42l-.82,.14c.19,1.28,1.1,1.97,2.49,1.97h0Zm5.07-.14h.89l1.23-4.41c.05-.19,.11-.46,.14-.65h.01c.04,.19,.09,.46,.14,.65l1.23,4.41h.89l1.7-5.89h-.85l-1.17,4.35c-.05,.21-.11,.46-.14,.71h-.02c-.05-.25-.12-.5-.17-.71l-1.19-4.35h-.87l-1.18,4.35c-.06,.21-.13,.46-.16,.71h-.03c-.04-.25-.09-.5-.14-.71l-1.17-4.35h-.85l1.7,5.89h0Zm12.52-3.3c0-1.79-.91-2.73-2.49-2.73s-2.62,1.19-2.62,3.12,.98,3.05,2.65,3.05c1.19,0,2.05-.61,2.42-1.71l-.7-.28c-.25,.8-.84,1.26-1.66,1.26-1.14,0-1.88-.81-1.89-2.15h4.28v-.56h0Zm-.84-.11h-3.44c.02-1.22,.68-1.97,1.78-1.97s1.66,.65,1.66,1.86v.11h0Zm3.88-5.14h-.81v8.54h.81v-8.54h0Zm1.85,3.33h1.08v3.57c0,1.05,.39,1.74,1.53,1.74,.33,0,.56-.04,.81-.11v-.75c-.2,.05-.37,.08-.6,.08-.62,0-.92-.31-.92-1v-3.54h1.52v-.68h-1.52v-1.91l-.82,.36v1.55h-1.08v.68h0Z"/></svg>