<?xml version="1.0" encoding="utf-8"?>
<!-- Generator: Adobe Illustrator 22.0.1, SVG Export Plug-In . SVG Version: 6.00 Build 0)  -->
<svg version="1.1" id="Ebene_1" xmlns="http://www.w3.org/2000/svg" xmlns:xlink="http://www.w3.org/1999/xlink" x="0px" y="0px"
	 viewBox="0 0 566.9 283.5" style="enable-background:new 0 0 566.9 283.5;" xml:space="preserve">
<style type="text/css">
	.st0{fill:#80BB2A;}
	.st1{fill:#F39200;}
	.st2{font-family:'MyriadPro-Bold';}
	.st3{font-size:90px;}
	.st4{letter-spacing:-1;}
	.st5{fill:#777A7B;}
	.st6{letter-spacing:-3;}
	.st7{fill:#FFFFFF;}
</style>
<path class="st0" d="M441,212.2c0,2.8-1.4,5.1-3.1,5.1H128.5c-1.7,0-3.1-2.3-3.1-5.1v-29.7c0-2.8,1.4-5.1,3.1-5.1h309.4
	c1.7,0,3.1,2.3,3.1,5.1V212.2z"/>
<g>
	<text transform="matrix(1 0 0 1 118.8047 104.8164)" class="st1 st2 st3 st4">iS</text>
	<text transform="matrix(1 0 0 1 186.6562 104.8164)" class="st1 st2 st3">A</text>
	<text transform="matrix(1 0 0 1 240.2969 104.8164)" class="st5 st2 st3 st6">QB</text>
	<polygon class="st1" points="315.6,145.5 304.2,125.3 279.7,135.9 301.1,173.2 425.6,115.7 406.1,105.4 315.6,145.5 	"/>
	<polygon class="st5" points="304.2,125.3 315.6,145.5 406.1,105.4 448.1,86.7 357,22.4 335.1,29.7 401.5,83.1 304.2,125.3 	"/>
	<path class="st5" d="M130.8,141c-0.6-0.1-1.2-0.3-1.8-0.4v0c1-0.4,1.8-1.6,1.8-3.4c0-2.1-1.2-3.7-3.2-3.7c-2,0-3.3,1.6-3.3,3.9
		c0,2.4,1.4,3.6,3.1,3.7c0.2,0,0.3,0.1,0.5,0.1c0.9,0.4,1.8,0.7,2.7,0.9L130.8,141L130.8,141z M127.5,139.9c-1.2,0-1.9-1.2-1.9-2.7
		c0-1.5,0.7-2.8,1.9-2.8c1.3,0,1.9,1.3,1.9,2.7C129.4,138.7,128.7,139.9,127.5,139.9L127.5,139.9L127.5,139.9z M136.3,135.5H135v3.2
		c0,0.2,0,0.3-0.1,0.4c-0.1,0.3-0.5,0.7-1,0.7c-0.7,0-0.9-0.6-0.9-1.5v-2.9h-1.3v3.1c0,1.7,0.8,2.3,1.8,2.3c0.9,0,1.4-0.5,1.6-0.9h0
		l0.1,0.8h1.1c0-0.4,0-1,0-1.6V135.5L136.3,135.5z M141.5,137.6c0-1.2-0.5-2.2-2.1-2.2c-0.8,0-1.5,0.2-1.8,0.5l0.2,0.9
		c0.3-0.2,0.9-0.4,1.4-0.4c0.9,0,1,0.6,1,0.9v0.1c-1.9,0-3,0.7-3,2c0,0.8,0.6,1.6,1.6,1.6c0.7,0,1.2-0.3,1.5-0.7h0l0.1,0.6h1.1
		c-0.1-0.3-0.1-0.8-0.1-1.3V137.6L141.5,137.6z M140.3,139c0,0.1,0,0.2,0,0.3c-0.1,0.4-0.5,0.7-1,0.7c-0.4,0-0.7-0.2-0.7-0.8
		c0-0.8,0.9-1,1.8-1V139L140.3,139z M142.8,140.8h1.3v-7.8h-1.3V140.8L142.8,140.8z M146.7,140.8v-5.3h-1.3v5.3H146.7L146.7,140.8z
		 M146.1,133.3c-0.4,0-0.7,0.3-0.7,0.7c0,0.4,0.3,0.7,0.7,0.7c0.4,0,0.7-0.3,0.7-0.7C146.8,133.6,146.5,133.3,146.1,133.3
		L146.1,133.3z M149.4,140.8v-4.3h1.1v-1h-1.1v-0.3c0-0.7,0.2-1.2,0.8-1.2c0.2,0,0.4,0,0.5,0.1l0.1-1c-0.2-0.1-0.5-0.1-0.8-0.1
		c-0.4,0-0.9,0.1-1.3,0.5c-0.4,0.4-0.6,1.1-0.6,1.8v0.2h-0.7v1h0.7v4.3H149.4L149.4,140.8z M152.9,140.8v-5.3h-1.3v5.3H152.9
		L152.9,140.8z M152.2,133.3c-0.4,0-0.7,0.3-0.7,0.7c0,0.4,0.3,0.7,0.7,0.7c0.4,0,0.7-0.3,0.7-0.7
		C152.9,133.6,152.7,133.3,152.2,133.3L152.2,133.3z M157.7,139.7c-0.2,0.1-0.6,0.2-1,0.2c-0.9,0-1.5-0.6-1.5-1.7
		c0-1,0.6-1.7,1.5-1.7c0.5,0,0.8,0.1,1,0.2l0.2-1c-0.3-0.1-0.8-0.2-1.2-0.2c-1.8,0-2.8,1.2-2.8,2.8c0,1.6,1,2.7,2.6,2.7
		c0.6,0,1.2-0.2,1.4-0.3L157.7,139.7L157.7,139.7z M162.7,137.6c0-1.2-0.5-2.2-2.1-2.2c-0.8,0-1.5,0.2-1.8,0.5l0.2,0.9
		c0.3-0.2,0.9-0.4,1.4-0.4c0.9,0,1,0.6,1,0.9v0.1c-1.9,0-3,0.7-3,2c0,0.8,0.6,1.6,1.6,1.6c0.7,0,1.2-0.3,1.5-0.7h0l0.1,0.6h1.1
		c-0.1-0.3-0.1-0.8-0.1-1.3V137.6L162.7,137.6z M161.5,139c0,0.1,0,0.2,0,0.3c-0.1,0.4-0.5,0.7-1,0.7c-0.4,0-0.7-0.2-0.7-0.8
		c0-0.8,0.9-1,1.8-1V139L161.5,139z M164.2,134.5v1h-0.7v1h0.7v2.5c0,0.7,0.1,1.2,0.4,1.5c0.2,0.3,0.6,0.4,1.1,0.4
		c0.4,0,0.7-0.1,0.9-0.1l0-1c-0.1,0-0.3,0.1-0.5,0.1c-0.5,0-0.7-0.3-0.7-1v-2.3h1.2v-1h-1.2v-1.4L164.2,134.5L164.2,134.5z
		 M168.9,140.8v-5.3h-1.3v5.3H168.9L168.9,140.8z M168.2,133.3c-0.4,0-0.7,0.3-0.7,0.7c0,0.4,0.3,0.7,0.7,0.7c0.4,0,0.7-0.3,0.7-0.7
		C168.9,133.6,168.7,133.3,168.2,133.3L168.2,133.3z M172.5,135.4c-1.5,0-2.6,1.1-2.6,2.8c0,1.7,1.1,2.7,2.5,2.7
		c1.3,0,2.6-0.9,2.6-2.8C175,136.5,174,135.4,172.5,135.4L172.5,135.4z M172.4,136.4c0.9,0,1.2,0.9,1.2,1.8c0,1.1-0.5,1.8-1.2,1.8
		c-0.8,0-1.3-0.8-1.3-1.8C171.2,137.3,171.5,136.4,172.4,136.4L172.4,136.4z M176,140.8h1.3v-3.1c0-0.2,0-0.3,0.1-0.4
		c0.1-0.4,0.5-0.8,1-0.8c0.7,0,1,0.6,1,1.3v3h1.3v-3.2c0-1.7-0.9-2.3-1.8-2.3c-0.8,0-1.4,0.5-1.6,0.9h0l-0.1-0.8h-1.1
		c0,0.5,0,1,0,1.6V140.8L176,140.8z M184,140.8c0.3,0,0.9,0.1,1.6,0.1c1.3,0,2.1-0.2,2.6-0.7c0.4-0.3,0.7-0.9,0.7-1.5
		c0-1-0.7-1.6-1.4-1.8v0c0.8-0.3,1.2-0.9,1.2-1.6c0-0.6-0.3-1.1-0.7-1.4c-0.5-0.3-1.1-0.5-2-0.5c-0.7,0-1.5,0.1-1.9,0.2V140.8
		L184,140.8z M185.3,134.5c0.1,0,0.4-0.1,0.7-0.1c0.8,0,1.3,0.3,1.3,1c0,0.6-0.5,1.1-1.4,1.1h-0.7V134.5L185.3,134.5z M185.3,137.5
		h0.6c0.9,0,1.6,0.3,1.6,1.2c0,0.9-0.7,1.2-1.5,1.2c-0.3,0-0.5,0-0.7,0V137.5L185.3,137.5z M192.2,135.4c-1.5,0-2.6,1.1-2.6,2.8
		c0,1.7,1.1,2.7,2.5,2.7c1.3,0,2.6-0.9,2.6-2.8C194.7,136.5,193.7,135.4,192.2,135.4L192.2,135.4z M192.1,136.4
		c0.9,0,1.2,0.9,1.2,1.8c0,1.1-0.5,1.8-1.2,1.8c-0.8,0-1.3-0.8-1.3-1.8C190.9,137.3,191.2,136.4,192.1,136.4L192.1,136.4z
		 M199.6,137.6c0-1.2-0.5-2.2-2.1-2.2c-0.8,0-1.5,0.2-1.8,0.5l0.2,0.9c0.3-0.2,0.9-0.4,1.4-0.4c0.9,0,1,0.6,1,0.9v0.1
		c-1.9,0-3,0.7-3,2c0,0.8,0.6,1.6,1.6,1.6c0.7,0,1.2-0.3,1.5-0.7h0l0.1,0.6h1.1c-0.1-0.3-0.1-0.8-0.1-1.3V137.6L199.6,137.6z
		 M198.3,139c0,0.1,0,0.2,0,0.3c-0.1,0.4-0.5,0.7-1,0.7c-0.4,0-0.7-0.2-0.7-0.8c0-0.8,0.9-1,1.8-1V139L198.3,139z M200.9,140.8h1.3
		v-2.8c0-0.2,0-0.3,0-0.4c0.1-0.6,0.5-1,1.1-1c0.2,0,0.3,0,0.4,0v-1.3c-0.1,0-0.2,0-0.3,0c-0.5,0-1.1,0.4-1.4,1.1h0l0-1h-1.1
		c0,0.5,0,1,0,1.7V140.8L200.9,140.8z M207.9,133.1v3h0c-0.2-0.4-0.7-0.7-1.4-0.7c-1.2,0-2.3,1.1-2.3,2.8c0,1.6,1,2.7,2.2,2.7
		c0.7,0,1.3-0.4,1.6-1h0l0.1,0.8h1.1c0-0.4,0-0.9,0-1.5v-6.3H207.9L207.9,133.1z M207.9,138.5c0,0.1,0,0.3,0,0.4
		c-0.1,0.6-0.6,0.9-1.1,0.9c-0.8,0-1.3-0.7-1.3-1.7c0-1,0.5-1.8,1.3-1.8c0.6,0,1,0.4,1.1,1c0,0.1,0,0.2,0,0.3V138.5L207.9,138.5z"/>
	<path class="st1" d="M124.6,120.4v7.4h1.3v-7.4H124.6L124.6,120.4z M127.2,127.7h1.3v-3.1c0-0.2,0-0.3,0.1-0.4
		c0.1-0.4,0.5-0.8,1-0.8c0.7,0,1,0.6,1,1.3v3h1.3v-3.2c0-1.7-0.9-2.3-1.8-2.3c-0.8,0-1.4,0.5-1.6,0.9h0l-0.1-0.8h-1.1
		c0,0.5,0,1,0,1.6V127.7L127.2,127.7z M133.3,121.5v1h-0.7v1h0.7v2.5c0,0.7,0.1,1.2,0.4,1.5c0.2,0.3,0.6,0.4,1.1,0.4
		c0.4,0,0.7-0.1,0.9-0.1l0-1c-0.1,0-0.3,0.1-0.5,0.1c-0.5,0-0.7-0.3-0.7-1v-2.3h1.2v-1h-1.2v-1.4L133.3,121.5L133.3,121.5z
		 M140.9,125.5c0-0.1,0-0.3,0-0.6c0-1.2-0.5-2.6-2.2-2.6c-1.6,0-2.5,1.4-2.5,2.9c0,1.6,1,2.7,2.6,2.7c0.7,0,1.3-0.2,1.8-0.3
		l-0.2-0.9c-0.4,0.2-0.8,0.2-1.4,0.2c-0.8,0-1.5-0.4-1.6-1.4H140.9L140.9,125.5z M137.5,124.5c0.1-0.5,0.4-1.3,1.2-1.3
		c0.8,0,1.1,0.8,1,1.3H137.5L137.5,124.5z M141.9,127.7h1.3V125c0-0.2,0-0.3,0-0.4c0.1-0.6,0.5-1,1.1-1c0.2,0,0.3,0,0.4,0v-1.3
		c-0.1,0-0.2,0-0.3,0c-0.5,0-1.1,0.4-1.4,1.1h0l0-1h-1.1c0,0.5,0,1,0,1.7V127.7L141.9,127.7z M145.6,127.7h1.3v-3.1
		c0-0.2,0-0.3,0.1-0.4c0.1-0.4,0.5-0.8,1-0.8c0.7,0,1,0.6,1,1.3v3h1.3v-3.2c0-1.7-0.9-2.3-1.8-2.3c-0.8,0-1.4,0.5-1.6,0.9h0
		l-0.1-0.8h-1.1c0,0.5,0,1,0,1.6V127.7L145.6,127.7z M155.4,124.6c0-1.2-0.5-2.2-2.1-2.2c-0.8,0-1.5,0.2-1.8,0.5l0.2,0.9
		c0.3-0.2,0.9-0.4,1.4-0.4c0.9,0,1,0.6,1,0.9v0.1c-1.9,0-3,0.7-3,2c0,0.8,0.6,1.6,1.6,1.6c0.7,0,1.2-0.3,1.5-0.7h0l0.1,0.6h1.1
		c-0.1-0.3-0.1-0.8-0.1-1.3V124.6L155.4,124.6z M154.1,125.9c0,0.1,0,0.2,0,0.3c-0.1,0.4-0.5,0.7-1,0.7c-0.4,0-0.7-0.2-0.7-0.8
		c0-0.8,0.9-1,1.8-1V125.9L154.1,125.9z M156.9,121.5v1h-0.7v1h0.7v2.5c0,0.7,0.1,1.2,0.4,1.5c0.2,0.3,0.6,0.4,1.1,0.4
		c0.4,0,0.7-0.1,0.9-0.1l0-1c-0.1,0-0.3,0.1-0.5,0.1c-0.5,0-0.7-0.3-0.7-1v-2.3h1.2v-1h-1.2v-1.4L156.9,121.5L156.9,121.5z
		 M161.5,127.7v-5.3h-1.3v5.3H161.5L161.5,127.7z M160.9,120.2c-0.4,0-0.7,0.3-0.7,0.7c0,0.4,0.3,0.7,0.7,0.7c0.4,0,0.7-0.3,0.7-0.7
		C161.6,120.5,161.3,120.2,160.9,120.2L160.9,120.2z M165.2,122.3c-1.5,0-2.6,1.1-2.6,2.8c0,1.7,1.1,2.7,2.5,2.7
		c1.3,0,2.6-0.9,2.6-2.8C167.7,123.4,166.7,122.3,165.2,122.3L165.2,122.3z M165.1,123.3c0.9,0,1.2,0.9,1.2,1.8
		c0,1.1-0.5,1.8-1.2,1.8c-0.8,0-1.3-0.8-1.3-1.8C163.9,124.2,164.2,123.3,165.1,123.3L165.1,123.3z M168.7,127.7h1.3v-3.1
		c0-0.2,0-0.3,0.1-0.4c0.1-0.4,0.5-0.8,1-0.8c0.7,0,1,0.6,1,1.3v3h1.3v-3.2c0-1.7-0.9-2.3-1.8-2.3c-0.8,0-1.4,0.5-1.6,0.9h0
		l-0.1-0.8h-1.1c0,0.5,0,1,0,1.6V127.7L168.7,127.7z M178.4,124.6c0-1.2-0.5-2.2-2.1-2.2c-0.8,0-1.5,0.2-1.8,0.5l0.2,0.9
		c0.3-0.2,0.9-0.4,1.4-0.4c0.9,0,1,0.6,1,0.9v0.1c-1.9,0-3,0.7-3,2c0,0.8,0.6,1.6,1.6,1.6c0.7,0,1.2-0.3,1.5-0.7h0l0.1,0.6h1.1
		c-0.1-0.3-0.1-0.8-0.1-1.3V124.6L178.4,124.6z M177.2,125.9c0,0.1,0,0.2,0,0.3c-0.1,0.4-0.5,0.7-1,0.7c-0.4,0-0.7-0.2-0.7-0.8
		c0-0.8,0.9-1,1.8-1V125.9L177.2,125.9z M179.7,127.7h1.3V120h-1.3V127.7L179.7,127.7z M184.2,127.4c0.4,0.2,1.1,0.5,1.9,0.5
		c1.8,0,2.7-1,2.7-2.2c0-1.1-0.6-1.7-1.8-2.2c-0.9-0.4-1.3-0.6-1.3-1.2c0-0.4,0.4-0.9,1.2-0.9c0.7,0,1.1,0.2,1.4,0.3l0.3-1.1
		c-0.4-0.2-0.9-0.4-1.7-0.4c-1.5,0-2.5,0.9-2.5,2.1c0,1.1,0.7,1.7,1.9,2.1c0.9,0.3,1.2,0.7,1.2,1.2c0,0.6-0.5,1-1.3,1
		c-0.7,0-1.3-0.2-1.7-0.5L184.2,127.4L184.2,127.4z M192.1,122.3c-1.5,0-2.6,1.1-2.6,2.8c0,1.7,1.1,2.7,2.5,2.7
		c1.3,0,2.6-0.9,2.6-2.8C194.6,123.4,193.6,122.3,192.1,122.3L192.1,122.3z M192,123.3c0.9,0,1.2,0.9,1.2,1.8c0,1.1-0.5,1.8-1.2,1.8
		c-0.8,0-1.3-0.8-1.3-1.8C190.8,124.2,191.1,123.3,192,123.3L192,123.3z M197,127.7v-4.3h1.1v-1H197v-0.3c0-0.7,0.2-1.2,0.9-1.2
		c0.2,0,0.4,0,0.5,0.1l0.1-1c-0.2-0.1-0.5-0.1-0.8-0.1c-0.4,0-0.9,0.1-1.3,0.5c-0.4,0.4-0.6,1.1-0.6,1.8v0.2H195v1h0.7v4.3H197
		L197,127.7z M199.4,121.5v1h-0.7v1h0.7v2.5c0,0.7,0.1,1.2,0.4,1.5c0.2,0.3,0.6,0.4,1.1,0.4c0.4,0,0.7-0.1,0.9-0.1l0-1
		c-0.1,0-0.3,0.1-0.5,0.1c-0.5,0-0.7-0.3-0.7-1v-2.3h1.2v-1h-1.2v-1.4L199.4,121.5L199.4,121.5z M202.2,122.4l1.5,5.3h1.2l0.6-2.2
		c0.1-0.5,0.3-1,0.4-1.7h0c0.1,0.6,0.2,1.1,0.4,1.7l0.6,2.2h1.2l1.6-5.3h-1.3l-0.6,2.4c-0.1,0.6-0.2,1.2-0.3,1.8h0
		c-0.1-0.6-0.2-1.2-0.4-1.8l-0.6-2.4h-1l-0.7,2.4c-0.1,0.5-0.3,1.1-0.4,1.7h0c-0.1-0.6-0.2-1.2-0.3-1.7l-0.5-2.4H202.2L202.2,122.4z
		 M214.4,124.6c0-1.2-0.5-2.2-2.1-2.2c-0.8,0-1.5,0.2-1.8,0.5l0.2,0.9c0.3-0.2,0.9-0.4,1.4-0.4c0.9,0,1,0.6,1,0.9v0.1
		c-1.9,0-3,0.7-3,2c0,0.8,0.6,1.6,1.6,1.6c0.7,0,1.2-0.3,1.5-0.7h0l0.1,0.6h1.1c-0.1-0.3-0.1-0.8-0.1-1.3V124.6L214.4,124.6z
		 M213.2,125.9c0,0.1,0,0.2,0,0.3c-0.1,0.4-0.5,0.7-1,0.7c-0.4,0-0.7-0.2-0.7-0.8c0-0.8,0.9-1,1.8-1V125.9L213.2,125.9z
		 M215.7,127.7h1.3V125c0-0.2,0-0.3,0-0.4c0.1-0.6,0.5-1,1.1-1c0.2,0,0.3,0,0.4,0v-1.3c-0.1,0-0.2,0-0.3,0c-0.5,0-1.1,0.4-1.4,1.1h0
		l0-1h-1.1c0,0.5,0,1,0,1.7V127.7L215.7,127.7z M223.6,125.5c0-0.1,0-0.3,0-0.6c0-1.2-0.5-2.6-2.2-2.6c-1.6,0-2.5,1.4-2.5,2.9
		c0,1.6,1,2.7,2.6,2.7c0.7,0,1.3-0.2,1.8-0.3l-0.2-0.9c-0.4,0.2-0.8,0.2-1.4,0.2c-0.8,0-1.5-0.4-1.6-1.4H223.6L223.6,125.5z
		 M220.2,124.5c0.1-0.5,0.4-1.3,1.2-1.3c0.9,0,1.1,0.8,1,1.3H220.2L220.2,124.5z M230.4,125.7l0.6,2.1h1.4l-2.3-7.4h-1.6l-2.2,7.4
		h1.3l0.6-2.1H230.4L230.4,125.7z M228.4,124.6l0.5-1.8c0.1-0.4,0.2-1,0.3-1.4h0c0.1,0.4,0.2,0.9,0.4,1.4l0.5,1.8H228.4L228.4,124.6
		z M233.3,127.7h1.3V125c0-0.2,0-0.3,0-0.4c0.1-0.6,0.5-1,1.1-1c0.2,0,0.3,0,0.4,0v-1.3c-0.1,0-0.2,0-0.3,0c-0.5,0-1.1,0.4-1.4,1.1
		h0l0-1h-1.1c0,0.5,0,1,0,1.7V127.7L233.3,127.7z M240.4,126.6c-0.2,0.1-0.6,0.2-1,0.2c-0.9,0-1.5-0.6-1.5-1.7c0-1,0.6-1.7,1.5-1.7
		c0.5,0,0.8,0.1,1,0.2l0.2-1c-0.3-0.1-0.8-0.3-1.2-0.3c-1.8,0-2.8,1.2-2.8,2.8c0,1.6,1,2.7,2.6,2.7c0.6,0,1.2-0.2,1.4-0.3
		L240.4,126.6L240.4,126.6z M241.5,127.7h1.3v-3.2c0-0.2,0-0.3,0.1-0.4c0.1-0.4,0.5-0.8,1-0.8c0.7,0,1,0.6,1,1.4v3h1.3v-3.1
		c0-1.7-0.9-2.3-1.8-2.3c-0.3,0-0.6,0.1-0.9,0.2c-0.3,0.1-0.5,0.4-0.6,0.6h0V120h-1.3V127.7L241.5,127.7z M248.7,127.7v-5.3h-1.3
		v5.3H248.7L248.7,127.7z M248,120.2c-0.4,0-0.7,0.3-0.7,0.7c0,0.4,0.3,0.7,0.7,0.7c0.4,0,0.7-0.3,0.7-0.7
		C248.7,120.5,248.5,120.2,248,120.2L248,120.2z M250.2,121.5v1h-0.7v1h0.7v2.5c0,0.7,0.1,1.2,0.4,1.5c0.2,0.3,0.6,0.4,1.1,0.4
		c0.4,0,0.7-0.1,0.9-0.1l0-1c-0.1,0-0.3,0.1-0.5,0.1c-0.5,0-0.7-0.3-0.7-1v-2.3h1.2v-1h-1.2v-1.4L250.2,121.5L250.2,121.5z
		 M257.9,125.5c0-0.1,0-0.3,0-0.6c0-1.2-0.5-2.6-2.2-2.6c-1.6,0-2.5,1.4-2.5,2.9c0,1.6,1,2.7,2.6,2.7c0.7,0,1.3-0.2,1.8-0.3
		l-0.2-0.9c-0.4,0.2-0.8,0.2-1.4,0.2c-0.8,0-1.5-0.4-1.6-1.4H257.9L257.9,125.5z M254.5,124.5c0.1-0.5,0.4-1.3,1.2-1.3
		c0.9,0,1.1,0.8,1,1.3H254.5L254.5,124.5z M262.4,126.6c-0.2,0.1-0.6,0.2-1,0.2c-0.9,0-1.5-0.6-1.5-1.7c0-1,0.6-1.7,1.5-1.7
		c0.5,0,0.8,0.1,1,0.2l0.2-1c-0.3-0.1-0.8-0.3-1.2-0.3c-1.8,0-2.8,1.2-2.8,2.8c0,1.6,1,2.7,2.6,2.7c0.6,0,1.2-0.2,1.4-0.3
		L262.4,126.6L262.4,126.6z M264.1,121.5v1h-0.7v1h0.7v2.5c0,0.7,0.1,1.2,0.4,1.5c0.2,0.3,0.6,0.4,1.1,0.4c0.4,0,0.7-0.1,0.9-0.1
		l0-1c-0.1,0-0.3,0.1-0.5,0.1c-0.5,0-0.7-0.3-0.7-1v-2.3h1.2v-1h-1.2v-1.4L264.1,121.5L264.1,121.5z M271.9,122.4h-1.3v3.2
		c0,0.2,0,0.3-0.1,0.4c-0.1,0.3-0.5,0.7-1,0.7c-0.7,0-0.9-0.6-0.9-1.4v-2.9h-1.3v3.1c0,1.7,0.8,2.3,1.8,2.3c0.9,0,1.4-0.5,1.6-0.9h0
		l0.1,0.8h1.1c0-0.4,0-1,0-1.6V122.4L271.9,122.4z M273.3,127.7h1.3V125c0-0.2,0-0.3,0-0.4c0.1-0.6,0.5-1,1.1-1c0.2,0,0.3,0,0.4,0
		v-1.3c-0.1,0-0.2,0-0.3,0c-0.5,0-1.1,0.4-1.4,1.1h0l0-1h-1.1c0,0.5,0,1,0,1.7V127.7L273.3,127.7z M281.2,125.5c0-0.1,0-0.3,0-0.6
		c0-1.2-0.5-2.6-2.2-2.6c-1.6,0-2.5,1.4-2.5,2.9c0,1.6,1,2.7,2.6,2.7c0.7,0,1.3-0.2,1.8-0.3l-0.2-0.9c-0.4,0.2-0.8,0.2-1.4,0.2
		c-0.8,0-1.5-0.4-1.6-1.4H281.2L281.2,125.5z M277.8,124.5c0.1-0.5,0.4-1.3,1.2-1.3c0.9,0,1.1,0.8,1,1.3H277.8L277.8,124.5z"/>
</g>
<g>
	<path class="st5" d="M387,28.2c0,2.6-2.1,4.7-4.8,4.7c-2.7,0-4.8-2.1-4.8-4.7c0-2.6,2.1-4.6,4.8-4.6C384.9,23.5,387,25.6,387,28.2z
		 M378.6,28.2c0,2.1,1.6,3.7,3.6,3.7c2,0,3.5-1.6,3.5-3.7c0-2.1-1.5-3.7-3.6-3.7C380.2,24.5,378.6,26.1,378.6,28.2z M381.5,30.6
		h-1.1v-4.6c0.4-0.1,1-0.1,1.8-0.1c0.9,0,1.3,0.1,1.6,0.4c0.3,0.2,0.5,0.5,0.5,1c0,0.6-0.4,0.9-1,1.1v0.1c0.5,0.1,0.7,0.5,0.8,1.1
		c0.1,0.7,0.3,1,0.3,1.1h-1.1c-0.1-0.2-0.2-0.6-0.4-1.1c-0.1-0.5-0.4-0.7-1-0.7h-0.5V30.6z M381.5,28h0.5c0.6,0,1.1-0.2,1.1-0.7
		c0-0.4-0.3-0.7-1-0.7c-0.3,0-0.5,0-0.6,0.1V28z"/>
</g>
<g>
	<path class="st7" d="M141.6,185.8h5v18.6h8.2v4.1h-13.2V185.8z"/>
	<path class="st7" d="M162.8,185.8v22.7h-5v-22.7H162.8z"/>
	<path class="st7" d="M182.5,207.9c-0.9,0.4-2.8,0.8-5.2,0.8c-7.4,0-11.1-4.9-11.1-11.3c0-8,5.4-12,11.6-12c2.4,0,4.2,0.4,4.9,0.9
		l-1,4c-0.9-0.4-2.1-0.7-3.7-0.7c-3.6,0-6.6,2.4-6.6,7.6c0,4.8,2.5,7.4,6.6,7.4c1.3,0,2.8-0.2,3.7-0.6L182.5,207.9z"/>
	<path class="st7" d="M198.2,198.8h-7.6v5.6h8.5v4.1h-13.5v-22.7h13v4.1h-8v4.9h7.6V198.8z"/>
	<path class="st7" d="M202.5,208.5v-22.7h5.5l4.4,8.5c1.2,2.2,2.5,5.1,3.4,7.4h0.1c-0.3-2.8-0.4-6.1-0.4-9.8v-6.1h4.5v22.7H215
		l-4.5-8.7c-1.2-2.3-2.6-5.2-3.5-7.6h-0.1c0.2,2.8,0.2,6.1,0.2,10.1v6.3H202.5z"/>
	<path class="st7" d="M224.4,203.4c1.2,0.6,3.2,1.2,5.2,1.2c2.3,0,3.5-1,3.5-2.5s-1.1-2.3-3.6-3.3c-3.7-1.5-5.8-3.7-5.8-6.6
		c0-3.8,3.1-6.8,8.3-6.8c2.3,0,4.1,0.5,5.2,1l-1,4c-0.8-0.4-2.3-1-4.3-1c-2.2,0-3.2,1.1-3.2,2.2c0,1.4,1.1,2.1,4,3.3
		c3.8,1.6,5.4,3.8,5.4,6.7c0,3.9-3,7-8.8,7c-2.4,0-4.8-0.6-5.9-1.2L224.4,203.4z"/>
	<path class="st7" d="M254.1,198.8h-7.6v5.6h8.5v4.1h-13.5v-22.7h13v4.1h-8v4.9h7.6V198.8z"/>
	<path class="st7" d="M258.4,186.1c1.7-0.3,4-0.5,6.3-0.5c4,0,6.6,0.8,8.6,2.3c2.3,1.8,3.6,4.6,3.6,8.7c0,4.4-1.5,7.5-3.6,9.3
		c-2.2,1.8-5.5,2.7-9.6,2.7c-2.3,0-4.1-0.2-5.3-0.3V186.1z M263.4,204.7c0.4,0.1,1,0.1,1.5,0.1c4,0,6.7-2.4,6.7-8.1
		c0-4.7-2.3-7.3-6.3-7.3c-0.9,0-1.5,0.1-1.9,0.2V204.7z"/>
	<path class="st7" d="M290.6,190H285v-4.2h16.3v4.2h-5.7v18.5h-5V190z"/>
	<path class="st7" d="M303.9,186.1c1.6-0.3,3.9-0.5,6.4-0.5c3.1,0,5.5,0.5,7.1,1.8c1.4,1.1,2.1,2.7,2.1,4.8c0,2.7-1.8,4.8-4,5.6v0.1
		c1.6,0.6,2.5,2.1,3,4.3c0.6,2.6,1.3,5.5,1.8,6.3h-5.2c-0.3-0.6-0.9-2.6-1.5-5.3c-0.5-2.8-1.5-3.6-3.4-3.6h-1.3v9h-5V186.1z
		 M308.9,195.9h1.7c2.4,0,3.8-1.4,3.8-3.4c0-2-1.2-3.2-3.5-3.2c-1,0-1.6,0.1-2,0.1V195.9z"/>
	<path class="st7" d="M327.9,202.9l-1.4,5.6h-5.1l6.4-22.7h6.4l6.4,22.7h-5.3l-1.5-5.6H327.9z M333.1,199.1l-1.2-4.8
		c-0.3-1.3-0.7-3.2-1.1-4.6h-0.1c-0.3,1.4-0.7,3.3-1,4.6l-1.2,4.8H333.1z"/>
	<path class="st7" d="M348.6,185.8v22.7h-5v-22.7H348.6z"/>
	<path class="st7" d="M353,208.5v-22.7h5.5l4.4,8.5c1.2,2.2,2.5,5.1,3.4,7.4h0.1c-0.3-2.8-0.4-6.1-0.4-9.8v-6.1h4.5v22.7h-5.1
		l-4.5-8.7c-1.2-2.3-2.6-5.2-3.5-7.6h-0.1c0.2,2.8,0.2,6.1,0.2,10.1v6.3H353z"/>
	<path class="st7" d="M379.9,185.8v22.7h-5v-22.7H379.9z"/>
	<path class="st7" d="M384.3,208.5v-22.7h5.5l4.4,8.5c1.2,2.2,2.5,5.1,3.4,7.4h0.1c-0.3-2.8-0.4-6.1-0.4-9.8v-6.1h4.5v22.7h-5.1
		l-4.5-8.7c-1.2-2.3-2.6-5.2-3.5-7.6h-0.1c0.2,2.8,0.2,6.1,0.2,10.1v6.3H384.3z"/>
	<path class="st7" d="M423.6,207.6c-1.4,0.5-4.2,1.1-6.8,1.1c-3.8,0-6.5-1-8.5-2.8c-2.1-2-3.2-5-3.2-8.5c0-7.8,5.4-11.8,12.2-11.8
		c2.6,0,4.6,0.5,5.6,1l-1,4c-1.1-0.5-2.4-0.8-4.6-0.8c-4,0-7,2.3-7,7.5c0,4.9,2.7,7.4,6.4,7.4c0.9,0,1.7-0.1,2.1-0.3v-5h-3.1v-3.9
		h7.9V207.6z"/>
</g>
</svg>
