<svg id="Layer_1" data-name="Layer 1" xmlns="http://www.w3.org/2000/svg" xmlns:xlink="http://www.w3.org/1999/xlink" viewBox="0 0 90 120"><defs><style>.cls-1{fill:none;}.cls-2,.cls-6{fill:#fff;}.cls-3{clip-path:url(#clip-path);}.cls-4{fill:#feca14;}.cls-5{fill:url(#linear-gradient);}.cls-6{fill-opacity:0.5;}.cls-7{fill:#102b69;}</style><clipPath id="clip-path"><rect class="cls-1" x="5" y="35" width="80" height="54"/></clipPath><linearGradient id="linear-gradient" y1="122" x2="80" y2="68" gradientTransform="matrix(1, 0, 0, -1, 5, 157)" gradientUnits="userSpaceOnUse"><stop offset="0" stop-color="#fff" stop-opacity="0"/><stop offset="0.51" stop-color="#fff" stop-opacity="0.45"/><stop offset="1" stop-color="#fff" stop-opacity="0"/></linearGradient></defs><rect class="cls-2" width="90" height="120"/><g class="cls-3"><rect class="cls-4" x="5" y="35" width="80" height="54"/><rect class="cls-5" x="5" y="35" width="80" height="54"/><path class="cls-6" d="M-9.13,68.29A17,17,0,0,0,3.94,70a17.22,17.22,0,0,0,10.47-8L26.08,41.75a5.36,5.36,0,0,1,7.28-1.94A5.28,5.28,0,0,1,35.3,47L23.64,67.29a16.84,16.84,0,0,0-1.71,13A17.26,17.26,0,0,0,53.47,84.4L65.14,64.16a5.36,5.36,0,0,1,7.28-1.95,5.29,5.29,0,0,1,1.94,7.24L62.7,89.7a16.82,16.82,0,0,0-1.71,13,17.22,17.22,0,0,0,31.51,4.1l9.31-16a5.88,5.88,0,0,0-2.17-8.08,6,6,0,0,0-8.13,2.17l-9.32,16a5.36,5.36,0,0,1-7.28,1.94A5.29,5.29,0,0,1,73,95.58L84.63,75.34a17.1,17.1,0,0,0-19.34-25,17.16,17.16,0,0,0-10.48,8L43.15,78.53a5.37,5.37,0,0,1-7.28,2,5.3,5.3,0,0,1-1.95-7.24L45.58,53a17.12,17.12,0,0,0-6.29-23.4,17.28,17.28,0,0,0-23.5,6.31L4.13,56.15a5.38,5.38,0,0,1-7.29,1.94A5.29,5.29,0,0,1-5.1,50.86L4.24,34.79A5.91,5.91,0,0,0,2.07,26.7a6,6,0,0,0-8.14,2.18l-9.31,16a16.77,16.77,0,0,0-1.71,13A16.71,16.71,0,0,0-9.13,68.29Z"/></g><rect class="cls-7" x="5.25" y="92.25" width="79.5" height="22.5"/><rect class="cls-7" x="38" y="5" width="47" height="11"/><path class="cls-2" d="M56.5,14.5V13H50.91a.92.92,0,0,1,.64-.75,15,15,0,0,1,1.76-.56,11,11,0,0,0,1.74-.58,2.9,2.9,0,0,0,1.13-.8,1.73,1.73,0,0,0,.3-.57,2.19,2.19,0,0,0,.1-.7,2.4,2.4,0,0,0-.36-1.3,2.33,2.33,0,0,0-1.14-.89,3.48,3.48,0,0,0-.89-.24,6.27,6.27,0,0,0-1.12-.09,4.54,4.54,0,0,0-3,.82,2.72,2.72,0,0,0-1,2.25v.12h1.73v-.1a1.42,1.42,0,0,1,.55-1.23,2.71,2.71,0,0,1,1.65-.42,2.51,2.51,0,0,1,1.37.29.9.9,0,0,1,.43.82.82.82,0,0,1-.29.64,2.68,2.68,0,0,1-.85.43,6.1,6.1,0,0,1-.6.19l-.69.18c-.46.11-.9.24-1.31.38a5.39,5.39,0,0,0-1.08.51,2.45,2.45,0,0,0-.74.8A2.29,2.29,0,0,0,49,13.32V14.5Zm5.08.2a5.11,5.11,0,0,0,2.16-.43A3.33,3.33,0,0,0,65.58,12a5.06,5.06,0,0,0,.14-1.2v-.32a4.15,4.15,0,0,0-.54-2.18,3.35,3.35,0,0,0-1.47-1.34,4.36,4.36,0,0,0-1-.34,5.09,5.09,0,0,0-1.13-.12A4.83,4.83,0,0,0,59.42,7,3.43,3.43,0,0,0,58,8.31a3.64,3.64,0,0,0-.38,1,4.82,4.82,0,0,0-.13,1.17v.3A4.41,4.41,0,0,0,58,13a3.22,3.22,0,0,0,1.43,1.3,4.57,4.57,0,0,0,1,.31A6.31,6.31,0,0,0,61.58,14.7Zm0-1.53a2.38,2.38,0,0,1-1.76-.61,2.48,2.48,0,0,1-.6-1.82v-.22a2.61,2.61,0,0,1,.6-1.89A2.35,2.35,0,0,1,61.58,8a2.42,2.42,0,0,1,1.76.6A2.63,2.63,0,0,1,64,10.53v.22a2.4,2.4,0,0,1-.63,1.86A2.52,2.52,0,0,1,61.58,13.17ZM74,14.5V13H68.4a.92.92,0,0,1,.64-.75,14.42,14.42,0,0,1,1.76-.56,11,11,0,0,0,1.74-.58,2.9,2.9,0,0,0,1.13-.8A1.94,1.94,0,0,0,74,9.7a2.19,2.19,0,0,0,.1-.7,2.4,2.4,0,0,0-.36-1.3,2.33,2.33,0,0,0-1.14-.89,3.48,3.48,0,0,0-.89-.24,6.27,6.27,0,0,0-1.12-.09,4.54,4.54,0,0,0-3,.82,2.72,2.72,0,0,0-1,2.25v.12h1.73v-.1a1.42,1.42,0,0,1,.55-1.23,2.67,2.67,0,0,1,1.65-.42,2.51,2.51,0,0,1,1.37.29.9.9,0,0,1,.43.82.8.8,0,0,1-.3.64,2.62,2.62,0,0,1-.84.43l-.6.19-.69.18c-.46.11-.9.24-1.31.38a5.39,5.39,0,0,0-1.08.51,2.45,2.45,0,0,0-.74.8,2.29,2.29,0,0,0-.27,1.16V14.5Zm8.51,0V13H76.91a.91.91,0,0,1,.64-.75,13.86,13.86,0,0,1,1.76-.56,11.79,11.79,0,0,0,1.74-.58,2.9,2.9,0,0,0,1.13-.8,1.94,1.94,0,0,0,.3-.57,2.52,2.52,0,0,0,.1-.7,2.41,2.41,0,0,0-.37-1.3,2.25,2.25,0,0,0-1.13-.89,3.6,3.6,0,0,0-.89-.24,6.35,6.35,0,0,0-1.12-.09,4.53,4.53,0,0,0-3,.82,2.72,2.72,0,0,0-1,2.25v.12h1.72v-.1a1.44,1.44,0,0,1,.55-1.23A2.71,2.71,0,0,1,79,7.92a2.55,2.55,0,0,1,1.38.29.9.9,0,0,1,.43.82.8.8,0,0,1-.3.64,2.68,2.68,0,0,1-.85.43c-.18.07-.38.13-.59.19l-.69.18c-.46.11-.9.24-1.31.38a5.39,5.39,0,0,0-1.08.51,2.6,2.6,0,0,0-.75.8A2.4,2.4,0,0,0,75,13.32V14.5Z"/><path d="M14.7,7.58V5H5.6V7.58h3v7h3.08v-7Z"/><path d="M19.18,14.82a5.56,5.56,0,0,0,3.64-1.05,3.64,3.64,0,0,0,1.27-2.93v-.11a4,4,0,0,0-.59-2.2,3.68,3.68,0,0,0-1.69-1.4,5,5,0,0,0-1.21-.38,7.61,7.61,0,0,0-1.4-.12,6.33,6.33,0,0,0-2.59.5,3.92,3.92,0,0,0-1.72,1.4,3.82,3.82,0,0,0-.44,1,4.08,4.08,0,0,0-.16,1.19v.11a3.72,3.72,0,0,0,1.18,2.94A5.46,5.46,0,0,0,19.18,14.82Zm0-2.34a2.06,2.06,0,0,1-1.37-.41,1.62,1.62,0,0,1-.46-1.25v-.09a1.77,1.77,0,0,1,.47-1.33A2,2,0,0,1,19.2,9a1.92,1.92,0,0,1,1.38.44A1.8,1.8,0,0,1,21,10.73v.09a1.62,1.62,0,0,1-.46,1.25A2.06,2.06,0,0,1,19.19,12.48Z"/><path d="M30,12.48a2,2,0,0,1-1.38-.41,1.71,1.71,0,0,1-.44-1.26v-.07a1.69,1.69,0,0,1,.49-1.32A1.81,1.81,0,0,1,30,9a1.91,1.91,0,0,1,1.36.45,1.8,1.8,0,0,1,.47,1.35v.07a1.59,1.59,0,0,1-.46,1.25A2,2,0,0,1,30,12.48ZM31,14.76a4.08,4.08,0,0,0,1.91-.45A3.27,3.27,0,0,0,34.33,13a3.44,3.44,0,0,0,.38-1,5,5,0,0,0,.14-1.19v-.1a4.08,4.08,0,0,0-1.05-3,3.73,3.73,0,0,0-2.76-1,4,4,0,0,0-1.87.41A2.82,2.82,0,0,0,28,8.23l-.24-1.4H25.22V17.27h3V13.4a2.68,2.68,0,0,0,1,1A3.89,3.89,0,0,0,31,14.76Z"/><path d="M10.37,29a6.32,6.32,0,0,0,4-1.11,4.43,4.43,0,0,0,1.59-3.35v-.09H12.59v.07a2,2,0,0,1-.6,1.31,2.23,2.23,0,0,1-1.54.46,2.27,2.27,0,0,1-1.68-.58,2.37,2.37,0,0,1-.58-1.74v-.36a2.41,2.41,0,0,1,.6-1.8,2.28,2.28,0,0,1,1.71-.6,2.16,2.16,0,0,1,1.48.45,1.74,1.74,0,0,1,.59,1.21v.07h3.32v-.12a4.56,4.56,0,0,0-.83-2.4A4.22,4.22,0,0,0,13.2,19a6.12,6.12,0,0,0-1.26-.33,7.35,7.35,0,0,0-1.44-.13,6.57,6.57,0,0,0-2.89.59,4.27,4.27,0,0,0-1.92,1.69A4.4,4.4,0,0,0,5.17,22,6.44,6.44,0,0,0,5,23.52V24a4.62,4.62,0,0,0,1.41,3.74A6,6,0,0,0,10.37,29Z"/><path d="M21.67,29a5.5,5.5,0,0,0,3.68-1.1,3.83,3.83,0,0,0,1.28-3.05v-.11A4.26,4.26,0,0,0,26,22.4a3.78,3.78,0,0,0-1.71-1.46,4.59,4.59,0,0,0-1.22-.39,6.9,6.9,0,0,0-1.41-.13,6,6,0,0,0-2.61.52,3.86,3.86,0,0,0-1.74,1.46,3.79,3.79,0,0,0-.45,1.05,4.43,4.43,0,0,0-.16,1.24v.11a3.93,3.93,0,0,0,1.19,3.06A5.39,5.39,0,0,0,21.67,29Zm0-2.44a2,2,0,0,1-1.39-.43,1.72,1.72,0,0,1-.46-1.3v-.09a1.81,1.81,0,0,1,.48-1.38,1.9,1.9,0,0,1,1.38-.48,1.92,1.92,0,0,1,1.39.46,1.89,1.89,0,0,1,.46,1.4v.09a1.69,1.69,0,0,1-.46,1.3A2,2,0,0,1,21.69,26.51Z"/><path d="M30.84,25a3,3,0,0,1,.31-1.49,1.15,1.15,0,0,1,1.1-.56,1.33,1.33,0,0,1,.84.23,1.22,1.22,0,0,1,.38.65,2,2,0,0,1,.07.44,4.07,4.07,0,0,1,0,.5v3.93h3V24.92a3.06,3.06,0,0,1,.29-1.42,1.36,1.36,0,0,1,2.15,0,3.12,3.12,0,0,1,.26,1.37v3.87h3.06V23.93a3.88,3.88,0,0,0-.78-2.56,2.88,2.88,0,0,0-2.36-.93,3.23,3.23,0,0,0-1.81.48,2.92,2.92,0,0,0-1.09,1.29,2.51,2.51,0,0,0-1-1.31,3.13,3.13,0,0,0-1.82-.48,3.18,3.18,0,0,0-1.8.49,3,3,0,0,0-1.06,1.25l-.27-1.53h-2.6v8.08h3.07Z"/><path d="M48.49,26.51a2,2,0,0,1-1.39-.43,1.76,1.76,0,0,1-.45-1.31V24.7a1.86,1.86,0,1,1,3.7,0v.07a1.69,1.69,0,0,1-.46,1.3A2,2,0,0,1,48.49,26.51Zm1.06,2.37a4,4,0,0,0,1.93-.46,3.4,3.4,0,0,0,1.42-1.37,3.92,3.92,0,0,0,.38-1,5.41,5.41,0,0,0,.14-1.24v-.1a4.3,4.3,0,0,0-1.06-3.16,3.68,3.68,0,0,0-2.78-1.09,3.84,3.84,0,0,0-1.9.43,2.94,2.94,0,0,0-1.17,1.2l-.24-1.45H43.7V31.5h3v-4a2.67,2.67,0,0,0,1.05,1A3.77,3.77,0,0,0,49.55,28.88Z"/><path d="M58.4,27a1.52,1.52,0,0,1-.76-.15.54.54,0,0,1-.26-.48.59.59,0,0,1,.09-.32.73.73,0,0,1,.27-.25,2.17,2.17,0,0,1,.53-.18c.23-.05.57-.11,1-.17a6.33,6.33,0,0,0,.89-.16,1.65,1.65,0,0,0,.55-.27v.24a1.35,1.35,0,0,1-.31.85,2.35,2.35,0,0,1-.85.64,2.38,2.38,0,0,1-.55.19A3.11,3.11,0,0,1,58.4,27Zm2.73,1.74H63.7V23.78a3,3,0,0,0-1.07-2.54,5.77,5.77,0,0,0-3.41-.8,6.33,6.33,0,0,0-3.45.8,3,3,0,0,0-1.37,2.33h3.14a.93.93,0,0,1,.42-.76,2.49,2.49,0,0,1,1.36-.28,2,2,0,0,1,1.1.21.6.6,0,0,1,.3.52.39.39,0,0,1-.19.35,1.52,1.52,0,0,1-.63.21l-.57.09L58.6,24c-.6.05-1.09.11-1.47.17a5.31,5.31,0,0,0-1,.21,2.86,2.86,0,0,0-.41.15,3,3,0,0,0-.37.17,2.17,2.17,0,0,0-.9.82,2.31,2.31,0,0,0-.3,1.21h0a2,2,0,0,0,.75,1.65,3.75,3.75,0,0,0,2.28.57,4.71,4.71,0,0,0,2.31-.5,3.33,3.33,0,0,0,1.32-1.28Z"/><path d="M68.19,24.94a2.48,2.48,0,0,1,.37-1.48,1.45,1.45,0,0,1,1.23-.5,1.25,1.25,0,0,1,1.14.46,2.32,2.32,0,0,1,.32,1.32v4h3.08V23.88a3.64,3.64,0,0,0-.85-2.54A3.21,3.21,0,0,0,71,20.42a3.26,3.26,0,0,0-1.91.52A3,3,0,0,0,68,22.26l-.28-1.63H65.1v8.08h3.09Z"/><path d="M76.75,32a9,9,0,0,0,1.51-.11,2.82,2.82,0,0,0,1-.42,3.32,3.32,0,0,0,.83-.9A14.14,14.14,0,0,0,81,29l4-8.36H81.85l-2,4.53,0,.14,0-.15-2-4.52H74.5l3.73,7.68-.1.22a2.14,2.14,0,0,1-.39.61,1,1,0,0,1-.5.31,1.21,1.21,0,0,1-.36.07,3.23,3.23,0,0,1-.46,0H75.19V32Z"/><path class="cls-2" d="M24.34,105.51a3.36,3.36,0,0,0-.82-2.25A3.38,3.38,0,0,0,24.4,101v-.59h0a.38.38,0,0,0-.32-.22H22.36a.3.3,0,0,0-.28.25l0,.56a1.11,1.11,0,0,1-1.12,1.09h-.6a4.6,4.6,0,0,0-1.16.18V97.36a.3.3,0,0,0-.28-.28H17.16a.32.32,0,0,0-.29.28V107.8a.32.32,0,0,0,.29.28h1.72a.3.3,0,0,0,.28-.28v-2.32h0a1.13,1.13,0,0,1,1.12-1.13h.6a1.12,1.12,0,0,1,1.13,1.1V106h0v1.76a.3.3,0,0,0,.28.28H24a.28.28,0,0,0,.28-.28h0l0-1.76Z"/><path class="cls-2" d="M33,102.38a.3.3,0,0,0-.28-.28H31a.3.3,0,0,0-.28.28v4.22a1.17,1.17,0,0,1-1.16,1.13H29a1.11,1.11,0,0,1-1.12-1.1v-4.25a.3.3,0,0,0-.29-.28H25.87a.3.3,0,0,0-.28.28v4.22A3.42,3.42,0,0,0,29,110h.59a3.43,3.43,0,0,0,3.45-3.38Z"/><path class="cls-2" d="M34.2,107.9a.3.3,0,0,0,.28.28H36.2a.3.3,0,0,0,.29-.28v-4.22a1.14,1.14,0,0,1,1.16-1.09h.59a1.11,1.11,0,0,1,1.13,1.09h0v4.22a.3.3,0,0,0,.28.28h1.72a.3.3,0,0,0,.28-.28v-4.22a3.41,3.41,0,0,0-3.44-3.37h-.6a3.41,3.41,0,0,0-3.44,3.37v4.22Z"/><path class="cls-2" d="M50.37,102.38a.3.3,0,0,0-.28-.28H48.36a.3.3,0,0,0-.28.28v4.22a1.17,1.17,0,0,1-1.16,1.13h-.59a1.12,1.12,0,0,1-1.13-1.1v-4.25a.3.3,0,0,0-.28-.28H43.2a.3.3,0,0,0-.28.28v4.22A3.42,3.42,0,0,0,46.36,110H47a3.42,3.42,0,0,0,3.44-3.38Z"/><path class="cls-2" d="M67.73,102.38a.3.3,0,0,0-.28-.28H65.73a.3.3,0,0,0-.28.28v4.22a1.18,1.18,0,0,1-1.16,1.13h-.6a1.12,1.12,0,0,1-1.13-1.1v-4.25a.3.3,0,0,0-.28-.28H60.56a.3.3,0,0,0-.28.28v4.22A3.42,3.42,0,0,0,63.72,110h.6a3.42,3.42,0,0,0,3.44-3.38Z"/><path class="cls-2" d="M51.53,107.83a.3.3,0,0,0,.28.28h1.72a.3.3,0,0,0,.28-.28v-4.22A1.17,1.17,0,0,1,55,102.49h.6a1.1,1.1,0,0,1,1.12,1.1v4.24a.3.3,0,0,0,.29.28H58.7a.3.3,0,0,0,.28-.28v-4.22a3.41,3.41,0,0,0-3.45-3.37h-.59a3.41,3.41,0,0,0-3.45,3.37Z"/><path class="cls-2" d="M69.24,97.74a.33.33,0,0,0-.42,0l-.11.11a.33.33,0,0,0,0,.42l.71.67a.22.22,0,0,1,0,.31h0l-.07.07a.26.26,0,0,1-.34,0l0,0-.7-.67a.89.89,0,0,1,0-1.26h0l.11-.1a.94.94,0,0,1,1.3,0l.63.63,0,0a.2.2,0,0,1,0,.27l0,0-.07.14a.24.24,0,0,1-.34,0l0,0Z"/><path class="cls-2" d="M72.4,98.27a.31.31,0,0,0,0-.42l-.1-.11a.33.33,0,0,0-.42,0l-.71.67a.26.26,0,0,1-.35,0l-.07-.07a.19.19,0,0,1,0-.27l0,0,.7-.67a1,1,0,0,1,1.31,0l.1.1a.9.9,0,0,1,0,1.26h0l-.63.63,0,0a.25.25,0,0,1-.33,0l0,0-.07-.07a.2.2,0,0,1,0-.28l0,0Z"/><path class="cls-2" d="M68.71,100.84a.33.33,0,0,0,0,.42l.11.1a.31.31,0,0,0,.42,0l.7-.66a.27.27,0,0,1,.36,0l.07.07a.2.2,0,0,1,0,.27l0,0-.71.67a.94.94,0,0,1-1.3,0l-.1-.1a.91.91,0,0,1,0-1.27h0l.63-.63,0,0a.26.26,0,0,1,.34,0l0,0,.07.07a.22.22,0,0,1,0,.28l0,0Z"/><path class="cls-2" d="M71.84,101.33a.31.31,0,0,0,.42,0l.11-.11a.33.33,0,0,0,0-.42l-.7-.67a.22.22,0,0,1,0-.31h0l.07-.07a.23.23,0,0,1,.33,0l0,0,.7.67a.89.89,0,0,1,0,1.26h0l-.11.11a.94.94,0,0,1-1.3,0l-.63-.64,0,0a.2.2,0,0,1,0-.28l0,0,.07-.07a.24.24,0,0,1,.33,0l0,0Z"/></svg>