<?xml version="1.0" encoding="UTF-8"?><svg id="ohne_Rahmen" xmlns="http://www.w3.org/2000/svg" xmlns:xlink="http://www.w3.org/1999/xlink" viewBox="0 0 600 791"><defs><style>.cls-1{fill:none;}.cls-2{fill:url(#linear-gradient);}.cls-3{clip-path:url(#clippath);}.cls-4{fill:#f4cbd3;}.cls-5,.cls-6{fill:#fff;}.cls-7{fill:#102b69;}.cls-6{opacity:.5;}</style><clipPath id="clippath"><path class="cls-1" d="m456.21,746.09c-54.06-31.21-72.58-100.34-41.37-154.4h0l.06-.11,77.36-133.02c9.67-16.78,3.91-38.23-12.87-47.91-16.78-9.67-38.23-3.91-47.91,12.87h0l-.06.11-77.37,133.04c-31.23,54.05-100.36,72.55-154.41,41.32-54.05-31.23-72.55-100.36-41.32-154.41l.06-.11,77.36-133.02c9.67-16.78,3.91-38.23-12.88-47.91-16.78-9.67-38.23-3.91-47.91,12.88h0l-.06.11-77.37,133.04c-31.26,54.03-100.4,72.5-154.43,41.24-25.91-14.99-44.81-39.64-52.57-68.55-7.85-28.95-3.79-59.84,11.27-85.78l60.9-105.49c10.54-18.26,33.7-25.25,52.3-15.33,19.55,10.42,26.43,34.87,15.44,53.89l-60.93,105.53c-9.49,16.43-4.52,37.63,11.58,47.66,16.92,10.55,39.07,4.91,48.96-12.21l.06-.11,77.37-133.04c31.23-54.05,100.36-72.55,154.41-41.32,54.05,31.23,72.55,100.36,41.32,154.41h0l-.06.11-77.36,133.02c-9.67,16.78-3.91,38.23,12.87,47.91,16.78,9.67,38.23,3.91,47.91-12.87h0l.06-.11,77.37-133.04c31.23-54.05,100.36-72.55,154.41-41.32,54.05,31.23,72.55,100.36,41.32,154.41h0l-.06.11-77.36,133.02c-9.67,16.78-3.91,38.23,12.88,47.91,16.78,9.67,38.23,3.91,47.91-12.88l60.89-105.47c10.54-18.26,33.7-25.25,52.3-15.33,19.55,10.42,26.43,34.87,15.44,53.89l-61.13,105.88c-31.21,54.06-100.34,72.58-154.4,41.37h0Z"/></clipPath><linearGradient id="linear-gradient" x1="30.9" y1="596.29" x2="558.23" y2="240.34" gradientTransform="translate(5 827) scale(1 -1)" gradientUnits="userSpaceOnUse"><stop offset="0" stop-color="#fff" stop-opacity="0"/><stop offset=".51" stop-color="#fff" stop-opacity=".45"/><stop offset="1" stop-color="#fff" stop-opacity="0"/></linearGradient></defs><rect class="cls-5" x="2.94" y="0" width="593.25" height="791"/><rect id="Balken_2" class="cls-7" x="37.55" y="608.04" width="524.04" height="148.31"/><g id="Logo"><path class="cls-5" d="m236.63,672.67h-11.35c-1.03,0-1.87.84-1.87,1.87v11.76h0v16.43c0,4.01-3.25,7.27-7.27,7.27h-4.26c-3.95,0-7.17-3.16-7.27-7.08v-28.38c0-1.03-.84-1.87-1.87-1.87h-11.36c-1.03,0-1.87.84-1.87,1.87v30.14c0,.14,0,.27,0,.41,0,.08,0,.17,0,.26.07,5.34,2.48,10.17,6.33,13.68,2.42,2.21,5.41,3.89,8.76,4.85,2.06.6,4.26.92,6.54.92h5.72c2.28,0,4.49-.32,6.55-.92,8.75-2.53,15.09-9.98,15.09-18.79v-30.55c0-1.03-.84-1.87-1.87-1.87Z"/><path class="cls-5" d="m351.03,672.67h-11.35c-1.03,0-1.87.84-1.87,1.87v11.76h0v16.43c0,4.01-3.25,7.27-7.27,7.27h-4.26c-3.95,0-7.17-3.16-7.27-7.08v-28.38c0-1.03-.84-1.87-1.87-1.87h-11.36c-1.03,0-1.87.84-1.87,1.87v30.14c0,.14,0,.27,0,.41,0,.08,0,.17,0,.26.07,5.34,2.48,10.17,6.33,13.68,2.42,2.21,5.41,3.89,8.76,4.85,2.06.6,4.26.92,6.54.92h5.72c2.28,0,4.49-.32,6.55-.92,8.75-2.53,15.09-9.98,15.09-18.79v-30.55c0-1.03-.84-1.87-1.87-1.87Z"/><path class="cls-5" d="m465.42,672.67h-11.35c-1.03,0-1.87.84-1.87,1.87v11.76h0v16.43c0,4.01-3.25,7.27-7.27,7.27h-4.26c-3.95,0-7.17-3.16-7.27-7.08v-28.38c0-1.03-.84-1.87-1.87-1.87h-11.36c-1.03,0-1.87.84-1.87,1.87v30.14c0,.14,0,.27,0,.41,0,.08,0,.17,0,.26.07,5.34,2.48,10.17,6.33,13.68,2.42,2.21,5.41,3.89,8.76,4.85,2.06.6,4.26.92,6.54.92h5.72c2.28,0,4.49-.32,6.55-.92,8.75-2.53,15.09-9.98,15.09-18.79v-30.55c0-1.03-.84-1.87-1.87-1.87Z"/><path class="cls-5" d="m295.09,679.53c-.07-5.34-2.48-10.17-6.33-13.68-2.42-2.21-5.41-3.89-8.76-4.85-2.06-.6-4.26-.92-6.54-.92h-5.72c-2.28,0-4.49.32-6.55.92-8.75,2.53-15.09,9.98-15.09,18.79v30.55c0,1.03.84,1.87,1.87,1.87h11.35c1.03,0,1.87-.84,1.87-1.87v-11.76h0v-16.43c0-4.01,3.25-7.27,7.27-7.27h4.26c3.95,0,7.17,3.16,7.27,7.08v28.38c0,1.03.84,1.87,1.87,1.87h11.36c1.03,0,1.87-.84,1.87-1.87v-30.14c0-.14,0-.27,0-.41,0-.08,0-.17,0-.26Z"/><path class="cls-5" d="m409.48,679.53c-.07-5.34-2.48-10.17-6.33-13.68-2.42-2.21-5.41-3.89-8.76-4.85-2.06-.6-4.26-.92-6.54-.92h-5.72c-2.28,0-4.49.32-6.55.92-8.75,2.53-15.09,9.98-15.09,18.79v30.55c0,1.03.84,1.87,1.87,1.87h11.35c1.03,0,1.87-.84,1.87-1.87v-11.76h0v-16.43c0-4.01,3.25-7.27,7.27-7.27h4.26c3.95,0,7.17,3.16,7.27,7.08v28.38c0,1.03.84,1.87,1.87,1.87h11.36c1.03,0,1.87-.84,1.87-1.87v-30.14c0-.14,0-.27,0-.41,0-.08,0-.17,0-.26Z"/><path class="cls-5" d="m180.84,667.88c0-.14,0-.28,0-.42,0-.02,0-.04,0-.06v-4.58s0-.02,0-.03v-.85s0-.02,0-.03v-.07h0c-.05-.98-.86-1.77-1.85-1.77h-11.37c-1.03,0-1.86.83-1.86,1.86v.85s0,0,0,0v2.72c0,4.01-3.25,7.27-7.27,7.27h-4.99c-2.28,0-4.49.32-6.55.92v-32.25c0-1.03-.84-1.87-1.87-1.87h-11.35c-1.03,0-1.87.84-1.87,1.87v68.88c0,1.03.84,1.87,1.87,1.87h11.35c1.03,0,1.87-.84,1.87-1.87v-15.48h0c0-4.01,3.25-7.27,7.27-7.27h4.26c4.01,0,7.27,3.26,7.27,7.27v15.48c0,.32.08.62.23.88.31.59.93.99,1.65.99h11.35c1.03,0,1.87-.84,1.87-1.87v-17.84c0-4.66-1.78-8.94-4.75-12.31,2.96-3.37,4.75-7.65,4.75-12.31Z"/></g><rect class="cls-4" x="35.9" y="230.71" width="527.33" height="355.95"/><g class="cls-3"><rect class="cls-6" x="35.9" y="230.71" width="527.33" height="355.95"/></g><rect class="cls-2" x="35.9" y="230.71" width="527.33" height="355.95"/><rect id="Balken_1" class="cls-7" x="253.42" y="32.96" width="309.81" height="72.51"/><g id="_2024"><path class="cls-5" d="m326.1,95.51v-7.75c0-3.04.59-5.6,1.77-7.68,1.18-2.07,2.81-3.81,4.89-5.21,2.07-1.35,4.45-2.49,7.13-3.4,2.68-.92,5.54-1.74,8.58-2.46,1.64-.43,3.16-.84,4.56-1.23,1.4-.39,2.7-.8,3.91-1.23,2.41-.82,4.27-1.77,5.58-2.86,1.3-1.09,1.95-2.47,1.95-4.16,0-2.41-.94-4.24-2.82-5.47-1.88-1.23-4.9-1.85-9.05-1.85-4.83,0-8.45.91-10.86,2.72-2.41,1.81-3.62,4.53-3.62,8.15v.65h-11.37v-.8c0-6.37,2.17-11.33,6.52-14.88,4.34-3.55,10.84-5.32,19.48-5.32,2.75,0,5.23.18,7.42.54,2.2.36,4.14.91,5.83,1.63,3.43,1.4,5.93,3.36,7.49,5.87,1.57,2.51,2.35,5.36,2.35,8.54,0,1.69-.22,3.22-.65,4.6-.43,1.38-1.09,2.62-1.95,3.73-1.74,2.13-4.21,3.89-7.42,5.29-3.21,1.4-7.04,2.68-11.48,3.84-5.12,1.35-8.98,2.58-11.59,3.69-2.61,1.11-4.01,2.75-4.2,4.92h36.78v10.14h-49.24Z"/><path class="cls-5" d="m401.05,96.12c-2.41-.46-4.64-1.15-6.66-2.06-4.05-1.88-7.18-4.73-9.38-8.54-2.2-3.81-3.29-8.66-3.29-14.55v-1.95c0-2.8.29-5.39.87-7.78s1.42-4.55,2.53-6.48c2.27-3.91,5.44-6.89,9.52-8.94,4.08-2.05,8.8-3.08,14.16-3.08,2.65,0,5.15.25,7.49.76,2.34.51,4.53,1.27,6.55,2.28,4.1,1.98,7.33,4.92,9.67,8.83,2.34,3.91,3.51,8.69,3.51,14.34v2.1c0,2.85-.29,5.48-.87,7.89s-1.45,4.56-2.61,6.44c-2.27,3.81-5.46,6.67-9.56,8.58-4.1,1.91-8.83,2.86-14.19,2.86-2.75,0-5.33-.23-7.75-.69Zm19.3-13.11c2.73-2.49,4.09-6.55,4.09-12.2v-1.45c0-5.79-1.35-10.02-4.06-12.67-2.7-2.65-6.56-3.98-11.59-3.98s-8.87,1.36-11.55,4.09c-2.68,2.73-4.02,6.89-4.02,12.49v1.45c0,5.36,1.34,9.37,4.02,12.02,2.68,2.66,6.53,3.98,11.55,3.98s8.82-1.24,11.55-3.73Z"/><path class="cls-5" d="m441.24,95.51v-7.75c0-3.04.59-5.6,1.77-7.68,1.18-2.07,2.81-3.81,4.89-5.21,2.07-1.35,4.45-2.49,7.13-3.4,2.68-.92,5.54-1.74,8.58-2.46,1.64-.43,3.16-.84,4.56-1.23,1.4-.39,2.7-.8,3.91-1.23,2.41-.82,4.27-1.77,5.58-2.86,1.3-1.09,1.95-2.47,1.95-4.16,0-2.41-.94-4.24-2.82-5.47-1.88-1.23-4.9-1.85-9.05-1.85-4.83,0-8.45.91-10.86,2.72-2.41,1.81-3.62,4.53-3.62,8.15v.65h-11.37v-.8c0-6.37,2.17-11.33,6.52-14.88,4.34-3.55,10.84-5.32,19.48-5.32,2.75,0,5.23.18,7.42.54,2.2.36,4.14.91,5.83,1.63,3.43,1.4,5.93,3.36,7.49,5.87,1.57,2.51,2.35,5.36,2.35,8.54,0,1.69-.22,3.22-.65,4.6-.43,1.38-1.09,2.62-1.95,3.73-1.74,2.13-4.21,3.89-7.42,5.29-3.21,1.4-7.04,2.68-11.48,3.84-5.12,1.35-8.98,2.58-11.59,3.69-2.61,1.11-4.01,2.75-4.2,4.92h36.78v10.14h-49.24Z"/><path class="cls-5" d="m547.54,83.85h-9.78v11.66h-11.37v-11.66h-32.87v-7.6l34.47-32.37h9.78v30.77h9.78v9.2Zm-21.14-9.2v-17.52l-19.19,17.52h19.19Z"/></g><g id="Top_Company"><path d="m99.81,49.98v-17.03h-59.97v17.03h19.56v46.23h20.3v-46.23h20.11Z"/><path d="m129.34,97.71c10.46,0,18.45-2.32,23.99-6.97,5.6-4.65,8.4-11.09,8.4-19.32v-.71c0-5.65-1.29-10.47-3.87-14.47-2.58-4.06-6.3-7.15-11.16-9.26-2.4-1.12-5.04-1.94-7.94-2.47-2.83-.53-5.9-.79-9.23-.79-6.52,0-12.21,1.09-17.07,3.26-4.86,2.12-8.64,5.2-11.35,9.26-1.29,2-2.28,4.21-2.95,6.62-.68,2.41-1.02,5.03-1.02,7.85v.71c0,8.35,2.58,14.82,7.75,19.41,5.17,4.59,13.32,6.88,24.45,6.88Zm.09-15.44c-3.94,0-6.95-.91-9.04-2.73-2.03-1.88-3.04-4.62-3.04-8.2v-.62c0-3.88,1.05-6.79,3.14-8.73,2.15-2,5.17-3,9.04-3s7.07.97,9.04,2.91c2.03,1.94,3.04,4.88,3.04,8.82v.62c0,3.65-1.01,6.38-3.04,8.2-2.03,1.82-5.07,2.73-9.13,2.73Z"/><path d="m200.46,82.27c-4,0-7.01-.91-9.04-2.73-1.97-1.88-2.95-4.65-2.95-8.29v-.44c0-3.82,1.08-6.73,3.23-8.73,2.15-2.06,5.11-3.09,8.86-3.09s6.86,1,8.95,3c2.09,1.94,3.14,4.91,3.14,8.91v.44c0,3.65-1.01,6.38-3.04,8.2-2.03,1.82-5.07,2.73-9.13,2.73Zm6.92,15c4.61,0,8.83-.97,12.64-2.91,3.88-1.94,6.95-4.82,9.23-8.65,1.11-1.94,1.94-4.09,2.49-6.44.62-2.41.92-5.03.92-7.85v-.62c0-8.82-2.31-15.5-6.92-20.03-4.55-4.59-10.61-6.88-18.18-6.88-4.86,0-8.98.91-12.36,2.73-3.32,1.82-5.87,4.35-7.66,7.59l-1.57-9.17h-16.79v68.81h19.56v-25.5c1.6,2.76,3.88,4.94,6.83,6.53,3.01,1.59,6.95,2.38,11.81,2.38Z"/><path d="m71.29,190.91c11.11,0,19.81-2.45,26.08-7.35,6.27-4.9,9.78-12.24,10.52-22.04v-.64h-21.98v.46c-.37,3.67-1.68,6.55-3.91,8.63-2.17,2.02-5.56,3.03-10.15,3.03-4.84,0-8.54-1.26-11.08-3.77-2.55-2.51-3.82-6.34-3.82-11.48v-2.39c0-5.33,1.3-9.28,3.91-11.85,2.61-2.63,6.36-3.95,11.27-3.95,4.28,0,7.54.98,9.78,2.94,2.24,1.9,3.54,4.56,3.91,7.99v.46h21.89v-.83c-.56-6.37-2.39-11.63-5.5-15.8-3.04-4.16-7.14-7.29-12.29-9.37-2.55-.98-5.31-1.71-8.29-2.2-2.98-.55-6.15-.83-9.5-.83-7.2,0-13.54,1.29-19,3.86-5.46,2.51-9.69,6.24-12.67,11.2-1.55,2.45-2.7,5.17-3.45,8.17-.75,3-1.12,6.28-1.12,9.83v3.49c0,11.2,3.1,19.41,9.31,24.61,6.21,5.2,14.9,7.81,26.08,7.81Z"/><path d="m145.8,190.82c10.56,0,18.63-2.42,24.22-7.25,5.65-4.84,8.48-11.54,8.48-20.11v-.73c0-5.88-1.3-10.9-3.91-15.06-2.61-4.22-6.36-7.44-11.27-9.64-2.42-1.16-5.09-2.02-8.01-2.57-2.86-.55-5.96-.83-9.31-.83-6.58,0-12.33,1.13-17.23,3.4-4.91,2.2-8.72,5.42-11.46,9.64-1.3,2.08-2.3,4.38-2.98,6.89-.68,2.51-1.02,5.23-1.02,8.17v.73c0,8.69,2.61,15.43,7.82,20.2,5.22,4.78,13.44,7.16,24.68,7.16Zm.09-16.07c-3.97,0-7.02-.95-9.13-2.85-2.05-1.96-3.07-4.81-3.07-8.54v-.64c0-4.04,1.06-7.07,3.17-9.09,2.17-2.08,5.22-3.12,9.13-3.12s7.14,1.01,9.13,3.03c2.05,2.02,3.07,5.08,3.07,9.18v.64c0,3.8-1.02,6.64-3.07,8.54-2.05,1.9-5.12,2.85-9.22,2.85Z"/><path d="m206.23,164.83c0-4.1.68-7.38,2.05-9.83,1.37-2.45,3.79-3.67,7.26-3.67,2.42,0,4.25.52,5.5,1.56,1.24,1.04,2.08,2.45,2.51,4.22.25.92.4,1.9.47,2.94.12,1.04.19,2.14.19,3.31v25.9h20.02v-24.98c0-3.86.62-6.98,1.86-9.37,1.3-2.39,3.63-3.58,6.99-3.58,3.66,0,6.05,1.13,7.17,3.4,1.18,2.26,1.77,5.26,1.77,9v25.53h20.12v-31.5c0-7.16-1.71-12.8-5.12-16.9-3.35-4.1-8.54-6.15-15.55-6.15-4.72,0-8.69,1.07-11.92,3.21-3.23,2.08-5.62,4.9-7.17,8.45-1.37-3.73-3.57-6.61-6.61-8.63-3.04-2.08-7.05-3.12-12.01-3.12s-8.66,1.07-11.83,3.21c-3.1,2.08-5.43,4.84-6.99,8.27l-1.77-10.1h-17.14v53.26h20.21v-24.43Z"/><path d="m322.55,174.75c-4.04,0-7.08-.95-9.13-2.85-1.99-1.96-2.98-4.84-2.98-8.63v-.46c0-3.98,1.09-7.01,3.26-9.09,2.17-2.14,5.15-3.21,8.94-3.21s6.92,1.04,9.03,3.12c2.11,2.02,3.17,5.11,3.17,9.28v.46c0,3.8-1.02,6.64-3.07,8.54-2.05,1.9-5.12,2.85-9.22,2.85Zm6.99,15.61c4.66,0,8.91-1.01,12.76-3.03,3.91-2.02,7.02-5.02,9.31-9,1.12-2.02,1.96-4.25,2.51-6.7.62-2.51.93-5.24.93-8.17v-.64c0-9.18-2.33-16.13-6.99-20.85-4.59-4.78-10.71-7.16-18.35-7.16-4.91,0-9.07.95-12.48,2.85-3.35,1.9-5.93,4.53-7.73,7.9l-1.58-9.55h-16.95v71.63h19.75v-26.54c1.61,2.88,3.91,5.14,6.89,6.8,3.04,1.65,7.02,2.48,11.92,2.48Z"/><path d="m387.9,177.78c-2.24,0-3.91-.34-5.03-1.01-1.12-.73-1.68-1.78-1.68-3.12,0-.8.19-1.5.56-2.11.43-.67,1.02-1.22,1.77-1.65.87-.49,2.05-.89,3.54-1.19,1.49-.37,3.73-.73,6.71-1.1,2.36-.31,4.32-.67,5.87-1.1,1.61-.49,2.83-1.07,3.63-1.74v1.56c0,1.96-.68,3.83-2.05,5.6-1.37,1.71-3.23,3.12-5.59,4.22-1.12.55-2.33.98-3.63,1.29-1.3.24-2.67.37-4.1.37Zm17.98,11.48h16.95v-32.51c0-7.59-2.36-13.16-7.08-16.71-4.66-3.55-12.14-5.33-22.45-5.33-9.75,0-17.32,1.78-22.73,5.33-5.34,3.49-8.35,8.6-9.03,15.34h20.68c.12-2.2,1.06-3.89,2.79-5.05,1.8-1.22,4.78-1.84,8.94-1.84,3.6,0,6.02.46,7.26,1.38,1.3.92,1.96,2.08,1.96,3.49,0,.98-.4,1.74-1.21,2.3-.81.55-2.2,1.01-4.19,1.38-1.06.18-2.3.37-3.73.55-1.37.18-2.98.37-4.84.55-3.91.37-7.14.73-9.69,1.1-2.55.37-4.72.83-6.52,1.38-.93.31-1.83.64-2.7,1.01-.81.31-1.61.67-2.42,1.1-2.61,1.35-4.6,3.15-5.96,5.42-1.3,2.2-1.96,4.87-1.96,7.99v.09c0,4.65,1.65,8.27,4.94,10.84,3.29,2.51,8.29,3.77,15,3.77,6.27,0,11.36-1.1,15.27-3.31,3.91-2.2,6.8-5.02,8.66-8.45l2.05,10.19Z"/><path d="m452.45,164.37c0-4.35.81-7.59,2.42-9.73,1.61-2.2,4.31-3.31,8.1-3.31s6.18,1.01,7.54,3.03c1.37,2.02,2.05,4.93,2.05,8.72v26.17h20.3v-31.87c0-7.1-1.86-12.67-5.59-16.71-3.73-4.04-9.13-6.06-16.21-6.06-5.09,0-9.28,1.13-12.57,3.4-3.23,2.2-5.65,5.11-7.26,8.72l-1.86-10.74h-17.32v53.26h20.4v-24.89Z"/><path d="m508.84,210.93c3.97,0,7.3-.25,9.97-.73,2.67-.49,4.97-1.41,6.89-2.75,1.93-1.35,3.76-3.34,5.5-5.97,1.74-2.63,3.63-6.09,5.68-10.38l26.36-55.1h-20.77l-13.13,29.85-.28.92-.28-1.01-13.23-29.75h-21.51l24.59,50.6-.65,1.47c-.81,1.71-1.68,3.06-2.61,4.04-.87.98-1.96,1.65-3.26,2.02-.68.24-1.49.4-2.42.46-.87.12-1.86.18-2.98.18h-8.1v16.16h10.25Z"/></g></svg>