<svg width="1045" height="495" viewBox="0 0 1045 495" fill="none" xmlns="http://www.w3.org/2000/svg">
<g clip-path="url(#clip0_1047_104)">
<path d="M1044.83 0H0V494.726H1044.83V0Z" fill="#D15A44"/>
<path fill-rule="evenodd" clip-rule="evenodd" d="M827.742 190.852C859.124 190.852 881.645 213.743 881.645 246.971C881.645 253.247 880.906 259.154 879.43 264.692L873.153 256.201H822.942L853.586 297.182C846.202 300.874 837.341 303.089 828.111 303.089C796.729 303.089 774.208 280.198 774.208 246.971C773.839 214.112 796.36 190.852 827.742 190.852ZM827.742 146.549C767.932 146.549 725.474 189.376 725.474 246.971C725.474 304.566 767.932 347.393 827.742 347.393C848.048 347.393 865.4 341.855 880.168 332.255L888.66 343.701H942.932L912.288 302.35C922.995 286.844 929.271 268.753 929.271 246.971C930.01 189.376 887.552 146.549 827.742 146.549Z" fill="#222327"/>
<path fill-rule="evenodd" clip-rule="evenodd" d="M112.235 150.241H158.385V344.07H112.235V150.241ZM492.14 344.07V150.241H445.991V268.753L357.383 150.241H337.077H313.079V268.753L224.841 150.241H180.537V344.07H226.687V225.926L314.925 344.07H322.678H348.891H359.598V225.926L447.837 344.07H492.14ZM610.284 190.852C641.666 190.852 664.187 213.743 664.187 246.971C664.187 280.198 641.666 303.089 610.284 303.089C578.533 303.089 556.381 280.198 556.381 246.971C556.381 213.743 578.902 190.852 610.284 190.852ZM610.284 146.549C550.474 146.549 508.016 189.376 508.016 246.971C508.016 304.566 550.474 347.393 610.284 347.393C670.094 347.393 712.552 304.566 712.552 246.971C712.552 189.376 670.094 146.549 610.284 146.549Z" fill="white"/>
</g>
<defs>
<clipPath id="clip0_1047_104">
<rect width="1044.83" height="494.726" fill="white"/>
</clipPath>
</defs>
</svg>
