<svg width="1045" height="496" viewBox="0 0 1045 496" fill="none" xmlns="http://www.w3.org/2000/svg">
<g clip-path="url(#clip0_1047_111)">
<path d="M1044.83 0.469177H0V495.195H1044.83V0.469177Z" fill="#222327"/>
<path fill-rule="evenodd" clip-rule="evenodd" d="M827.742 191.322C859.124 191.322 881.645 214.212 881.645 247.44C881.645 253.716 880.906 259.623 879.43 265.161L873.153 256.67H822.942L853.586 297.651C846.202 301.343 837.341 303.558 828.111 303.558C796.729 303.558 774.208 280.668 774.208 247.44C773.839 214.581 796.36 191.322 827.742 191.322ZM827.742 147.018C767.932 147.018 725.474 189.845 725.474 247.44C725.474 305.035 767.932 347.862 827.742 347.862C848.048 347.862 865.4 342.324 880.168 332.725L888.66 344.17H942.932L912.288 302.82C922.995 287.313 929.271 269.223 929.271 247.44C930.01 189.845 887.552 147.018 827.742 147.018Z" fill="#D15A44"/>
<path fill-rule="evenodd" clip-rule="evenodd" d="M112.235 150.71H158.385V344.539H112.235V150.71ZM492.14 344.539V150.71H445.991V269.223L357.383 150.71H337.077H313.079V269.223L224.841 150.71H180.537V344.539H226.687V226.396L314.925 344.539H322.678H348.891H359.598V226.396L447.837 344.539H492.14ZM610.284 191.322C641.666 191.322 664.187 214.212 664.187 247.44C664.187 280.668 641.666 303.558 610.284 303.558C578.533 303.558 556.381 280.668 556.381 247.44C556.381 214.212 578.902 191.322 610.284 191.322ZM610.284 147.018C550.474 147.018 508.016 189.845 508.016 247.44C508.016 305.035 550.474 347.862 610.284 347.862C670.094 347.862 712.552 305.035 712.552 247.44C712.552 189.845 670.094 147.018 610.284 147.018Z" fill="white"/>
</g>
<defs>
<clipPath id="clip0_1047_111">
<rect width="1044.83" height="494.726" fill="white" transform="translate(0 0.469177)"/>
</clipPath>
</defs>
</svg>
