<?xml version="1.0" encoding="UTF-8"?>
<svg version="1.1" xmlns="http://www.w3.org/2000/svg" viewBox="0 0 16 16" width="16px" height="16px">
    <g id="favicon" transform="translate(3.000000, 4.000000)" fill="#000000" fill-rule="nonzero">
        <path d="M12.2,5.3 C16,5.3 18.6,8 18.6,12 C18.6,12.8 18.5,13.5 18.3,14.1 L17.5,13.1 L11.5,13.1 L15.2,18 C14.3,18.4 13.3,18.7 12.2,18.7 C8.4,18.7 5.8,16 5.8,12 C5.8,8 8.5,5.3 12.2,5.3 M12.2,0 C5.1,0 0,5.1 0,12 C0,18.9 5.1,24 12.2,24 C14.6,24 16.7,23.3 18.5,22.2 L19.5,23.6 L26,23.6 L22.3,18.7 C23.6,16.8 24.3,14.7 24.3,12.1 C24.5,5.1 19.4,0 12.2,0" id="Shape"></path>
    </g>
</svg>
