<?xml version="1.0" encoding="UTF-8"?>
<svg width="20px" height="16px" viewBox="0 0 20 16" version="1.1" xmlns="http://www.w3.org/2000/svg" xmlns:xlink="http://www.w3.org/1999/xlink">
    <!-- Generator: Sketch 52.4 (67378) - http://www.bohemiancoding.com/sketch -->
    <title>arrow-sync</title>
    <desc>Created with Sketch.</desc>
    <g id="Page-1" stroke="none" stroke-width="1" fill="none" fill-rule="evenodd">
        <g id="arrow-sync" fill="#24244C">
            <path d="M19.854,6.646 C19.659,6.451 19.342,6.451 19.147,6.646 L17.998,7.795 C17.947,5.735 17.12,3.805 15.657,2.343 C14.146,0.832 12.137,1.77635684e-15 10,1.77635684e-15 C7.026,1.77635684e-15 4.314,1.635 2.923,4.266 C2.794,4.51 2.887,4.813 3.131,4.942 C3.375,5.071 3.678,4.978 3.807,4.734 C5.024,2.431 7.397,1 10,1 C13.789,1 16.885,4.027 16.997,7.789 L15.854,6.646 C15.659,6.451 15.342,6.451 15.147,6.646 C14.952,6.841 14.952,7.158 15.147,7.353 L17.147,9.353 C17.245,9.451 17.373,9.499 17.501,9.499 C17.629,9.499 17.757,9.45 17.855,9.353 L19.855,7.353 C20.05,7.158 20.05,6.841 19.855,6.646 L19.854,6.646 Z" id="Path"></path>
            <path d="M16.869,11.058 C16.625,10.929 16.322,11.022 16.193,11.266 C14.976,13.569 12.603,15 10,15 C6.211,15 3.115,11.973 3.003,8.211 L4.146,9.354 C4.244,9.452 4.372,9.5 4.5,9.5 C4.628,9.5 4.756,9.451 4.854,9.354 C5.049,9.159 5.049,8.842 4.854,8.647 L2.854,6.647 C2.659,6.452 2.342,6.452 2.147,6.647 L0.147,8.647 C-0.048,8.842 -0.048,9.159 0.147,9.354 C0.342,9.549 0.659,9.549 0.854,9.354 L2.003,8.205 C2.054,10.265 2.881,12.195 4.344,13.657 C5.855,15.168 7.864,16 10.001,16 C12.975,16 15.687,14.365 17.078,11.734 C17.207,11.49 17.114,11.187 16.87,11.058 L16.869,11.058 Z" id="Path"></path>
        </g>
    </g>
</svg>