<?xml version="1.0" encoding="UTF-8"?>
<svg width="32px" height="12px" viewBox="0 0 32 12" version="1.1" xmlns="http://www.w3.org/2000/svg" xmlns:xlink="http://www.w3.org/1999/xlink">
    <!-- Generator: Sketch 48.2 (47327) - http://www.bohemiancoding.com/sketch -->
    <title>arrow-medium-left-red</title>
    <desc>Created with Sketch.</desc>
    <defs>
        <polygon id="path-1" points="0.9995 11.9998 0.9995 0.0003 32.999 0.0003 32.999 11.9998"></polygon>
    </defs>
    <g id="Page-1" stroke="none" stroke-width="1" fill="none" fill-rule="evenodd">
        <g id="arrow-medium-left-red" transform="translate(16.500000, 6.000000) rotate(-180.000000) translate(-16.500000, -6.000000) ">
            <mask id="mask-2" fill="white">
                <use xlink:href="#path-1"></use>
            </mask>
            <g id="path-1"></g>
            <path d="M32.9229,5.6178 C32.8719,5.4948 32.7989,5.3848 32.7059,5.2928 L27.7069,0.2928 C27.3169,-0.0972 26.6839,-0.0972 26.2929,0.2928 C25.9019,0.6838 25.9019,1.3168 26.2929,1.7068 L29.5859,4.9998 L1.9999,4.9998 C1.4479,4.9998 0.9999,5.4478 0.9999,5.9998 C0.9999,6.5518 1.4479,6.9998 1.9999,6.9998 L29.5859,6.9998 L26.2929,10.2928 C25.9019,10.6838 25.9019,11.3168 26.2929,11.7068 C26.4879,11.9028 26.7439,11.9998 26.9999,11.9998 C27.2559,11.9998 27.5119,11.9028 27.7069,11.7068 L32.7059,6.7078 C32.7989,6.6148 32.8719,6.5048 32.9229,6.3818 C33.0249,6.1378 33.0249,5.8618 32.9229,5.6178 Z" id="Fill-1" fill="#FF4D67" fill-rule="nonzero" mask="url(#mask-2)"></path>
        </g>
    </g>
</svg>