<?xml version="1.0" encoding="utf-8"?>
<!-- Generator: Adobe Illustrator 22.0.1, SVG Export Plug-In . SVG Version: 6.00 Build 0)  -->
<svg version="1.1" id="Layer_1" xmlns="http://www.w3.org/2000/svg" xmlns:xlink="http://www.w3.org/1999/xlink" x="0px" y="0px"
	 viewBox="0 0 473.9 473.9" style="enable-background:new 0 0 473.9 473.9;" xml:space="preserve">
<style type="text/css">
	.st0{fill:#F7F7F7;}
	.st1{fill:#979798;}
</style>
<circle class="st0" cx="236.9" cy="238.9" r="235"/>
<path class="st1" d="M237.3,473.9c78.5,0,148.1-38.4,191.2-97.6c-8-11.6-39.5-45.2-145.6-70.9c0-24.2-2.4-38.7-2.4-38.7
	s31.3-43.5,33.7-104c0-9.6,4.7-77.8-77-80.9v-0.1c-0.2,0-0.4,0-0.6,0c-0.2,0-0.4,0-0.6,0v0.1c-81.7,3.1-77,71.3-77,80.9
	c2.4,60.5,33.7,104,33.7,104s-2.4,14.5-2.4,38.7c-103.3,25-135.9,57.6-145,70C88.4,435.1,158.3,473.9,237.3,473.9z"/>
</svg>
