<?xml version="1.0" encoding="utf-8"?>
<!-- Generator: Adobe Illustrator 22.0.1, SVG Export Plug-In . SVG Version: 6.00 Build 0)  -->
<svg version="1.1" id="Capa_1" xmlns="http://www.w3.org/2000/svg" xmlns:xlink="http://www.w3.org/1999/xlink" x="0px" y="0px"
	 viewBox="0 0 512 512" style="enable-background:new 0 0 512 512;" xml:space="preserve">
<style type="text/css">
	.st0{fill:#F6F6F6;}
	.st1{fill:#979798;}
</style>
<rect class="st0" width="512" height="512"/>
<g>
	<g>
		<path class="st1" d="M256,250.7c53.7,0,97.3-52.9,97.3-118.1S338.9,14.4,256,14.4s-97.3,52.9-97.3,118.1S202.3,250.7,256,250.7z"
			/>
		<path class="st1" d="M72.3,431C72.3,427.1,72.3,429.9,72.3,431L72.3,431z"/>
		<path class="st1" d="M439.7,434.2C439.7,433,439.7,426.6,439.7,434.2L439.7,434.2z"/>
		<path class="st1" d="M439.5,426.2c-1.8-113.7-16.6-146-130.2-166.5c0,0-15.9,20.4-53.2,20.4s-53.3-20.4-53.3-20.4
			C90.4,280,74.7,311.9,72.6,422.6c-0.2,9.1-0.3,9.5-0.3,8.5c0,2,0,5.6,0,12c0,0,27.1,54.5,183.7,54.5S439.7,443,439.7,443
			c0-4.1,0-6.9,0-8.9C439.7,434.7,439.6,433.5,439.5,426.2z"/>
	</g>
</g>
</svg>
