<?xml version="1.0" encoding="utf-8"?>
<!-- Generator: Adobe Illustrator 22.0.1, SVG Export Plug-In . SVG Version: 6.00 Build 0)  -->
<svg version="1.1" id="Layer_1" xmlns="http://www.w3.org/2000/svg" xmlns:xlink="http://www.w3.org/1999/xlink" x="0px" y="0px"
	 viewBox="0 0 473.9 473.9" style="enable-background:new 0 0 473.9 473.9;" xml:space="preserve">
<style type="text/css">
	.st0{fill:#F7F7F7;}
	.st1{fill:#979798;}
</style>
<circle class="st0" cx="237" cy="237" r="237"/>
<path class="st1" d="M237,473.9c78.5,0,148.1-38.2,191.2-97.1c-8-11.5-39.5-45-145.6-70.5c0-24.1-2.4-38.5-2.4-38.5
	s31.3-43.3,33.7-103.5c0-9.6,4.7-77.4-77-80.5c0,0,0-0.1,0-0.1c-0.2,0-0.4,0-0.6,0c-0.2,0-0.4,0-0.6,0c0,0,0,0.1,0,0.1
	c-81.7,3.1-77,70.9-77,80.5c2.4,60.2,33.7,103.5,33.7,103.5s-2.4,14.4-2.4,38.5C86.7,331.2,54.1,363.6,45,375.9
	C88.1,435.3,158,473.9,237,473.9z"/>
</svg>
