<?xml version="1.0" encoding="utf-8"?>
<!-- Generator: Adobe Illustrator 22.0.1, SVG Export Plug-In . SVG Version: 6.00 Build 0)  -->
<svg version="1.1" id="Capa_1" xmlns="http://www.w3.org/2000/svg" xmlns:xlink="http://www.w3.org/1999/xlink" x="0px" y="0px"
	 viewBox="0 0 512 512" style="enable-background:new 0 0 512 512;" xml:space="preserve">
<style type="text/css">
	.st0{fill:#F6F6F6;}
	.st1{fill:#979798;}
</style>
<rect class="st0" width="512" height="512"/>
<g>
	<g>
		<path class="st1" d="M256,250.4c56.9,0,103.1-56.1,103.1-125.2C359.1,56.1,343.9,0,256,0S152.9,56.1,152.9,125.2
			C152.9,194.3,199.1,250.4,256,250.4z"/>
		<path class="st1" d="M61.3,441.6C61.3,437.4,61.3,440.4,61.3,441.6L61.3,441.6z"/>
		<path class="st1" d="M450.7,444.9C450.7,443.7,450.7,436.9,450.7,444.9L450.7,444.9z"/>
		<path class="st1" d="M450.5,436.5c-1.9-120.5-17.6-154.8-138-176.5c0,0-16.9,21.6-56.4,21.6S199.6,260,199.6,260
			c-119.1,21.5-135.8,55.3-138,172.6c-0.2,9.6-0.3,10.1-0.3,9c0,2.1,0,5.9,0,12.7c0,0,28.7,57.8,194.7,57.8
			c166,0,194.7-57.8,194.7-57.8c0-4.3,0-7.3,0-9.4C450.7,445.5,450.6,444.2,450.5,436.5z"/>
	</g>
</g>
</svg>
