<?xml version="1.0" encoding="utf-8"?>
<!-- Generator: Adobe Illustrator 15.0.2, SVG Export Plug-In . SVG Version: 6.00 Build 0)  -->
<!DOCTYPE svg PUBLIC "-//W3C//DTD SVG 1.1//EN" "http://www.w3.org/Graphics/SVG/1.1/DTD/svg11.dtd">
<svg version="1.1" id="Ebene_1" xmlns="http://www.w3.org/2000/svg" xmlns:xlink="http://www.w3.org/1999/xlink" x="0px" y="0px"
	 width="419.51px" height="171.295px" viewBox="0 0 419.51 171.295" enable-background="new 0 0 419.51 171.295"
	 xml:space="preserve">
<path fill="#881A55" d="M419.51,155.06c0,8.971-6.263,16.235-13.985,16.235H13.985C6.263,171.295,0,164.031,0,155.06V25.196
	C0,16.231,6.263,8.961,13.985,8.961h391.54c7.723,0,13.985,7.271,13.985,16.235V155.06z"/>
<g>
	<path fill="#FFFFFF" d="M237.547,58.231c0.062-5.288-4.137-10.384-9.576-10.384h-0.061c-3.193,0-6.443,1.74-9.045,4.58
		c-2.484,2.646-4.373,6.772-4.373,11.674c0,7.418,4.373,13.799,12.238,13.799c2.424,0,7.035-1.287,10.641-7.154l-1.064-1.55
		c-2.07,1.937-4.258,2.775-6.564,2.775c-4.197,0-7.686-3.484-7.98-10.384c5.795-0.259,13.008-0.904,14.072-1.032
		C237.193,60.359,237.547,59.524,237.547,58.231z M229.092,58.361c-2.424,0.066-4.611,0.129-7.035,0.194
		c0.354-5.16,2.424-8.128,4.611-8.128h0.062c2.305,0,3.605,3.354,3.605,6.645C230.273,58.167,229.977,58.295,229.092,58.361z"/>
	<path fill="#FFFFFF" d="M274.504,58.813c-3.018-1.484-4.377-2.967-4.377-4.968c0-2.065,1.475-3.482,3.014-3.482
		c2.781,0,4.674,2.644,6.268,6.579l1.773-0.581c-0.119-1.289-0.826-5.867-1.418-7.353c-1.359-0.646-2.955-1.225-5.678-1.162
		c-6.207,0-9.932,4.128-9.932,9.16c0,5.548,4.789,8.062,7.508,9.548c3.668,1.867,4.496,3.48,4.496,5.351
		c0,1.934-1.301,3.484-3.254,3.484c-3.605,0-6.326-4.45-7.625-8.513l-1.777,0.194c0.059,3.095,0.592,7.611,0.947,8.641
		c1.186,0.966,4.318,2.188,7.449,2.188c4.969,0,10.586-3.158,10.586-9.542C282.484,63.329,279.289,61.071,274.504,58.813z"/>
	<path fill="#FFFFFF" d="M170.58,43.784c2.424,0,4.258-2.062,4.258-4.512c0-2.579-1.834-4.512-4.198-4.512
		c-2.245,0-4.196,1.933-4.196,4.512C166.444,41.723,168.395,43.784,170.58,43.784z"/>
	<path fill="#FFFFFF" d="M134.885,69.134V48.169c-1.359,0.259-3.308,0.519-5.378,0.709c-2.066,0.195-4.194,0.387-5.909,0.451v1.871
		l1.891,0.452c1.536,0.388,1.891,0.838,1.891,3.807v15.674c-1.357,1.418-2.659,1.805-4.254,1.805c-2.068,0-4.078-1.483-4.078-5.676
		v-9.353c0-3.742,0.059-7.03,0.177-9.739c-1.595,0.259-3.664,0.519-5.673,0.709c-1.95,0.195-3.781,0.387-5.26,0.451v1.871
		l1.359,0.452c1.539,0.451,1.893,0.775,1.893,3.74v13.353c0,5.674,2.777,9.155,7.74,9.155c1.833,0,3.429-0.706,5.144-1.931
		c1.299-0.841,1.89-1.485,2.953-2.386v3.867l0.473,0.449c1.774-0.449,3.664-0.901,5.496-1.287c1.952-0.453,3.606-0.774,5.32-1.033
		v-2.062l-1.3-0.128C135.241,73.132,134.885,72.551,134.885,69.134z"/>
	<path fill="#FFFFFF" d="M94.36,54.62v-0.258c4.255-0.904,9.219-3.418,9.219-9.545c0-3.223-1.3-5.802-3.487-7.347
		c-2.247-1.615-5.202-2.261-9.751-2.261H73.085v2.261c4.195,0.45,4.728,0.902,4.728,6.38v24.638c0,5.483-0.533,5.932-5.083,6.384
		v2.258h15.01c4.906,0,9.457-0.901,12.47-2.771c3.369-1.999,5.556-5.352,5.556-9.675C105.767,58.555,101.215,55.523,94.36,54.62z
		 M85.613,41.464c0-1.354,0.118-2.322,0.531-2.772c0.356-0.388,1.361-0.773,2.661-0.773c3.193,0,6.383,2.192,6.383,7.995
		c0,5.352-2.542,7.801-8.214,7.801h-1.36V41.464z M89.927,74.419c-3.131,0.065-4.314-1.287-4.314-6.06V56.296h1.183
		c6.736,0,10.165,3.097,10.165,9.097C96.961,71.711,93.236,74.357,89.927,74.419z"/>
	<path fill="#FFFFFF" d="M152.735,58.813c-3.015-1.484-4.375-2.967-4.375-4.968c0-2.065,1.479-3.482,3.014-3.482
		c2.779,0,4.668,2.644,6.265,6.579l1.772-0.581c-0.116-1.289-0.826-5.867-1.417-7.353c-1.36-0.646-2.957-1.225-5.674-1.162
		c-6.205,0-9.928,4.128-9.928,9.16c0,5.548,4.786,8.062,7.505,9.548c3.664,1.867,4.491,3.48,4.491,5.351
		c0,1.934-1.301,3.484-3.252,3.484c-3.603,0-6.321-4.45-7.623-8.513l-1.772,0.194c0.06,3.095,0.591,7.611,0.945,8.641
		c1.184,0.966,4.315,2.188,7.447,2.188c4.964,0,10.578-3.158,10.578-9.542C160.711,63.329,157.52,61.071,152.735,58.813z"/>
	<path fill="#FFFFFF" d="M208.285,70.359V58.167c0-6.45-2.953-10.32-7.742-10.32c-1.715,0-2.836,0.582-4.609,1.806
		c-1.301,0.904-2.482,1.935-3.666,2.837v-4.771c-3.485,1.096-7.326,1.998-10.695,2.449v1.872c2.896,0.582,3.191,0.838,3.191,4.708
		v13.354c0,4.317-0.295,4.383-3.959,4.963v2.064h14.242v-2.064c-2.424-0.449-2.779-0.646-2.779-4.64V54.813
		c1.539-1.289,2.896-2,4.375-2c2.127,0,4.078,1.419,4.078,6.062v10.969c0,4.575-0.295,4.771-2.779,5.22v2.064h13.773v-2.064
		C208.639,74.549,208.285,74.419,208.285,70.359z"/>
	<path fill="#FFFFFF" d="M251.859,58.813c-3.021-1.484-4.381-2.967-4.381-4.968c0-2.065,1.48-3.482,3.016-3.482
		c2.783,0,4.674,2.644,6.27,6.579l1.771-0.581c-0.115-1.289-0.826-5.867-1.416-7.353c-1.361-0.646-2.957-1.225-5.678-1.162
		c-6.207,0-9.934,4.128-9.934,9.16c0,5.548,4.791,8.062,7.512,9.548c3.664,1.867,4.494,3.48,4.494,5.351
		c0,1.934-1.301,3.484-3.254,3.484c-3.607,0-6.326-4.45-7.625-8.513l-1.775,0.194c0.057,3.095,0.59,7.611,0.943,8.641
		c1.186,0.966,4.316,2.188,7.451,2.188c4.969,0,10.582-3.158,10.582-9.542C259.836,63.329,256.645,61.071,251.859,58.813z"/>
	<path fill="#FFFFFF" d="M174.838,69.779V47.847c-3.312,1.032-7.214,1.87-10.757,2.321v1.872c2.834,0.517,3.25,0.709,3.25,4.967
		v12.772c0,4.578-0.355,4.836-3.782,5.285v2.064h15.128v-2.064C175.131,74.549,174.838,74.229,174.838,69.779z"/>
	<path fill="#FFFFFF" d="M212.613,120.7v-12.188c0-6.448-2.955-10.315-7.742-10.315c-1.713,0-2.836,0.581-4.607,1.804
		c-1.303,0.903-2.484,1.933-3.664,2.84v-4.775c-3.486,1.098-7.33,2-10.698,2.454v1.867c2.896,0.581,3.19,0.839,3.19,4.705v13.35
		c0,4.318-0.294,4.383-3.959,4.963v2.062h14.242v-2.062c-2.424-0.45-2.775-0.645-2.775-4.641V105.16
		c1.533-1.288,2.893-1.999,4.373-1.999c2.125,0,4.076,1.419,4.076,6.061v10.96c0,4.579-0.295,4.773-2.775,5.224v2.062h13.766v-2.062
		C212.969,124.888,212.613,124.76,212.613,120.7z"/>
	<path fill="#FFFFFF" d="M95.941,88.397c3.429,0,4.965,0.386,5.97,1.544c1.062,1.164,1.891,3.292,2.599,6.644l2.127-0.128
		c-0.295-4.127-0.589-9.802-0.648-12.51h-1.419c-1.004,1.225-1.833,1.613-3.428,1.613H77.385c-1.654,0-2.422-0.13-3.368-1.613
		h-1.419c-0.117,3.289-0.472,7.994-0.708,12.703h2.127c0.768-3.227,1.537-5.416,2.482-6.513c0.886-1.032,1.949-1.74,6.796-1.74
		h2.008v30.496c0,5.479-0.59,5.867-5.554,6.318v2.255h19.266v-2.255c-5.201-0.451-5.791-0.84-5.791-6.318V88.397H95.941z"/>
	<path fill="#FFFFFF" d="M125.224,108.577c0.06-5.285-4.136-10.379-9.574-10.379h-0.058c-3.192,0-6.439,1.74-9.042,4.577
		c-2.482,2.645-4.374,6.77-4.374,11.67c0,7.415,4.374,13.797,12.234,13.797c2.424,0,7.032-1.289,10.638-7.156l-1.066-1.549
		c-2.068,1.938-4.254,2.774-6.559,2.774c-4.197,0-7.683-3.481-7.979-10.382c5.792-0.256,13.003-0.9,14.064-1.03
		C124.87,110.704,125.224,109.865,125.224,108.577z M116.774,108.708c-2.424,0.061-4.61,0.127-7.033,0.19
		c0.355-5.157,2.423-8.124,4.609-8.124h0.061c2.304,0,3.604,3.353,3.604,6.642C117.956,108.512,117.66,108.641,116.774,108.708z"/>
	<path fill="#FFFFFF" d="M143.412,122.376c-2.541,0-8.157-2.841-8.157-11.415c0-6.899,2.6-9.349,4.965-9.349
		c1.656,0,3.488,1.032,5.97,3.354c0.531,0.517,0.885,0.71,1.299,0.71c1.006,0,2.542-1.677,2.542-3.548
		c0-0.902-0.238-1.676-1.064-2.318c-1.005-0.906-2.955-1.613-5.083-1.613h-0.06c-2.246,0-6.146,0.902-9.987,3.996
		c-3.783,3.03-5.97,7.608-5.97,12.317c0,7.027,4.728,13.73,12.824,13.73c3.606,0,7.447-2.771,10.165-6.963l-1.121-1.549
		C147.606,121.728,145.894,122.376,143.412,122.376z"/>
	<path fill="#FFFFFF" d="M179.106,120.7v-11.801c0-7.092-3.013-10.702-8.156-10.702c-2.895,0-5.852,1.935-7.858,4.19V82.144
		c-3.546,0.966-7.743,1.87-10.875,2.319v1.869c3.073,0.389,3.312,0.389,3.312,4.32V120.7c0,4.061-0.356,4.319-3.724,4.705v2.062
		h14.005v-2.062c-2.482-0.45-2.718-0.902-2.718-4.449v-16.183c1.24-1.355,2.836-1.805,4.253-1.805c2.307,0,4.254,1.677,4.254,6.642
		v11.346c0,3.547-0.176,3.999-3.013,4.449v2.062h13.947v-2.062C179.463,124.825,179.106,124.825,179.106,120.7z"/>
	<path fill="#FFFFFF" d="M321.135,99.614l-0.234-0.449c-2.365,0.257-5.498,0.646-8.568,0.772c-2.186-1.224-3.902-1.74-6.324-1.74
		h-0.061c-5.258,0-11.404,3.352-11.404,10.572c0,3.998,2.246,7.287,5.793,8.578c-1.123,1.156-2.955,2.9-6.031,4.255
		c-0.059,0.9,0.238,2.448,0.889,3.478c0.828,1.357,1.951,2.581,4.432,3.55c-1.539,1.03-3.072,1.933-4.49,3.158
		c-1.184,1.098-1.832,2.131-1.832,3.549c0,3.606,3.428,7.864,11.051,7.864c7.859,0,15.779-5.868,15.779-13.219
		c0-6.772-5.438-7.865-9.102-7.865c-1.893,0-3.545,0.063-5.436,0.063c-2.838,0.066-3.783-1.354-3.783-2.451
		c0-0.707,0.352-1.289,0.828-1.804c0.887,0.13,1.83,0.322,2.895,0.322c5.791,0,11.289-3.353,11.289-10.061
		c0-2.19-0.648-3.672-1.598-4.896l3.369,0.257C319.66,102.841,320.781,100.709,321.135,99.614z M306.008,128.821h0.057
		c2.188,0,3.488,0.131,5.086,0.581c1.832,0.516,3.309,1.87,3.309,4.193c0,3.416-2.656,6.059-7.148,6.059
		c-4.67,0-7.627-3.095-7.627-6.19c0-1.352,0.533-2.321,1.359-3.286C301.932,129.146,303.174,128.821,306.008,128.821z
		 M306.186,115.863c-2.717,0-4.078-3.612-4.078-8.123c0-4.711,1.713-7.157,3.488-7.157h0.059c2.836,0,4.078,3.74,4.078,7.93
		C309.732,113.283,308.49,115.863,306.186,115.863z"/>
	<path fill="#FFFFFF" d="M231.266,98.197h-0.061c-6.562,0-14.07,5.288-14.07,15.667c0,7.03,4.555,14.377,13.836,14.377
		c6.918,0,13.717-5.155,13.717-15.539C244.688,104.966,239.484,98.197,231.266,98.197z M231.621,125.727
		c-3.727,0-6.033-6.253-6.033-14.183c0-7.417,2.367-10.835,4.789-10.835h0.062c3.721,0,5.793,4.967,5.793,13.928
		C236.232,124.117,233.867,125.727,231.621,125.727z"/>
	<path fill="#FFFFFF" d="M342.631,98.972v2.062c2.898,0.579,3.488,1.418,2.838,3.546c-1.064,3.675-3.076,10.12-4.432,13.732
		L336.605,104c-0.65-2.065-0.18-2.45,2.365-2.966v-2.062h-14.662v2.062c2.781,0.451,3.49,1.225,4.555,3.998
		c1.121,2.834,4.375,11.99,7.445,21.342c0.354,1.03,0.531,1.999,0.236,3.028c-0.236,0.711-0.531,1.482-1.182,2.644
		c-1.064,2.062-2.482,3.291-4.787,4.641c-1.18,0.839-1.594,1.423-1.594,2.519c0,2.319,2.48,4.062,4.135,4.062
		c1.004,0,1.773-0.321,2.186-1.742c1.064-3.611,2.246-7.673,6.207-18.118c3.426-8.962,5.377-14.314,6.855-17.729
		c1.477-3.483,2.068-4.127,4.904-4.643v-2.062H342.631z"/>
	<path fill="#FFFFFF" d="M277.238,98.197h-0.059c-6.564,0-14.074,5.288-14.074,15.667c0,7.03,4.553,14.377,13.836,14.377
		c6.918,0,13.715-5.155,13.715-15.539C290.656,104.966,285.457,98.197,277.238,98.197z M277.592,125.727
		c-3.725,0-6.031-6.253-6.031-14.183c0-7.417,2.365-10.835,4.789-10.835h0.059c3.727,0,5.795,4.967,5.795,13.928
		C282.203,124.117,279.84,125.727,277.592,125.727z"/>
	<path fill="#FFFFFF" d="M257.324,120.377V82.144c-3.307,1.03-7.686,1.87-11.055,2.319v1.869c3.252,0.453,3.547,0.646,3.547,4.516
		v29.53c0,4.125-0.355,4.447-3.842,5.027v2.062h15.311v-2.062C257.682,124.955,257.324,124.695,257.324,120.377z"/>
	<g>
		<path fill="#FFFFFF" d="M79.076,141.33h4.831l-0.263,1.488h-6.63l1.798-10.209h1.801L79.076,141.33z"/>
		<path fill="#FFFFFF" d="M86.705,139.873c-0.171,0.971,0.077,2.002,1.205,2.002c0.731,0,1.389-0.416,1.634-1.159h1.686
			c-0.705,1.815-2.178,2.39-3.436,2.39c-2.3,0-3.058-1.631-2.709-3.604c0.342-1.945,1.679-3.604,3.878-3.604
			c2.545,0,2.982,1.817,2.53,3.977H86.705z M90.065,138.642c0.084-0.971-0.261-1.515-1.191-1.515c-1.057,0-1.557,0.571-1.881,1.515
			H90.065z"/>
		<path fill="#FFFFFF" d="M96.886,142.818c-0.099-0.329-0.117-0.716-0.024-1.088h-0.028c-0.578,0.844-1.441,1.375-2.413,1.375
			c-1.444,0-2.179-0.862-1.942-2.204c0.579-3.288,4.717-1.229,5.021-2.944c0.11-0.629-0.425-0.829-1.154-0.829
			c-0.543,0-1.241,0.229-1.352,0.857h-1.601c0.277-1.572,1.783-2.089,3.155-2.089c2,0,2.845,0.888,2.477,2.976l-0.468,2.658
			c-0.13,0.745-0.095,1.029,0.145,1.288H96.886z M97.303,139.072h-0.029c-0.768,1.113-2.737,0.373-2.989,1.803
			c-0.137,0.771,0.295,1,0.981,1C96.967,141.875,97.099,140.23,97.303,139.072z"/>
		<path fill="#FFFFFF" d="M100.099,142.818l1.169-6.635h1.629l-0.191,1.086h0.028c0.573-0.898,1.514-1.373,2.528-1.373
			c1.344,0,2.109,0.688,1.781,2.548l-0.771,4.374h-1.687l0.741-4.204c0.146-0.829-0.081-1.486-1.009-1.486
			c-0.943,0-1.661,0.743-1.849,1.814l-0.683,3.876H100.099z"/>
		<path fill="#FFFFFF" d="M112.384,142.818l1.799-10.209h1.802l-1.799,10.209H112.384z"/>
		<path fill="#FFFFFF" d="M116.243,142.818l1.169-6.635h1.628l-0.191,1.086h0.028c0.574-0.898,1.515-1.373,2.529-1.373
			c1.344,0,2.108,0.688,1.78,2.548l-0.77,4.374h-1.687l0.74-4.204c0.146-0.829-0.081-1.486-1.008-1.486
			c-0.944,0-1.662,0.743-1.85,1.814l-0.683,3.876H116.243z"/>
		<path fill="#FFFFFF" d="M124.272,142.818l1.168-6.635h1.628l-0.191,1.086h0.028c0.574-0.898,1.515-1.373,2.529-1.373
			c1.343,0,2.108,0.688,1.781,2.548l-0.771,4.374h-1.686l0.74-4.204c0.147-0.829-0.081-1.486-1.009-1.486
			c-0.943,0-1.661,0.743-1.849,1.814l-0.683,3.876H124.272z"/>
		<path fill="#FFFFFF" d="M132.542,139.5c0.41-2.245,1.707-3.604,4.063-3.604c2.13,0,3.184,1.402,2.796,3.604
			c-0.383,2.173-1.936,3.604-4.065,3.604C132.979,143.105,132.167,141.716,132.542,139.5z M137.602,139.5
			c0.287-1.63-0.249-2.403-1.226-2.373c-0.938-0.03-1.746,0.743-2.032,2.373c-0.283,1.602,0.253,2.374,1.197,2.374
			C136.511,141.875,137.318,141.102,137.602,139.5z"/>
		<path fill="#FFFFFF" d="M140.598,136.183h1.83l0.772,4.46h0.029l2.444-4.46h1.829l-3.913,6.635h-1.529L140.598,136.183z"/>
		<path fill="#FFFFFF" d="M151.574,142.818c-0.1-0.329-0.118-0.716-0.023-1.088h-0.028c-0.577,0.844-1.442,1.375-2.413,1.375
			c-1.443,0-2.179-0.862-1.943-2.204c0.58-3.288,4.719-1.229,5.021-2.944c0.111-0.629-0.425-0.829-1.153-0.829
			c-0.544,0-1.242,0.229-1.352,0.857h-1.602c0.278-1.572,1.784-2.089,3.155-2.089c2,0,2.845,0.888,2.476,2.976l-0.467,2.658
			c-0.132,0.745-0.096,1.029,0.144,1.288H151.574z M151.991,139.072h-0.028c-0.769,1.113-2.738,0.373-2.991,1.803
			c-0.136,0.771,0.295,1,0.981,1C151.655,141.875,151.787,140.23,151.991,139.072z"/>
		<path fill="#FFFFFF" d="M158.303,133.81l-0.418,2.373h1.586l-0.237,1.344h-1.586l-0.484,2.745
			c-0.161,0.915-0.09,1.171,0.638,1.171c0.214,0,0.448-0.026,0.679-0.04l-0.25,1.415c-0.4,0-0.796,0.058-1.196,0.058
			c-1.873,0-1.91-0.601-1.578-2.487l0.504-2.861h-0.9l0.235-1.344h0.9l0.418-2.373H158.303z"/>
		<path fill="#FFFFFF" d="M162.342,136.183l-1.167,6.635h-1.688l1.169-6.635H162.342z M160.895,134.838l0.301-1.715h1.686
			l-0.301,1.715H160.895z"/>
		<path fill="#FFFFFF" d="M163.4,139.5c0.411-2.245,1.707-3.604,4.064-3.604c2.129,0,3.185,1.402,2.796,3.604
			c-0.382,2.173-1.936,3.604-4.065,3.604C163.838,143.105,163.024,141.716,163.4,139.5z M168.46,139.5
			c0.287-1.63-0.25-2.403-1.225-2.373c-0.939-0.03-1.747,0.743-2.034,2.373c-0.283,1.602,0.253,2.374,1.197,2.374
			C167.369,141.875,168.177,141.102,168.46,139.5z"/>
		<path fill="#FFFFFF" d="M171.188,142.818l1.17-6.635h1.626l-0.19,1.086h0.028c0.574-0.898,1.516-1.373,2.529-1.373
			c1.343,0,2.107,0.688,1.781,2.548l-0.771,4.374h-1.686l0.74-4.204c0.146-0.829-0.082-1.486-1.01-1.486
			c-0.943,0-1.66,0.743-1.85,1.814l-0.682,3.876H171.188z"/>
		<path fill="#FFFFFF" d="M189.797,139.701c0.158-0.256,0.359-0.815,0.447-1.087h1.473c-0.295,0.787-0.621,1.587-1.209,2.244
			l1.139,1.96h-2.126l-0.371-0.729c-0.855,0.715-1.922,1-2.928,1.044c-1.707-0.044-2.938-1.174-2.617-2.987
			c0.246-1.402,1.49-2.39,2.777-2.962c-0.463-0.613-0.688-1.287-0.537-2.144c0.279-1.587,1.617-2.03,2.736-2.059
			c1.434-0.029,2.187,0.729,1.966,1.973c-0.193,1.102-1.029,1.958-2.05,2.474L189.797,139.701z M187.046,138.284
			c-0.552,0.373-1.347,0.987-1.472,1.702c-0.176,1.001,0.346,1.602,1.318,1.602c0.613,0,1.154-0.229,1.703-0.586L187.046,138.284z
			 M187.927,136.371c0.647-0.359,1.085-0.817,1.181-1.357c0.086-0.488-0.217-0.717-0.744-0.717c-0.388,0-0.754,0.299-0.826,0.717
			C187.45,135.512,187.696,135.969,187.927,136.371z"/>
		<path fill="#FFFFFF" d="M197.145,142.818l1.799-10.209h1.801l-1.799,10.209H197.145z"/>
		<path fill="#FFFFFF" d="M201.887,132.609h7.471l-0.27,1.543h-2.844l-1.525,8.666h-1.803l1.527-8.666h-2.828L201.887,132.609z"/>
		<path fill="#FFFFFF" d="M214.824,141.33h4.828l-0.264,1.488h-6.631l1.801-10.209h1.799L214.824,141.33z"/>
		<path fill="#FFFFFF" d="M222.451,139.873c-0.172,0.971,0.076,2.002,1.205,2.002c0.73,0,1.389-0.416,1.633-1.159h1.686
			c-0.705,1.815-2.178,2.39-3.434,2.39c-2.301,0-3.059-1.631-2.711-3.604c0.342-1.945,1.678-3.604,3.879-3.604
			c2.545,0,2.98,1.817,2.529,3.977H222.451z M225.812,138.642c0.084-0.971-0.262-1.515-1.191-1.515
			c-1.057,0-1.559,0.571-1.883,1.515H225.812z"/>
		<path fill="#FFFFFF" d="M232.635,142.818c-0.098-0.329-0.119-0.716-0.025-1.088h-0.027c-0.578,0.844-1.439,1.375-2.416,1.375
			c-1.443,0-2.176-0.862-1.941-2.204c0.58-3.288,4.723-1.229,5.023-2.944c0.111-0.629-0.426-0.829-1.154-0.829
			c-0.543,0-1.24,0.229-1.352,0.857h-1.604c0.279-1.572,1.785-2.089,3.156-2.089c2,0,2.846,0.888,2.477,2.976l-0.469,2.658
			c-0.129,0.745-0.096,1.029,0.145,1.288H232.635z M233.051,139.072h-0.029c-0.768,1.113-2.736,0.373-2.988,1.803
			c-0.135,0.771,0.295,1,0.98,1C232.713,141.875,232.848,140.23,233.051,139.072z"/>
		<path fill="#FFFFFF" d="M240.404,142.818l0.182-1.029h-0.029c-0.531,0.828-1.502,1.316-2.402,1.316
			c-1.174,0-2.473-1.218-2.064-3.619s2.164-3.616,3.332-3.59c0.934-0.026,1.527,0.502,1.887,1.217h0.029l0.793-4.504h1.688
			l-1.799,10.209H240.404z M239.822,137.127c-1.002,0-1.738,1.258-1.93,2.358c-0.195,1.102,0.092,2.389,1.094,2.389
			c1.229,0,1.818-1.417,1.986-2.359C241.139,138.57,241.051,137.127,239.822,137.127z"/>
		<path fill="#FFFFFF" d="M245.738,139.873c-0.174,0.971,0.074,2.002,1.203,2.002c0.73,0,1.391-0.416,1.635-1.159h1.686
			c-0.703,1.815-2.178,2.39-3.436,2.39c-2.301,0-3.059-1.631-2.709-3.604c0.342-1.945,1.678-3.604,3.879-3.604
			c2.543,0,2.98,1.817,2.527,3.977H245.738z M249.098,138.642c0.088-0.971-0.262-1.515-1.189-1.515
			c-1.059,0-1.559,0.571-1.881,1.515H249.098z"/>
		<path fill="#FFFFFF" d="M252.799,136.183h1.602l-0.254,1.445h0.029c0.703-1.145,1.547-1.732,2.818-1.732l-0.277,1.573
			c-0.186,0-0.363-0.027-0.637-0.027c-1,0-1.936,0.686-2.188,2.114l-0.574,3.262h-1.686L252.799,136.183z"/>
		<path fill="#FFFFFF" d="M258.322,140.843c-0.141,0.802,0.535,1.031,1.236,1.031c0.84,0,1.453-0.314,1.541-0.802
			c0.242-1.388-4.225-0.198-3.725-3.045c0.268-1.516,2.049-2.132,3.35-2.132c1.473,0,2.689,0.717,2.408,2.231h-1.545
			c0.059-0.329-0.039-0.585-0.24-0.743c-0.199-0.172-0.498-0.257-0.867-0.257c-0.516,0-1.293,0.185-1.404,0.829
			c-0.229,1.288,4.246,0.055,3.742,2.918c-0.309,1.756-2.207,2.23-3.365,2.23c-1.715,0-2.961-0.631-2.822-2.23l0.004-0.031H258.322z
			"/>
		<path fill="#FFFFFF" d="M263.977,142.818l1.799-10.209h1.627l-0.82,4.66h0.027c0.574-0.898,1.516-1.373,2.529-1.373
			c1.344,0,2.107,0.688,1.781,2.548l-0.77,4.374h-1.688l0.74-4.204c0.146-0.829-0.08-1.486-1.01-1.486
			c-0.941,0-1.658,0.743-1.848,1.814l-0.684,3.876H263.977z"/>
		<path fill="#FFFFFF" d="M274.975,136.183l-1.168,6.635h-1.688l1.168-6.635H274.975z M273.525,134.838l0.303-1.715h1.684
			l-0.301,1.715H273.525z"/>
		<path fill="#FFFFFF" d="M278.574,136.183l-0.18,1.029h0.029c0.529-0.83,1.5-1.316,2.4-1.316c1.176,0,2.475,1.217,2.064,3.619
			c-0.408,2.401-2.164,3.617-3.33,3.59c-0.936,0.027-1.527-0.501-1.887-1.218h-0.029l-0.699,3.961h-1.688l1.705-9.665H278.574z
			 M279.158,141.875c1.002,0,1.736-1.26,1.93-2.359c0.193-1.101-0.094-2.388-1.094-2.388c-1.23,0-1.82,1.415-1.986,2.358
			C277.84,140.429,277.928,141.875,279.158,141.875z"/>
	</g>
</g>
</svg>
