<?xml version="1.0" encoding="utf-8"?>
<!-- Generator: Adobe Illustrator 21.1.0, SVG Export Plug-In . SVG Version: 6.00 Build 0)  -->
<svg version="1.1" id="Ebene_1" xmlns="http://www.w3.org/2000/svg" xmlns:xlink="http://www.w3.org/1999/xlink" x="0px" y="0px"
	 viewBox="0 0 25 25" style="enable-background:new 0 0 25 25;" xml:space="preserve">
<title>icon_info</title>
<desc>Created with Sketch.</desc>
<path d="M24.5,23.5l-8.8-8.8c1.3-1.5,2.1-3.5,2.1-5.6c0-4.8-3.9-8.8-8.8-8.8C4.2,0.2,0.2,4.2,0.2,9s3.9,8.8,8.8,8.8
	c2.1,0,4.1-0.8,5.6-2.1l8.8,8.8c0.1,0.1,0.3,0.2,0.5,0.2s0.4-0.1,0.5-0.2C24.8,24.2,24.8,23.8,24.5,23.5z M1.8,9C1.8,5,5,1.7,9,1.7
	S16.2,5,16.2,9S13,16.3,9,16.3S1.8,13,1.8,9z"/>
</svg>
