<svg height="26" viewBox="0 0 98 26" width="98" xmlns="http://www.w3.org/2000/svg"><g fill="none" fill-rule="evenodd"><path d="m0 25h6v-24h-6z" fill="#fff"/><path d="m39.4973124 1v14.6398008l-10.479423-14.6398008h-2.4130097-2.8434049-.0264141v14.6398008l-10.479423-14.6398008h-5.2556377v24h5.4855961v-14.6398008l10.479423 14.6398008h.9143955 3.1036619 1.2647713v-14.6398008l10.479423 14.6398008h5.2727292v-24z" fill="#fff"/><g transform="translate(46)"><path d="m12.4735351.12690854c-7.07910687 0-12.09276378 5.25310975-12.09276378 12.38329266 0 7.1293903 5.01365691 12.3832927 12.09276378 12.3832927 7.0791069 0 12.0927638-5.2539024 12.0927638-12.3832927 0-7.13018291-5.0136569-12.38329266-12.0927638-12.38329266m0 5.45841463c3.7364106 0 6.3908819 2.83146342 6.3908819 6.92487803 0 4.0934147-2.6544713 6.9248781-6.3908819 6.9248781-3.73641058 0-6.39088189-2.8314634-6.39088189-6.9248781 0-4.09341461 2.65447131-6.92487803 6.39088189-6.92487803" fill="#fff"/><path d="m38.238415.59958537c-7.0791069 0-12.0927638 5.25310975-12.0927638 12.38329263 0 7.1293903 5.0136569 12.3832927 12.0927638 12.3832927 2.4087874 0 4.4734623-.699939 6.2265759-1.8421951l1.0160619 1.3982927h6.4397086l-3.6209314-5.1167683c1.2780214-1.8937195 2.0313487-4.144939 2.0313487-6.822622 0-7.13018288-5.0136569-12.38329263-12.0927637-12.38329263m0 5.45841463c3.7356355 0 6.3908819 2.83146341 6.3908819 6.924878 0 .7847561-.0984286 1.5179879-.2790102 2.2004879l-.7370517-1.0407927h-5.9646164l3.6209313 5.0485975c-.884307.4605488-1.9166445.7165854-3.0311349.7165854-3.7364106 0-6.3908819-2.8314634-6.3908819-6.9248781 0-4.09341459 2.6544713-6.924878 6.3908819-6.924878" fill="#fff458"/></g><path d="m0 25h6v-24h-6z" fill="#fff"/><path d="m39.4973124 1v14.6398008l-10.479423-14.6398008h-2.4130097-2.8434049-.0264141v14.6398008l-10.479423-14.6398008h-5.2556377v24h5.4855961v-14.6398008l10.479423 14.6398008h.9143955 3.1036619 1.2647713v-14.6398008l10.479423 14.6398008h5.2727292v-24z" fill="#fff"/><g transform="translate(46)"><path d="m12.4735351.12690854c-7.07910687 0-12.09276378 5.25310975-12.09276378 12.38329266 0 7.1293903 5.01365691 12.3832927 12.09276378 12.3832927 7.0791069 0 12.0927638-5.2539024 12.0927638-12.3832927 0-7.13018291-5.0136569-12.38329266-12.0927638-12.38329266m0 5.45841463c3.7364106 0 6.3908819 2.83146342 6.3908819 6.92487803 0 4.0934147-2.6544713 6.9248781-6.3908819 6.9248781-3.73641058 0-6.39088189-2.8314634-6.39088189-6.9248781 0-4.09341461 2.65447131-6.92487803 6.39088189-6.92487803" fill="#fff"/><path d="m38.238415.59958537c-7.0791069 0-12.0927638 5.25310975-12.0927638 12.38329263 0 7.1293903 5.0136569 12.3832927 12.0927638 12.3832927 2.4087874 0 4.4734623-.699939 6.2265759-1.8421951l1.0160619 1.3982927h6.4397086l-3.6209314-5.1167683c1.2780214-1.8937195 2.0313487-4.144939 2.0313487-6.822622 0-7.13018288-5.0136569-12.38329263-12.0927637-12.38329263m0 5.45841463c3.7356355 0 6.3908819 2.83146341 6.3908819 6.924878 0 .7847561-.0984286 1.5179879-.2790102 2.2004879l-.7370517-1.0407927h-5.9646164l3.6209313 5.0485975c-.884307.4605488-1.9166445.7165854-3.0311349.7165854-3.7364106 0-6.3908819-2.8314634-6.3908819-6.9248781 0-4.09341459 2.6544713-6.924878 6.3908819-6.924878" fill="#24244c"/></g></g></svg>