<?xml version="1.0" encoding="UTF-8"?>
<svg width="14px" height="14px" viewBox="0 0 14 14" version="1.1" xmlns="http://www.w3.org/2000/svg" xmlns:xlink="http://www.w3.org/1999/xlink">
    <!-- Generator: Sketch 48.2 (47327) - http://www.bohemiancoding.com/sketch -->
    <title>plus-red</title>
    <desc>Created with Sketch.</desc>
    <defs>
        <polygon id="path-1" points="0 14 0 0 14 0 14 14"></polygon>
    </defs>
    <g id="Page-1" stroke="none" stroke-width="1" fill="none" fill-rule="evenodd">
        <g id="plus-red" transform="translate(7.000000, 7.000000) rotate(-180.000000) translate(-7.000000, -7.000000) ">
            <mask id="mask-2" fill="white">
                <use xlink:href="#path-1"></use>
            </mask>
            <g id="path-1"></g>
            <path d="M12.9999968,6 C4.99999877,6 0.999999754,6 0.999999754,6 C0.999999754,6 0,6 0,7 C0,7.66666667 0.333333251,8 0.999999754,8 L12.9999968,8 C13.6679016,8 14.0012349,7.66666667 13.9999966,7 C13.9987582,6.33333333 13.665425,6 12.9999968,6 Z" id="Fill-1" fill="#FF4D67" fill-rule="nonzero" mask="url(#mask-2)"></path>
            <path d="M12.9999951,6.00000172 C4.99999705,6.00000172 0.999998036,6.00000172 0.999998036,6.00000172 C0.999998036,6.00000172 -1.71876948e-06,6.00000172 -1.71876948e-06,7.00000172 C-1.71876948e-06,7.66666839 0.333331533,8.00000172 0.999998036,8.00000172 L12.9999951,8.00000172 C13.6678999,8.00000172 14.0012332,7.66666839 13.9999948,7.00000172 C13.9987565,6.33333505 13.6654233,6.00000172 12.9999951,6.00000172 Z" id="Fill-1" fill="#FF4D67" fill-rule="nonzero" mask="url(#mask-2)" transform="translate(7.000000, 7.000002) rotate(-90.000000) translate(-7.000000, -7.000002) "></path>
        </g>
    </g>
</svg>