<?xml version="1.0" encoding="UTF-8"?><svg id="Ebene_1" xmlns="http://www.w3.org/2000/svg" viewBox="0 0 21.93 17.56"><defs><style>.cls-1{fill:#24244c;fill-rule:evenodd;}</style></defs><path class="cls-1" d="M21.77,7.3c-.2-.21-.53-.22-.74-.02,0,0-.02,.02-.02,.02l-1.26,1.26C19.62,3.72,15.6-.11,10.76,0,7.58,.08,4.68,1.87,3.2,4.69c-.14,.27-.03,.6,.24,.74,.27,.14,.6,.03,.74-.24C6.15,1.45,10.8,0,14.55,1.98c2.45,1.29,4.01,3.8,4.09,6.57l-1.26-1.25c-.21-.21-.56-.21-.77,0s-.21,.56,0,.77h0l2.19,2.19c.1,.1,.24,.16,.38,.16,.15,0,.28-.06,.38-.16l2.19-2.19c.21-.2,.22-.53,.02-.74,0,0-.02-.02-.02-.02Z"/><path class="cls-1" d="M18.5,12.14c-.27-.14-.6-.04-.74,.22,0,0,0,0,0,0-1.98,3.75-6.62,5.19-10.37,3.21-2.45-1.29-4.01-3.8-4.09-6.57l1.26,1.25c.2,.21,.53,.22,.74,.02,0,0,.02-.02,.02-.02,.21-.2,.22-.53,.02-.74,0,0-.02-.02-.02-.02l-2.19-2.19c-.2-.21-.53-.22-.74-.02,0,0-.02,.02-.02,.02L.17,9.49c-.21,.2-.22,.53-.02,.74,0,0,.02,.02,.02,.02,.2,.21,.53,.22,.74,.02,0,0,.02-.02,.02-.02l1.26-1.26c.12,4.84,4.13,8.68,8.98,8.56,3.18-.08,6.08-1.87,7.56-4.69,.14-.27,.03-.59-.23-.73Z"/></svg>