<svg height="40" viewBox="0 0 40 40" width="40" xmlns="http://www.w3.org/2000/svg"><g fill="none" stroke="#ff4d67" stroke-linecap="round" stroke-linejoin="round" stroke-width="1.5" transform="scale(1.66666667)"><path d="m3.375 15.853c1.45 0 2.625 1.175 2.625 2.625s-1.175 2.625-2.625 2.625-2.625-1.175-2.625-2.625 1.175-2.625 2.625-2.625z"/><path d="m6.581 23.2c-1.555-1.58-4.03-1.793-5.831-.5"/><path d="m20.625 15.853c1.45 0 2.625 1.175 2.625 2.625s-1.175 2.625-2.625 2.625-2.625-1.175-2.625-2.625 1.175-2.625 2.625-2.625z"/><path d="m17.511 23.105c1.566-1.5 3.978-1.67 5.739-.405"/><path d="m12 14.353c1.864 0 3.375 1.511 3.375 3.375s-1.511 3.375-3.375 3.375-3.375-1.511-3.375-3.375 1.511-3.375 3.375-3.375z"/><path d="m14.723 23.25c-1.694-.853-3.69-.863-5.392-.027"/><path d="m15.75 4.6c.001-2.071-1.678-3.75-3.749-3.751s-3.75 1.678-3.751 3.749c0 1.491.883 2.841 2.25 3.438v1.817h3v-1.817c1.367-.596 2.25-1.945 2.25-3.436z"/><path d="m10.5 12.103h3"/><path d="m19.811 5.25h1.5"/><path d="m19.5 8.689 1.061 1.061"/><path d="m19.5 1.81 1.061-1.06"/><path d="m4.189 5.25h-1.5"/><path d="m4.5 8.689-1.061 1.061"/><path d="m4.5 1.81-1.061-1.06"/></g></svg>