<svg id="Ebene_1" data-name="Ebene 1" xmlns="http://www.w3.org/2000/svg" viewBox="0 0 24 22"><path d="M10.5,12a1,1,0,0,0,0,2h4a1,1,0,0,0,0-2h-1V8a2,2,0,0,0-2-2h-1a1,1,0,0,0,0,2h1v4Z"/><circle cx="12.25" cy="4.25" r="1.25"/><path d="M22,0H2A2,2,0,0,0,0,2V15.55A2,2,0,0,0,2,17.5H4.5V21a1,1,0,0,0,1,1,1,1,0,0,0,.57-.18l6.24-4.32H22a2,2,0,0,0,2-2V2A2,2,0,0,0,22,0Zm0,15.25a.25.25,0,0,1-.25.25H12a1,1,0,0,0-.57.18L6.5,19.09V16.5a1,1,0,0,0-1-1H2.25A.25.25,0,0,1,2,15.25v-13A.25.25,0,0,1,2.25,2h19.5a.25.25,0,0,1,.25.25Z"/></svg>