<?xml version="1.0" encoding="UTF-8"?><svg id="Ebene_1" xmlns="http://www.w3.org/2000/svg" viewBox="0 0 23.02 24"><defs><style>.cls-1{fill:none;stroke:#000;stroke-linecap:round;stroke-linejoin:round;stroke-width:1.5px;}</style></defs><path class="cls-1" d="M6.3,13.25v-5.04c.12-1.33,1.29-2.31,2.62-2.21h0c1.33-.1,2.5,.88,2.62,2.21v3.58"/><path class="cls-1" d="M11.55,11.79v-3.58c.12-1.33,1.29-2.32,2.62-2.21h0c1.33-.1,2.5,.88,2.62,2.21v5.04"/><path class="cls-1" d="M.87,12.35c-.05-.86-.08-1.73-.09-2.59-.1-1.64,.1-3.29,.6-4.86,.74-1.93,2.44-3.32,4.47-3.68,2.45-.42,4.94-.56,7.42-.42,1.85,0,3.69,.29,5.44,.86,1.52,.68,2.65,2,3.1,3.6,.76,2.34,.42,4.83,.17,7.23-.6,5.55-8.8,4.98-12.95,4.55-.79-.08-1.57-.24-2.35-.37-.08,1.66,.68,3.39,2.27,3.63,1.46,.15,2.93,.2,4.39,.14,.33-.01,.66-.05,.98-.12,.49-.1,.96,.2,1.07,.69,0,.03,.01,.07,.02,.1v.06c.04,.38-.16,1.27-.52,1.42-2.37,.98-6.16,.77-8.75,.13-1.53-.36-2.85-1.32-3.66-2.67-.72-1.49-1.17-3.1-1.32-4.75-.12-.98-.22-1.96-.28-2.94Z"/></svg>