<svg height="40" viewBox="0 0 40 40" width="40" xmlns="http://www.w3.org/2000/svg"><g fill="none" stroke="#ff4d67" stroke-linecap="round" stroke-linejoin="round" stroke-width="1.5" transform="scale(1.66666667)"><path d="m.75 20.25h7.5v3h-7.5z"/><path d="m.75 14.25h7.5v3h-7.5z"/><path d="m15.75 20.25h7.5v3h-7.5z"/><path d="m15.75 14.25h7.5v3h-7.5z"/><path d="m.75 6.75h22.5v4.5h-22.5z"/><path d="m23.25 6.75-10.5-5.824c-.441-.235-.971-.235-1.412 0l-10.588 5.824z"/><path d="m.75 20.25h7.5v3h-7.5z"/><path d="m.75 14.25h7.5v3h-7.5z"/><path d="m15.75 20.25h7.5v3h-7.5z"/><path d="m15.75 14.25h7.5v3h-7.5z"/><path d="m.75 6.75h22.5v4.5h-22.5z"/><path d="m23.25 6.75-10.5-5.824c-.441-.235-.971-.235-1.412 0l-10.588 5.824z"/></g></svg>