<?xml version="1.0" encoding="utf-8"?>
<!-- Generator: Adobe Illustrator 25.2.3, SVG Export Plug-In . SVG Version: 6.00 Build 0)  -->
<svg version="1.1" id="Layer_1" xmlns="http://www.w3.org/2000/svg" xmlns:xlink="http://www.w3.org/1999/xlink" x="0px" y="0px"
	 viewBox="0 0 24 24" style="enable-background:new 0 0 24 24;" xml:space="preserve">
<style type="text/css">
	.st0{stroke:#000000;stroke-miterlimit:10;}
</style>
<g>
	<path class="st0" d="M22.1,22.6c-0.1,0-0.2,0-0.3-0.1l-7.9-7.9c-1.4,1.2-3.1,1.9-5,1.9c-4.1,0-7.5-3.4-7.5-7.5s3.4-7.5,7.5-7.5
		s7.5,3.4,7.5,7.5c0,1.8-0.7,3.6-1.9,5l7.9,7.9c0.1,0.1,0.1,0.2,0.1,0.3s0,0.2-0.1,0.3C22.4,22.5,22.3,22.6,22.1,22.6z M8.9,2.3
		c-3.6,0-6.6,3-6.6,6.6s3,6.6,6.6,6.6s6.6-3,6.6-6.6S12.6,2.3,8.9,2.3z"/>
</g>
</svg>
