<svg role="img" viewBox="-0.5 -0.5 16 16" xmlns="http://www.w3.org/2000/svg"
    id="Speakerdeck--Streamline-Simple-Icons" height="16" width="16">
    <desc>Speakerdeck Streamline Icon: https://streamlinehq.com</desc>
    <title>Speaker Deck</title>
    <path
        d="M6.265625 8.671875H2.9293750000000003a2.9299999999999997 2.9299999999999997 0 0 1 0 -5.859375h3.891875a1.171875 1.171875 0 0 1 0 2.34375H2.8699999999999997a0.5856250000000001 0.5856250000000001 0 1 0 0 1.171875h3.335625a2.9293750000000003 2.9293750000000003 0 1 1 0 5.859375H1.171875a1.171875 1.171875 0 0 1 0 -2.34375h5.09375a0.5862499999999999 0.5862499999999999 0 0 0 0 -1.171875zM8.731250000000001 12.1875a3.5218749999999996 3.5218749999999996 0 0 0 1.4975 -2.34375h1.8912499999999999a0.58125 0.58125 0 0 0 0.575625 -0.5862499999999999V5.743125a0.58125 0.58125 0 0 0 -0.575625 -0.5862499999999999h-3.435625c0.27375 -0.31125 0.43999999999999995 -0.721875 0.43999999999999995 -1.171875s-0.16625 -0.860625 -0.43999999999999995 -1.171875h4.01125C13.96875 2.8125 15 3.8618750000000004 15 5.15625v4.6875c0 1.294375 -1.03125 2.34375 -2.304375 2.34375H8.731250000000001z"
        fill="currentColor" stroke-width="1"></path>
</svg>