<?xml version="1.0" encoding="utf-8"?>
<!-- Generator: Adobe Illustrator 24.0.3, SVG Export Plug-In . SVG Version: 6.00 Build 0)  -->
<svg version="1.1" id="Ebene_1" xmlns="http://www.w3.org/2000/svg" xmlns:xlink="http://www.w3.org/1999/xlink" x="0px" y="0px"
	 viewBox="0 0 22.9 22.9" style="enable-background:new 0 0 22.9 22.9;" xml:space="preserve">
<style type="text/css">
	.st0{fill:none;stroke:#24244C;stroke-width:1.5;stroke-miterlimit:10;}
</style>
<title>spotify</title>
<g>
	<path class="st0" d="M11.4,22C17.2,22,22,17.2,22,11.4S17.2,0.9,11.4,0.9S0.9,5.6,0.9,11.4c0,0,0,0,0,0C0.9,17.2,5.6,22,11.4,22z"
		/>
	<path class="st0" d="M6.8,7.6c1.7-0.7,3.5-1,5.3-0.7c1.8,0.2,3.5,0.9,4.9,2.1"/>
	<path class="st0" d="M6.3,11.2c1.6-0.7,3.4-0.9,5.2-0.6c1.8,0.2,3.4,0.9,4.8,2"/>
	<path class="st0" d="M5.8,14.8c1.6-0.7,3.4-0.9,5.2-0.6c1.8,0.2,3.4,0.9,4.8,2"/>
</g>
</svg>
