<svg height="40" viewBox="0 0 40 40" width="40" xmlns="http://www.w3.org/2000/svg"><g fill="none" stroke="#ff4d67" stroke-linecap="round" stroke-linejoin="round" stroke-width="1.5" transform="scale(1.66666667)"><path d="m4.5 18h-.75c-1.657 0-3-1.343-3-3v-3c0-1.657 1.343-3 3-3h.75c.414 0 .75.336.75.75v7.5c0 .414-.336.75-.75.75z"/><path d="m20.25 18h-.75c-.414 0-.75-.336-.75-.75v-7.5c0-.414.336-.75.75-.75h.75c1.657 0 3 1.343 3 3v3c0 1.657-1.343 3-3 3z"/><path d="m3.75 9c0-4.556 3.694-8.25 8.25-8.25 4.556 0 8.25 3.694 8.25 8.25"/><path d="m15 21.75h2.25c1.657 0 3-1.343 3-3v-.75"/><path d="m13.5 23.25h-1.5c-.828 0-1.5-.672-1.5-1.5 0-.828.672-1.5 1.5-1.5h1.5c.828 0 1.5.672 1.5 1.5 0 .828-.672 1.5-1.5 1.5z"/><path d="m9 15.442c1.7 1.549 4.3 1.549 6 0"/><path d="m9 9.985v1.312"/><path d="m15 9.985v1.312"/></g></svg>