<svg xmlns="http://www.w3.org/2000/svg" viewBox="0 0 22.77 22.77">
  <title>text</title>
  <g>
    <path d="M22.64.62H1.36a.67.67,0,0,0-.74.74V22.64a.72.72,0,0,0,.74.74H22.64a.72.72,0,0,0,.74-.74V1.36C23.29.89,23,.62,22.64.62ZM21.9,21.9H2V2H21.9Z" transform="translate(-0.62 -0.62)" fill="#24244c"/>
    <path d="M6.91,6.63h13a.73.73,0,0,0,.74-.74.66.66,0,0,0-.74-.65h-13A.68.68,0,0,0,6.17,6C6.17,6.45,6.45,6.63,6.91,6.63Z" transform="translate(-0.62 -0.62)" fill="#24244c"/>
    <path d="M4.13,9.41H19.87a.73.73,0,0,0,.74-.74A.66.66,0,0,0,19.87,8H4.13a.68.68,0,0,0-.74.74C3.39,9.22,3.67,9.41,4.13,9.41Z" transform="translate(-0.62 -0.62)" fill="#24244c"/>
    <path d="M4.13,12.19H19.87a.73.73,0,0,0,.74-.75c0-.46-.37-.64-.74-.64H4.13a.68.68,0,0,0-.74.74C3.39,12,3.67,12.19,4.13,12.19Z" transform="translate(-0.62 -0.62)" fill="#24244c"/>
    <path d="M4.13,15H19.87a.73.73,0,0,0,.74-.74.66.66,0,0,0-.74-.65H4.13a.68.68,0,0,0-.74.74C3.39,14.78,3.67,15,4.13,15Z" transform="translate(-0.62 -0.62)" fill="#24244c"/>
    <path d="M4.13,17.74h6.48a.73.73,0,0,0,.74-.74.65.65,0,0,0-.74-.65H4.13a.68.68,0,0,0-.74.74C3.39,17.55,3.67,17.74,4.13,17.74Z" transform="translate(-0.62 -0.62)" fill="#24244c"/>
  </g>
</svg>
