<?xml version="1.0" encoding="utf-8"?>
<!-- Generator: Adobe Illustrator 24.0.3, SVG Export Plug-In . SVG Version: 6.00 Build 0)  -->
<svg version="1.1" id="Ebene_1" xmlns="http://www.w3.org/2000/svg" xmlns:xlink="http://www.w3.org/1999/xlink" x="0px" y="0px"
	 viewBox="0 0 22 22" style="enable-background:new 0 0 22 22;" xml:space="preserve">
<style type="text/css">
	.st0{fill:#24244C;}
</style>
<title>twitter-blue</title>
<path class="st0" d="M21.6,5.8c0.1-0.1,0.2-0.3,0.2-0.5c0-0.2-0.2-0.3-0.3-0.3l-0.7-0.2c-0.1,0-0.3-0.1-0.3-0.3
	c-0.1-0.1-0.1-0.3,0-0.4l0.4-0.8c0.1-0.2,0-0.5-0.2-0.6c-0.1,0-0.2-0.1-0.3,0l-1.8,0.5c-0.1,0-0.3,0-0.4-0.1c-2.1-1.5-5-1.1-6.6,1
	c-0.6,0.8-0.9,1.7-0.9,2.7v0.3c0,0.1-0.1,0.2-0.2,0.2c-2.7,0.2-5.2-1-7.9-4.2C2.3,3,2.1,3,2,3C1.8,3.1,1.7,3.2,1.7,3.4
	C1.3,4.9,1.5,6.6,2.1,8c0,0.1,0,0.2,0,0.2C2.1,8.3,2,8.4,1.9,8.3L0.8,8.2c-0.1,0-0.3,0-0.4,0.1C0.3,8.4,0.2,8.6,0.3,8.7
	c0.2,1.5,1,2.8,2.2,3.6c0.1,0.1,0.2,0.2,0.1,0.3c0,0.1-0.1,0.1-0.1,0.1L2,12.9c-0.1,0.1-0.2,0.1-0.3,0.3c-0.1,0.1-0.1,0.3,0,0.4
	c0.6,1.2,1.7,2.1,3,2.3c0.1,0,0.2,0.1,0.1,0.2c0,0.1-0.1,0.2-0.1,0.2c-1.3,0.5-2.7,0.8-4,0.8c-0.3,0-0.5,0.2-0.5,0.5c0,0,0,0,0,0
	l0,0c0,0.2,0.1,0.4,0.3,0.4c2.4,1.1,5,1.8,7.6,1.8c2.3,0,4.6-0.6,6.6-1.8c3.3-2.2,5.2-5.9,5.2-9.8V7.4c0-0.1,0.1-0.3,0.2-0.4
	L21.6,5.8z"/>
</svg>
