<?xml version="1.0" encoding="utf-8"?>
<!-- Generator: Adobe Illustrator 24.0.3, SVG Export Plug-In . SVG Version: 6.00 Build 0)  -->
<svg version="1.1" id="Ebene_1" xmlns="http://www.w3.org/2000/svg" xmlns:xlink="http://www.w3.org/1999/xlink" x="0px" y="0px"
	 viewBox="0 0 23 24" style="enable-background:new 0 0 23 24;" xml:space="preserve">
<style type="text/css">
	.st0{fill:#24244C;}
</style>
<title>xing</title>
<g>
	<path class="st0" d="M10.1,9.4L7.5,4.3C7.4,4.1,7.3,4.1,7.1,4.1H2.7c-0.2,0-0.4,0.2-0.4,0.5c0,0.1,0,0.1,0.1,0.2l2.5,4.8l-3.3,5.9
		c-0.1,0.1-0.1,0.3,0,0.5c0.1,0.1,0.2,0.2,0.4,0.2h4.4c0.2,0,0.3-0.1,0.4-0.2l3.4-6.1C10.1,9.7,10.1,9.5,10.1,9.4z"/>
	<path class="st0" d="M21.6,1.5c-0.1-0.1-0.2-0.2-0.4-0.2h-4.5c-0.1,0-0.3,0.1-0.4,0.2L9.7,14c-0.1,0.1-0.1,0.3,0,0.4l4.3,8.1
		c0.1,0.1,0.2,0.2,0.4,0.2h4.5c0.2,0,0.3-0.1,0.4-0.2c0.1-0.1,0.1-0.3,0-0.4L15,14.2l6.5-12.3C21.6,1.8,21.6,1.6,21.6,1.5z"/>
</g>
</svg>
