<?xml version="1.0" encoding="utf-8"?>
<!-- Generator: Adobe Illustrator 24.0.3, SVG Export Plug-In . SVG Version: 6.00 Build 0)  -->
<svg version="1.1" id="Ebene_1" xmlns="http://www.w3.org/2000/svg" xmlns:xlink="http://www.w3.org/1999/xlink" x="0px" y="0px"
	 viewBox="0 0 22.1 22.8" style="enable-background:new 0 0 22.1 22.8;" xml:space="preserve">
<style type="text/css">
	.st0{fill:#24244C;}
</style>
<title>youtube</title>
<g>
	<path class="st0" d="M5.5,5.1V9c0,0.4,0.3,0.7,0.7,0.7c0.4,0,0.7-0.3,0.7-0.7V5.1l2.6-3.5C9.7,1.4,9.6,1,9.3,0.7
		C9,0.5,8.6,0.6,8.4,0.9l-2.2,3l-2.2-3C3.8,0.6,3.4,0.5,3.1,0.7C2.8,1,2.8,1.4,3,1.7L5.5,5.1z"/>
	<path class="st0" d="M8.7,4.9v2.7c0.1,1.1,1,2,2.2,1.9c1-0.1,1.8-0.9,1.9-1.9V4.9c0-1.1-0.9-2-2-2S8.7,3.8,8.7,4.9L8.7,4.9L8.7,4.9
		z M10.1,4.9c0-0.4,0.3-0.7,0.7-0.7c0.4,0,0.7,0.3,0.7,0.7v2.7c0,0.4-0.2,0.7-0.6,0.8c-0.4,0-0.7-0.2-0.7-0.6c0-0.1,0-0.1,0-0.2
		L10.1,4.9z"/>
	<path class="st0" d="M14.5,9c0.5,0.5,1.1,0.7,1.8,0.7l0,0c0.4,0,0.9-0.1,1.2-0.4c0.1,0.2,0.3,0.4,0.6,0.4c0.4,0,0.7-0.3,0.7-0.7
		V7.2l0,0V3.6c0-0.4-0.3-0.7-0.7-0.7s-0.7,0.3-0.7,0.7l0,0v3.7c0,0.6-0.5,1.1-1.1,1.1c0,0,0,0,0,0l0,0c-0.6,0-1.1-0.5-1.1-1.1v0V3.6
		c0-0.4-0.4-0.7-0.8-0.6c-0.3,0-0.6,0.3-0.6,0.6v3.6C13.7,7.9,14,8.5,14.5,9z"/>
	<path class="st0" d="M16.9,16.3c0-0.3-0.2-0.5-0.4-0.5c-0.2,0-0.4,0.2-0.4,0.4c0,0,0,0,0,0v0.5h0.9L16.9,16.3z"/>
	<path class="st0" d="M12.8,15.9c-0.2,0-0.4,0.2-0.4,0.5v1.8c0,0.2,0.2,0.5,0.4,0.5c0.2,0,0.4-0.2,0.4-0.5v-1.8
		C13.3,16.1,13.1,15.9,12.8,15.9C12.8,15.9,12.8,15.9,12.8,15.9z"/>
	<path class="st0" d="M17.3,11.3H4.7c-2.2,0-4,1.9-4,4.1v2.7c0,2.3,1.8,4.1,4,4.1h12.6c2.2,0,4-1.8,4-4.1v-2.7
		C21.4,13.1,19.6,11.3,17.3,11.3z M7.4,14.9H6.1V19c0,0.2-0.2,0.4-0.4,0.5c0,0,0,0,0,0c-0.2,0-0.4-0.2-0.4-0.5v-4.1H3.8
		c-0.2,0-0.4-0.2-0.4-0.4c0,0,0,0,0,0c0-0.3,0.2-0.5,0.4-0.5h3.6c0.2,0,0.5,0.2,0.5,0.5C7.9,14.7,7.7,14.9,7.4,14.9
		C7.4,14.9,7.4,14.9,7.4,14.9z M10.6,18.1v0.9c0,0.3-0.2,0.5-0.4,0.5c-0.1,0-0.2,0-0.3-0.1c-0.7,0.3-1.5,0-1.8-0.6
		c-0.1-0.2-0.1-0.4-0.1-0.6v-2.8c0-0.3,0.2-0.5,0.4-0.5c0.2,0,0.4,0.2,0.4,0.5v2.7c0,0.3,0.2,0.5,0.4,0.5c0.2,0,0.4-0.2,0.4-0.5
		v-2.7c0-0.3,0.2-0.5,0.4-0.5c0.2,0,0.4,0.2,0.4,0.5L10.6,18.1z M14.2,18.1c0,0.8-0.6,1.4-1.3,1.4h0c-0.2,0-0.4-0.1-0.6-0.1
		c-0.1,0.1-0.2,0.1-0.3,0.1c-0.2,0-0.4-0.2-0.4-0.5v-5.5c0-0.3,0.2-0.5,0.5-0.5c0,0,0,0,0,0c0.2,0,0.4,0.2,0.4,0.5V15
		c0.1-0.1,0.3-0.1,0.4-0.1c0.7,0,1.3,0.6,1.3,1.4c0,0,0,0,0,0L14.2,18.1z M16.5,19.5c-0.8-0.1-1.4-0.7-1.4-1.5v-1.7
		c0-0.8,0.6-1.4,1.3-1.4c0.7,0,1.3,0.6,1.4,1.4c0,0,0,0,0,0v0.9c0,0.2-0.2,0.5-0.4,0.5H16v0.3c0,0.3,0.2,0.5,0.5,0.6
		c0.2,0,0.5-0.1,0.5-0.3c0-0.3,0.2-0.5,0.4-0.5c0.2,0,0.4,0.2,0.4,0.4c0,0,0,0,0,0C17.9,19,17.3,19.6,16.5,19.5
		C16.5,19.5,16.5,19.5,16.5,19.5z"/>
</g>
</svg>
